<?xml version="1.0" standalone="no"?>
<!DOCTYPE svg PUBLIC "-//W3C//DTD SVG 20010904//EN"
 "http://www.w3.org/TR/2001/REC-SVG-20010904/DTD/svg10.dtd">
<svg version="1.0" xmlns="http://www.w3.org/2000/svg"
 width="1024.000000pt" height="1024.000000pt" viewBox="0 0 1024.000000 1024.000000"
 preserveAspectRatio="xMidYMid meet">

<g transform="translate(0.000000,1024.000000) scale(0.100000,-0.100000)"
fill="#000000" stroke="none">
<path d="M3627 9248 c-38 -49 -143 -243 -177 -325 -84 -201 -79 -423 13 -562
l25 -37 -54 -53 c-82 -81 -111 -181 -84 -295 8 -36 6 -43 -19 -75 -16 -20 -34
-47 -41 -61 -20 -36 -18 -158 2 -195 l16 -29 -50 -56 c-72 -80 -82 -103 -82
-190 0 -41 5 -84 11 -95 9 -17 4 -29 -34 -80 -25 -33 -54 -78 -64 -100 -22
-48 -24 -134 -4 -190 l15 -40 -45 -42 c-66 -60 -87 -115 -85 -221 1 -54 -4
-108 -14 -140 -12 -43 -13 -64 -5 -102 10 -49 52 -121 87 -154 19 -16 19 -18
-2 -59 -15 -30 -20 -61 -20 -112 0 -86 16 -119 92 -191 54 -52 55 -55 56 -110
1 -54 -1 -57 -40 -90 -23 -18 -55 -55 -70 -81 -24 -41 -29 -60 -30 -127 -1
-67 -5 -82 -22 -95 -12 -9 -24 -28 -27 -43 -5 -20 -13 -28 -29 -28 -56 0 -101
-83 -74 -138 12 -23 11 -32 -4 -62 -20 -41 -22 -79 -7 -130 10 -32 9 -42 -5
-61 -22 -31 -20 -48 8 -102 22 -41 24 -55 20 -122 -4 -62 -2 -80 11 -95 13
-15 15 -30 10 -77 -11 -95 -7 -151 15 -219 18 -54 20 -69 10 -99 -15 -44 1
-99 35 -121 19 -13 22 -20 15 -39 -12 -32 -2 -84 25 -126 20 -31 21 -38 10
-59 -20 -38 -5 -103 33 -138 20 -19 23 -29 19 -59 -5 -31 -2 -41 28 -74 33
-36 45 -69 60 -152 4 -25 20 -54 44 -80 21 -23 43 -58 50 -77 6 -19 20 -42 31
-50 11 -8 21 -29 24 -47 4 -36 57 -109 86 -118 10 -3 20 -16 22 -28 2 -12 12
-26 23 -31 12 -5 29 -26 39 -47 11 -22 22 -39 26 -39 18 0 29 -80 30 -220 1
-155 12 -333 30 -465 5 -38 12 -106 16 -150 6 -76 8 -81 37 -100 33 -21 40
-37 57 -125 l11 -55 104 -34 c147 -47 313 -63 450 -42 181 28 205 41 205 111
0 37 6 59 55 200 18 52 29 113 36 200 5 68 12 126 14 128 9 9 28 -56 41 -138
20 -131 33 -202 43 -235 23 -76 61 -166 80 -193 20 -28 26 -30 108 -36 49 -4
237 -7 418 -8 349 -3 474 8 525 43 29 19 70 95 70 128 0 12 7 38 15 58 8 19
15 46 15 59 0 12 5 26 11 30 6 3 55 7 108 8 86 2 100 5 137 30 40 26 42 29 48
94 3 37 7 175 8 306 1 221 2 240 20 258 21 21 58 18 112 -9 48 -25 131 -28
176 -8 53 24 63 14 85 -82 41 -183 128 -492 150 -538 13 -27 51 -120 85 -205
38 -96 72 -166 89 -183 25 -26 33 -28 131 -32 206 -10 588 24 629 56 13 11 36
19 51 19 57 0 121 31 151 74 17 22 56 68 87 101 l57 60 -7 81 c-4 55 -13 92
-28 117 -20 33 -23 55 -25 165 -2 70 -10 181 -19 247 -9 66 -19 215 -22 330
-3 116 -9 234 -13 264 -5 31 -4 69 1 88 5 19 6 43 3 53 -15 49 22 79 66 54 33
-18 131 -17 203 2 75 21 144 83 183 164 14 30 42 71 63 91 20 20 46 56 58 80
30 62 18 150 -33 225 -19 30 -39 54 -44 54 -8 0 -81 65 -81 73 0 3 7 21 15 40
9 22 15 67 15 114 -1 68 -4 83 -28 118 -32 47 -66 65 -182 98 l-85 25 -3 52
c-3 50 -7 56 -65 115 -46 46 -76 66 -115 79 -40 13 -57 15 -65 7 -15 -15 -57
-14 -58 2 -4 78 -10 93 -55 134 -44 41 -118 73 -170 73 -12 0 -45 16 -74 35
l-52 35 -257 0 c-373 0 -635 36 -891 124 -173 58 -180 63 -199 129 -16 53 -73
166 -120 235 l-35 53 -56 -1 c-75 -2 -80 -1 -80 10 0 6 13 10 29 10 50 0 100
28 129 72 38 58 80 97 148 140 33 21 75 53 93 72 32 33 34 38 35 118 2 75 5
88 34 132 28 44 32 58 32 122 0 56 -4 77 -20 97 -28 35 -25 48 20 100 46 52
81 141 69 172 -4 11 -8 38 -8 61 -1 27 -10 54 -26 78 -30 45 -31 48 -4 72 40
35 59 93 59 182 0 88 -20 144 -65 183 -16 14 -18 21 -8 40 15 33 33 102 33
129 0 12 -14 63 -30 112 l-30 90 21 35 c16 26 22 55 26 124 l4 89 -46 47 c-45
47 -55 79 -33 101 9 9 13 46 18 182 0 3 18 25 40 50 23 25 57 79 78 120 48 98
52 169 22 352 -27 156 -64 259 -127 342 -38 51 -74 109 -138 226 -8 14 -22 25
-32 25 -15 0 -19 -12 -24 -80 -7 -79 -28 -144 -117 -350 -16 -38 -36 -96 -43
-129 l-13 -58 -44 6 c-55 7 -59 10 -67 45 -10 45 -79 117 -141 147 -41 20 -76
28 -132 32 -75 5 -78 6 -128 51 -80 73 -202 100 -298 66 -36 -12 -42 -12 -65
4 -69 49 -115 64 -191 65 -72 1 -78 -1 -129 -37 l-53 -39 -64 18 c-111 30
-215 4 -297 -74 -37 -36 -37 -36 -120 -34 -73 3 -88 0 -145 -27 -34 -17 -65
-37 -68 -46 -9 -22 -23 -19 -34 8 -6 12 -28 45 -50 72 -50 63 -125 239 -143
336 -15 86 -32 97 -70 47z m43 -178 c28 -80 77 -180 141 -286 64 -106 64 -118
2 -111 -49 5 -60 14 -97 78 -19 32 -20 33 -24 11 -2 -13 6 -42 17 -64 l20 -42
-21 -14 c-95 -67 -141 -147 -137 -239 3 -57 1 -60 -30 -54 -18 2 -81 146 -92
208 -14 78 0 169 42 290 39 110 138 308 148 297 4 -5 18 -38 31 -74z m2536
-189 c79 -153 106 -245 107 -361 1 -134 -31 -230 -106 -315 l-35 -40 -29 26
c-15 15 -37 31 -47 36 -15 8 -19 23 -21 69 -2 51 2 64 27 96 27 35 58 106 58
134 0 29 -19 12 -59 -51 -22 -36 -45 -65 -50 -65 -5 0 -19 20 -31 45 -12 25
-40 61 -63 80 l-40 35 22 82 c12 46 46 140 76 210 30 70 55 129 55 133 0 3 7
22 15 43 l16 36 26 -44 c14 -25 50 -92 79 -149z m-1315 87 c22 -6 57 -26 78
-45 45 -38 47 -38 90 -17 24 12 53 15 115 13 71 -4 88 -8 124 -32 22 -16 52
-46 65 -66 l25 -38 49 10 c77 16 152 -5 210 -57 40 -37 47 -49 52 -91 l6 -49
75 -16 c94 -20 129 -38 173 -91 54 -63 69 -103 72 -191 l3 -79 47 -31 c57 -38
81 -74 89 -136 8 -66 -7 -122 -42 -153 l-29 -26 51 -24 c71 -33 96 -74 96
-156 0 -67 -14 -105 -49 -137 -27 -25 -26 -37 4 -66 38 -36 58 -100 53 -168
-3 -48 -10 -67 -38 -102 l-34 -43 27 -19 c15 -11 40 -41 55 -66 23 -40 27 -58
27 -122 -1 -81 -21 -129 -71 -169 -30 -24 -30 -38 1 -71 32 -34 51 -118 41
-184 -7 -43 -16 -59 -71 -115 l-63 -66 31 -37 c21 -27 31 -51 35 -87 7 -77 -5
-118 -48 -165 -28 -31 -36 -46 -30 -56 27 -43 0 -180 -36 -180 -8 0 -17 -7
-20 -14 -6 -16 -107 -41 -124 -31 -5 3 -17 2 -26 -3 -11 -6 -13 -11 -5 -16 37
-23 -12 -116 -76 -142 -75 -32 -193 -3 -193 47 0 16 -4 19 -17 14 -30 -13
-146 -17 -201 -7 -49 9 -56 8 -82 -14 -16 -14 -59 -32 -96 -41 -62 -15 -72
-15 -127 -1 -53 14 -64 14 -95 1 -23 -9 -59 -13 -103 -11 -71 3 -78 -5 -23
-28 31 -13 34 -18 34 -59 0 -26 -5 -47 -14 -52 -23 -14 -36 -50 -30 -83 5 -24
2 -34 -13 -45 -26 -18 -38 -77 -22 -107 10 -18 8 -24 -10 -39 -13 -11 -21 -29
-22 -51 0 -18 -6 -49 -13 -68 -16 -44 -50 -52 -159 -40 -48 6 -87 6 -103 0
-35 -14 -128 -12 -176 2 -22 6 -58 28 -81 49 -39 34 -48 37 -117 41 -88 4
-157 33 -238 97 l-53 43 7 201 7 202 -24 -22 c-29 -26 -71 -43 -107 -43 -43 0
-103 20 -108 36 -2 8 -6 20 -8 28 -4 11 -13 12 -45 5 -52 -12 -128 5 -160 34
-13 12 -30 37 -37 55 -13 30 -18 32 -61 32 -125 0 -238 67 -263 155 -18 64 -7
149 24 193 l24 34 -53 52 c-77 75 -93 146 -56 250 15 44 17 62 9 98 -6 25 -7
67 -3 94 6 41 15 57 58 99 29 28 60 55 71 60 17 10 17 12 -4 47 -12 20 -24 62
-27 92 -5 46 -2 64 20 108 39 79 93 138 126 138 l28 0 -1 -77 c-1 -90 12 -122
75 -182 56 -55 102 -75 186 -79 l72 -4 -2 -152 -2 -151 33 -67 c49 -99 104
-155 210 -211 133 -70 217 -89 387 -89 166 0 252 19 375 82 196 103 288 286
291 581 2 246 -119 458 -314 549 -111 52 -169 64 -291 58 -130 -7 -217 -36
-321 -107 -74 -50 -80 -53 -90 -35 -61 111 -249 166 -386 115 -78 -30 -135
-73 -171 -132 -22 -35 -37 -49 -53 -49 -34 0 -47 24 -46 84 0 66 17 108 64
161 l35 40 118 1 c106 0 125 3 175 26 30 14 72 40 92 57 l36 32 68 -38 c65
-36 72 -38 158 -38 80 0 95 3 136 27 25 15 51 33 58 41 10 13 20 10 67 -18
112 -68 258 -71 350 -9 l36 24 27 -28 c72 -78 200 -98 315 -49 l60 25 28 -39
c60 -82 141 -111 271 -95 45 6 62 14 103 51 52 47 45 62 -9 21 -72 -55 -199
-58 -279 -7 -37 24 -63 58 -94 129 -1 2 -30 -12 -64 -30 -122 -63 -249 -47
-320 40 l-33 41 -30 -25 c-50 -42 -96 -57 -177 -58 -86 0 -154 25 -207 76
l-32 31 -27 -32 c-47 -56 -98 -76 -190 -75 -83 0 -84 1 -200 69 l-31 19 -46
-47 c-60 -60 -128 -81 -234 -75 -67 5 -77 8 -109 38 -31 31 -34 39 -34 91 0
74 10 100 60 148 l41 40 -15 46 c-19 53 -20 124 -5 179 16 56 103 141 163 158
l47 14 2 85 c2 75 5 91 30 127 43 65 94 94 178 100 l71 5 18 41 c45 106 184
165 285 122 29 -12 31 -11 80 42 27 30 64 61 82 69 49 20 181 17 226 -6 33
-17 38 -17 49 -3 7 8 31 28 52 44 33 24 48 28 104 28 36 0 82 -5 103 -12z
m-438 -1532 c207 -40 346 -179 396 -397 30 -130 34 -213 16 -325 -36 -232
-164 -374 -392 -436 -106 -28 -346 -31 -443 -5 -163 44 -280 126 -341 240 -30
55 -34 72 -37 157 -7 160 41 296 162 469 176 249 383 346 639 297z m-666 -26
c36 -22 58 -52 68 -93 6 -23 1 -33 -33 -67 -37 -37 -44 -40 -96 -40 -47 0 -61
4 -88 29 -27 24 -33 36 -33 70 0 95 101 151 182 101z m-493 -1656 c13 -34 7
-44 -29 -44 -30 0 -35 3 -35 23 0 13 3 27 7 30 12 13 51 7 57 -9z m2108 -149
c0 -8 1 -20 2 -27 1 -17 -45 -26 -71 -15 -14 6 -23 19 -23 33 0 22 24 39 41
28 5 -3 9 0 9 6 0 16 40 -8 42 -25z m-2050 -1 c16 -8 37 -36 53 -69 39 -78 33
-142 -19 -193 -34 -34 -40 -37 -108 -40 -88 -3 -110 6 -157 72 -42 59 -46 114
-12 170 29 46 59 66 106 71 20 2 39 6 43 9 8 9 60 -3 94 -20z m2246 10 c6 4 8
-2 5 -14 -5 -19 -6 -20 -19 -3 -7 10 -13 23 -14 28 0 6 4 4 9 -4 5 -7 13 -11
19 -7z m-38 -39 c0 -5 -5 -3 -10 5 -5 8 -10 20 -10 25 0 6 5 3 10 -5 5 -8 10
-19 10 -25z m-1880 -16 c0 -10 -2 -19 -4 -19 -2 0 -11 -3 -20 -6 -11 -4 -16 0
-16 12 0 15 2 16 9 5 7 -11 10 -11 17 0 4 7 3 14 -4 17 -7 2 -10 8 -6 13 8 14
24 0 24 -22z m1416 -5 c-3 -20 -26 -43 -26 -25 0 7 -4 9 -10 6 -5 -3 -10 2
-10 11 0 14 3 15 12 6 7 -7 17 -12 22 -12 6 0 5 5 -2 12 -16 16 -15 29 2 22 8
-3 13 -12 12 -20z m104 -5 c0 -6 -4 -7 -10 -4 -5 3 -10 11 -10 16 0 6 5 7 10
4 6 -3 10 -11 10 -16z m-210 -3 c0 -16 -18 -31 -27 -22 -8 8 5 36 17 36 5 0
10 -6 10 -14z m280 -50 c0 -21 -20 -30 -33 -17 -9 9 -8 14 3 21 21 14 30 12
30 -4z m-80 -10 c0 -7 -7 -19 -15 -26 -19 -15 -47 4 -38 26 7 18 53 19 53 0z
m297 -33 c-3 -10 -5 -2 -5 17 0 19 2 27 5 18 2 -10 2 -26 0 -35z m132 15 c15
-39 -23 -65 -48 -34 -9 11 -10 20 -1 35 14 28 39 27 49 -1z m86 -8 c-5 -8 -11
-8 -17 -2 -6 6 -7 16 -3 22 5 8 11 8 17 2 6 -6 7 -16 3 -22z m-628 0 c4 -23
-12 -41 -30 -34 -17 6 -23 35 -10 48 11 11 38 2 40 -14z m289 0 c0 -11 -4 -20
-8 -20 -4 0 -8 9 -8 20 0 11 4 20 8 20 4 0 8 -9 8 -20z m67 14 c11 -11 -5 -34
-24 -34 -12 0 -19 7 -18 18 0 9 3 12 5 5 3 -7 12 -9 20 -6 13 5 13 7 2 14 -7
5 -8 9 -2 9 6 0 13 -3 17 -6z m-1743 -10 c0 -10 -28 -34 -39 -34 -15 0 -14 27
2 33 17 8 37 8 37 1z m128 -21 c-5 -26 -38 -29 -38 -4 0 15 6 21 21 21 14 0
19 -5 17 -17z m1152 7 c0 -5 -7 -10 -15 -10 -8 0 -15 5 -15 10 0 6 7 10 15 10
8 0 15 -4 15 -10z m-30 -36 c0 -8 5 -14 10 -14 6 0 10 -4 10 -10 0 -5 -7 -10
-15 -10 -17 0 -39 36 -30 50 8 13 25 3 25 -16z m-1382 -11 c2 -8 -6 -13 -20
-14 -21 -1 -21 -2 7 -14 l30 -14 -32 -1 c-34 0 -40 11 -27 45 7 18 35 17 42
-2z m1720 -11 c3 -16 -2 -22 -17 -22 -24 0 -35 15 -27 36 9 23 40 13 44 -14z
m209 -2 c1 -11 -2 -20 -8 -20 -10 0 -12 23 -2 33 9 9 9 10 10 -13z m-319 -12
c-2 -13 -10 -23 -18 -23 -8 0 -16 10 -18 23 -3 17 2 22 18 22 16 0 21 -5 18
-22z m-1360 -36 c3 -17 -2 -22 -17 -22 -14 0 -21 6 -21 18 0 38 33 41 38 4z
m1252 9 c0 -21 -26 -36 -35 -21 -6 10 14 39 28 40 4 0 7 -9 7 -19z m558 -18
c2 -13 -2 -23 -8 -23 -7 0 -10 8 -7 20 6 25 -28 29 -37 4 -3 -8 -2 -12 3 -9 5
3 12 1 16 -5 3 -5 -3 -10 -14 -10 -22 0 -25 8 -15 35 10 25 58 16 62 -12z
m-698 -38 c0 -17 -23 -25 -40 -15 -11 7 -11 11 -1 24 14 17 41 11 41 -9z m248
-23 c4 -28 -24 -40 -45 -19 -21 21 -9 49 19 45 15 -2 24 -11 26 -26z m-130
-26 c5 -24 -10 -38 -31 -30 -17 6 -23 35 -10 48 12 12 38 1 41 -18z m-1563
-19 c0 -15 -6 -24 -18 -24 -11 -1 -15 2 -10 10 4 7 8 15 9 20 3 15 4 17 12 17
4 0 7 -10 7 -23z m335 1 c0 -19 -2 -20 -10 -8 -6 10 -10 11 -10 3 0 -7 -7 -13
-15 -13 -15 0 -21 21 -8 33 16 16 43 6 43 -15z m1790 2 c0 -11 -7 -20 -15 -20
-8 0 -15 6 -15 13 0 8 -4 7 -10 -3 -8 -12 -10 -11 -10 8 0 17 6 22 25 22 18 0
25 -5 25 -20z m-1910 -17 c0 -22 -2 -25 -10 -13 -13 20 -13 40 0 40 6 0 10
-12 10 -27z m1650 2 c0 -13 3 -13 20 -3 16 11 22 9 35 -7 9 -11 13 -14 9 -6
-4 9 -2 12 7 9 8 -3 13 -11 11 -17 -1 -7 2 -10 8 -6 14 9 42 -14 33 -28 -3 -5
-1 -7 5 -3 6 3 18 -4 26 -16 19 -26 22 -123 4 -134 -7 -4 -8 -3 -4 4 4 7 5 12
1 12 -3 0 -10 -12 -15 -26 -6 -14 -15 -22 -20 -19 -6 4 -8 10 -5 14 2 5 -13
11 -36 15 -22 4 -37 11 -34 16 8 13 -11 13 -35 0 -13 -7 -21 -7 -26 2 -5 7 -2
8 7 3 11 -6 11 -5 2 5 -9 10 -38 15 -115 20 -15 0 -8 20 7 20 21 0 19 12 -7
35 -15 12 -18 20 -10 23 7 2 12 8 12 13 0 6 -4 7 -10 4 -17 -10 -11 12 7 26
14 12 16 12 9 0 -6 -9 -5 -12 5 -9 8 3 13 10 12 16 -1 5 4 16 12 22 10 8 15 9
15 2 0 -6 7 -9 15 -6 8 4 12 11 8 17 -3 5 -1 7 5 3 6 -3 13 -2 17 4 9 15 25
12 25 -5z m-2340 -6 c13 -9 13 -10 0 -8 -30 3 -40 -1 -41 -18 0 -11 -2 -13 -6
-5 -13 33 16 53 47 31z m425 -9 c3 -5 2 -10 -4 -10 -5 0 -13 5 -16 10 -3 6 -2
10 4 10 5 0 13 -4 16 -10z m-119 -19 c125 -76 122 -238 -6 -304 -47 -25 -63
-28 -113 -24 -83 7 -128 39 -150 106 -9 28 -14 57 -12 64 2 6 7 25 9 41 3 16
22 47 42 67 63 65 169 87 230 50z m1589 -10 c-6 -5 -25 10 -25 20 0 5 6 4 14
-3 8 -7 12 -15 11 -17z m235 4 c0 -28 -25 -44 -42 -27 -15 15 1 52 23 52 14 0
19 -7 19 -25z m460 -18 c0 -8 -9 -13 -22 -11 -34 4 -35 5 -8 14 14 4 26 8 28
9 1 1 2 -5 2 -12z m-1956 -30 c-8 -22 -20 -22 -28 0 -7 18 14 37 27 24 4 -4 5
-15 1 -24z m-76 -5 c3 -16 -2 -22 -17 -22 -24 0 -35 15 -27 36 9 23 40 13 44
-14z m129 -4 c-3 -7 -5 -2 -5 12 0 14 2 19 5 13 2 -7 2 -19 0 -25z m99 6 c-3
-9 -6 -20 -6 -25 0 -6 -4 -7 -10 -4 -16 10 -12 45 6 45 11 0 14 -5 10 -16z
m1239 6 c6 -10 -29 -50 -45 -50 -14 0 -24 26 -16 45 6 17 51 21 61 5z m-150
-10 c3 -5 1 -10 -6 -10 -8 0 -8 -4 1 -15 14 -17 7 -19 -20 -5 -11 6 -17 17
-14 25 7 17 30 20 39 5z m-1405 -29 c0 -11 -5 -23 -12 -27 -7 -5 -8 -3 -3 6 5
8 1 18 -10 27 -18 12 -18 13 3 13 15 0 22 -6 22 -19z m88 -68 c0 -35 -1 -36
-14 -18 -17 23 -18 42 -1 48 6 3 13 6 14 6 0 1 1 -16 1 -36z m72 26 c0 8 2 12
5 9 3 -3 3 -13 -1 -22 -7 -19 -24 -11 -24 12 0 15 2 15 10 2 8 -12 10 -12 10
-1z m80 -14 c0 -8 -4 -15 -10 -15 -5 0 -10 7 -10 15 0 8 5 15 10 15 6 0 10 -7
10 -15z m1270 -23 c0 -17 -13 -22 -27 -11 -10 9 -13 8 -13 -1 0 -8 -3 -11 -6
-7 -3 3 -3 10 1 16 7 13 45 15 45 3z m-149 -16 c-8 -10 -9 -16 -1 -21 5 -3 14
4 18 16 7 17 10 19 14 7 9 -21 -6 -41 -28 -36 -25 4 -32 48 -8 48 13 0 14 -3
5 -14z m-1163 -35 c18 -11 11 -55 -9 -59 -11 -2 -19 6 -23 23 -10 39 4 54 32
36z m98 -11 c0 -11 -4 -20 -8 -20 -11 0 -20 19 -13 30 10 16 21 11 21 -10z
m34 -6 c0 -8 -4 -14 -8 -14 -4 0 -8 9 -8 19 0 11 4 17 8 15 4 -3 8 -12 8 -20z
m3587 -6 c24 -11 52 -33 64 -49 17 -24 24 -27 35 -18 18 15 79 7 128 -16 80
-38 117 -136 82 -220 -9 -21 -13 -41 -9 -45 5 -3 24 -18 44 -32 81 -60 93
-172 26 -245 l-20 -22 33 -37 c65 -74 77 -155 36 -233 -23 -45 -23 -45 -5 -87
33 -73 35 -125 7 -185 -20 -46 -22 -58 -12 -79 16 -32 44 -167 51 -247 4 -43
1 -76 -11 -112 -11 -33 -13 -57 -7 -73 4 -13 11 -81 15 -153 10 -194 33 -477
57 -685 29 -265 34 -292 52 -325 20 -36 22 -78 5 -93 -17 -13 -142 -38 -238
-47 -41 -4 -90 -13 -108 -21 -19 -7 -84 -24 -145 -36 -98 -20 -143 -23 -359
-23 -207 0 -250 2 -262 15 -8 8 -37 85 -65 170 -135 417 -213 745 -183 764 6
4 39 0 73 -9 98 -26 202 -3 286 61 32 24 36 25 87 13 29 -6 60 -9 67 -6 8 3 5
6 -8 6 -13 1 -46 10 -74 20 l-51 20 -43 -33 c-24 -19 -67 -39 -95 -46 -66 -16
-181 -8 -215 14 -25 16 -26 16 -67 -28 -35 -36 -52 -45 -91 -51 -68 -10 -167
-2 -202 18 -78 43 -72 42 -104 14 -18 -15 -50 -29 -77 -33 -54 -8 -158 12
-176 34 -8 9 -17 78 -24 182 -6 92 -16 175 -22 186 -9 14 -12 -108 -12 -476
-1 -580 -4 -658 -28 -682 -28 -26 -203 -76 -309 -87 -227 -23 -430 -33 -614
-30 -177 4 -199 6 -218 23 -14 13 -21 31 -21 55 0 20 -5 54 -10 77 -11 49 -60
479 -60 529 0 20 6 37 13 39 6 2 32 9 57 16 83 23 152 54 162 73 8 15 17 18
40 13 40 -8 88 20 88 51 0 18 6 23 26 23 28 0 65 16 76 34 4 6 8 23 8 38 0 21
8 30 38 45 36 17 37 20 35 66 -2 26 1 47 7 47 16 0 60 54 60 73 0 11 11 33 26
49 14 17 28 44 31 59 5 26 10 29 42 29 47 0 97 46 88 80 -8 30 2 50 24 50 24
0 50 50 47 92 -3 27 1 34 19 36 12 2 27 10 33 18 18 21 44 18 184 -21 191 -52
599 -131 806 -156 264 -32 726 -33 777 -1 20 12 33 316 34 802 2 505 -9 662
-50 756 -12 25 -21 55 -21 66 0 17 5 18 53 12 28 -3 71 -15 94 -26z m-3827
-25 c0 -19 -4 -24 -16 -19 -9 3 -18 6 -20 6 -2 0 -4 11 -4 24 0 19 4 23 20 19
13 -4 20 -14 20 -30z m1372 -11 c-17 -5 -15 -32 2 -32 8 0 17 10 19 23 l4 22
2 -22 c0 -13 -7 -27 -19 -33 -24 -13 -40 -6 -40 19 0 22 20 42 34 34 6 -4 6
-8 -2 -11z m-124 -20 c15 15 24 7 13 -11 -11 -18 -51 -5 -51 17 1 16 2 16 14
0 9 -13 16 -14 24 -6z m-1359 -19 c2 -2 -5 -3 -17 -3 -14 0 -22 6 -22 16 0 14
3 15 18 3 9 -7 19 -15 21 -16z m171 -8 c0 -8 -2 -15 -4 -15 -2 0 -6 7 -10 15
-3 8 -1 15 4 15 6 0 10 -7 10 -15z m-690 -15 c0 -11 -4 -20 -10 -20 -5 0 -10
9 -10 20 0 11 5 20 10 20 6 0 10 -9 10 -20z m2813 -22 c100 -94 87 -236 -27
-295 -34 -18 -128 -20 -171 -3 -42 16 -85 59 -78 78 4 9 2 13 -4 9 -14 -9 -23
25 -23 84 0 35 7 55 28 85 50 68 78 82 173 83 53 1 59 -2 102 -41z m-1955 10
c-3 -24 -34 -36 -49 -21 -16 16 2 43 28 43 20 0 24 -4 21 -22z m1496 -22 c126
-53 123 -255 -5 -321 -41 -22 -132 -19 -179 5 -102 52 -107 221 -9 291 52 37
138 48 193 25z m-1747 -28 c-3 -8 -6 -5 -6 6 -1 11 2 17 5 13 3 -3 4 -12 1
-19z m1383 8 c0 -8 -7 -17 -16 -20 -23 -9 -24 -8 -24 14 0 13 7 20 20 20 11 0
20 -6 20 -14z m-1233 -18 c-3 -8 -6 -5 -6 6 -1 11 2 17 5 13 3 -3 4 -12 1 -19z
m-424 -13 c39 -16 97 -62 97 -76 0 -6 -6 -7 -12 -4 -7 4 -6 0 4 -7 16 -13 20
-70 6 -84 -7 -6 -41 24 -56 52 -9 15 -13 16 -26 5 -13 -11 -19 -11 -31 -1 -8
7 -25 10 -39 6 -16 -4 -30 0 -40 10 -18 18 -21 28 -5 18 8 -4 8 0 0 15 -7 11
-18 21 -26 21 -36 0 -5 36 42 50 40 12 47 12 86 -5z m535 -52 c3 -20 -1 -23
-26 -23 -31 0 -43 14 -34 38 8 23 57 10 60 -15z m-258 -23 c0 -20 -5 -30 -15
-30 -10 0 -15 10 -15 30 0 20 5 30 15 30 10 0 15 -10 15 -30z m-423 5 c0 -8
-4 -12 -9 -9 -4 3 -8 9 -8 15 0 5 4 9 8 9 5 0 9 -7 9 -15z m1754 -2 c0 -15 2
-15 9 2 8 19 9 19 9 -2 1 -17 -5 -23 -19 -23 -13 0 -20 7 -20 20 0 25 20 27
21 3z m-1274 -35 c-3 -8 -6 -5 -6 6 -1 11 2 17 5 13 3 -3 4 -12 1 -19z m4301
-5 c53 -39 72 -80 72 -152 0 -46 -5 -74 -17 -91 -16 -23 -16 -23 3 -15 10 4
57 10 104 12 74 4 91 2 129 -19 25 -13 59 -40 75 -61 28 -35 31 -47 35 -122 2
-63 -1 -92 -13 -116 -9 -18 -16 -34 -16 -35 0 -2 22 -15 50 -29 69 -35 103
-88 108 -170 6 -85 -21 -144 -77 -177 -34 -19 -43 -31 -56 -76 -20 -67 -80
-135 -141 -158 -32 -12 -63 -15 -118 -12 -93 6 -137 31 -161 90 -21 52 -30
157 -20 233 l7 57 46 -6 47 -6 -32 21 c-38 24 -93 106 -93 138 0 13 7 48 16
79 11 37 15 75 11 115 -5 52 -2 67 20 109 30 58 24 72 -15 35 -16 -15 -33 -27
-39 -27 -19 0 -23 28 -8 57 8 15 15 50 15 77 0 79 -18 123 -73 171 -49 45 -51
51 -18 89 22 25 119 19 159 -11z m-3138 13 c0 -2 -11 -6 -25 -8 -14 -3 -25 -1
-25 3 0 5 11 9 25 9 14 0 25 -2 25 -4z m-977 -59 c8 -20 -9 -41 -27 -34 -23 9
-21 47 3 47 10 0 21 -6 24 -13z m975 -4 c-2 -10 -12 -19 -23 -21 -18 -3 -19
-2 -2 8 9 6 15 15 12 21 -4 5 -1 9 5 9 6 0 10 -8 8 -17z m112 7 c0 -5 -4 -10
-10 -10 -5 0 -10 5 -10 10 0 6 5 10 10 10 6 0 10 -4 10 -10z m-1381 -13 c-2
-1 -12 -9 -21 -16 -15 -12 -18 -11 -18 3 0 10 8 16 22 16 12 0 19 -1 17 -3z
m1478 -39 c-3 -7 -5 -2 -5 12 0 14 2 19 5 13 2 -7 2 -19 0 -25z m-1460 1 c2
-16 -1 -19 -9 -11 -5 5 -7 15 -4 21 10 15 12 14 13 -10z m117 -35 c24 -9 20
-39 -5 -41 -16 -2 -20 3 -16 17 3 11 0 21 -7 24 -17 7 9 7 28 0z m1206 -14 c0
-12 -38 -23 -50 -15 -15 10 12 33 32 27 10 -2 18 -8 18 -12z m-1041 -14 c9
-11 10 -20 1 -36 -16 -29 -34 -20 -38 18 -4 35 16 44 37 18z m918 -2 c8 -20
-17 -36 -34 -22 -10 8 -10 14 -2 24 15 18 28 18 36 -2z m-1157 -18 c0 -28 -28
-43 -37 -20 -8 21 6 32 17 14 8 -13 10 -12 10 2 0 9 -6 19 -12 21 -8 3 -6 6 5
6 12 1 17 -7 17 -23z m1475 -30 c22 -12 45 -32 52 -46 15 -29 17 -138 3 -160
-6 -10 -10 -11 -10 -3 0 7 -14 20 -30 28 -17 9 -28 20 -24 26 4 6 10 4 17 -5
10 -13 15 -13 30 -1 21 15 12 24 -39 35 -29 7 -34 5 -34 -10 0 -10 -8 -20 -17
-22 -20 -4 -63 13 -63 25 0 12 -68 8 -73 -5 -10 -24 -48 34 -42 62 3 14 6 31
7 38 1 7 6 11 12 9 6 -2 18 4 27 14 24 28 80 48 114 42 17 -3 48 -15 70 -27z
m-1405 -20 c0 -3 -4 -8 -10 -11 -5 -3 -10 -1 -10 4 0 6 5 11 10 11 6 0 10 -2
10 -4z m1875 -37 c54 -25 81 -60 95 -123 19 -88 -17 -163 -97 -201 -96 -46
-248 45 -245 146 2 65 65 157 127 185 42 19 69 17 120 -7z m-2501 -4 c6 -16
-3 -19 -28 -9 -22 8 -20 24 3 24 10 0 21 -7 25 -15z m1666 1 c0 -14 -34 -28
-44 -18 -15 14 -4 32 19 32 15 0 25 -6 25 -14z m-850 -30 c0 -17 -7 -25 -25
-28 -14 -3 -25 -2 -25 3 0 4 -2 14 -5 21 -4 9 3 19 17 25 29 13 38 8 38 -21z
m-415 5 c70 -32 105 -86 105 -161 0 -21 -7 -45 -15 -54 -8 -8 -15 -18 -15 -22
0 -13 -43 -54 -56 -54 -6 0 -11 8 -10 18 1 11 -5 16 -16 14 -13 -2 -16 2 -12
13 5 12 9 13 21 3 12 -10 17 -9 24 5 6 9 15 17 21 17 11 0 37 29 38 43 0 10
-42 9 -58 -1 -7 -5 -10 -16 -7 -25 5 -12 2 -14 -14 -10 -24 6 -34 29 -22 51
16 28 -5 52 -44 52 -19 0 -35 -4 -35 -10 0 -5 -5 -10 -11 -10 -5 0 -7 5 -3 12
4 6 3 8 -4 5 -5 -4 -30 -9 -54 -11 -39 -4 -44 -2 -55 21 -10 21 -10 31 0 51
18 37 45 51 60 31 14 -19 64 -38 53 -20 -4 6 -12 11 -17 11 -5 0 -20 9 -32 21
l-22 20 26 -6 c16 -4 30 -2 33 4 11 17 77 13 121 -8z m275 -21 c0 -11 0 -23 1
-27 0 -4 -4 -9 -10 -11 -12 -4 -34 35 -26 48 11 18 35 11 35 -10z m940 -34 c0
-11 -19 -15 -25 -6 -3 5 1 10 9 10 9 0 16 -2 16 -4z m-1010 -37 c0 -25 -33
-22 -38 4 -2 12 3 17 17 17 15 0 21 -6 21 -21z m1317 4 c0 -9 -4 -10 -14 -2
-7 6 -13 12 -13 14 0 1 6 2 13 2 8 0 14 -6 14 -14z m-1867 -24 c0 -6 -4 -7
-10 -4 -5 3 -10 11 -10 16 0 6 5 7 10 4 6 -3 10 -11 10 -16z m785 -4 c0 -23
-34 -33 -46 -13 -17 26 -10 39 19 36 19 -2 27 -9 27 -23z m1186 6 c9 -1 49
-37 49 -44 0 -4 -10 -12 -22 -18 -20 -11 -21 -10 -11 3 7 8 10 18 6 21 -12 12
-61 7 -60 -5 1 -41 -4 -48 -33 -48 -26 0 -30 4 -30 28 l1 27 19 -23 c11 -13
21 -18 25 -12 8 13 -4 52 -15 45 -4 -3 -11 2 -14 11 -4 12 -1 14 13 9 11 -3
22 -2 25 4 3 5 14 8 24 6 9 -2 20 -4 23 -4z m-465 -22 c10 -16 -18 -40 -35
-29 -12 7 -12 11 -2 24 16 19 27 20 37 5z m-826 -9 c0 -5 -6 -10 -14 -10 -8 0
-18 5 -21 10 -3 6 3 10 14 10 12 0 21 -4 21 -10z m-519 -23 c-10 -9 -11 -8 -5
6 3 10 9 15 12 12 3 -3 0 -11 -7 -18z m141 -11 c7 4 8 2 4 -5 -10 -15 -26 -4
-25 17 1 15 2 15 6 -1 2 -9 9 -14 15 -11z m1826 12 c-7 -19 -38 -22 -38 -4 0
10 9 16 21 16 12 0 19 -5 17 -12z m-164 -13 c-4 -8 -11 -12 -16 -9 -6 4 -5 10
3 15 19 12 19 11 13 -6z m-1425 -22 c0 -25 -1 -26 -9 -8 -12 27 -12 35 0 35 6
0 10 -12 9 -27z m171 -4 c0 -14 -6 -19 -17 -17 -26 5 -28 33 -3 35 14 1 20 -4
20 -18z m-400 -3 c0 -3 -4 -8 -10 -11 -5 -3 -10 -1 -10 4 0 6 5 11 10 11 6 0
10 -2 10 -4z m-50 -20 c0 -2 -8 -10 -17 -17 -16 -13 -17 -12 -4 4 13 16 21 21
21 13z m37 -12 c-3 -3 -12 -4 -19 -1 -8 3 -5 6 6 6 11 1 17 -2 13 -5z m323
-31 c0 -13 -3 -13 -15 -3 -8 7 -12 16 -9 21 8 13 24 1 24 -18z m1474 12 c-4
-8 -8 -15 -10 -15 -2 0 -4 7 -4 15 0 8 4 15 10 15 5 0 7 -7 4 -15z m-1324 -10
c15 -18 6 -45 -15 -45 -18 0 -30 24 -21 45 7 19 20 19 36 0z m1260 -5 c0 -5
-7 -10 -15 -10 -8 0 -15 5 -15 10 0 6 7 10 15 10 8 0 15 -4 15 -10z m-1522
-37 c-1 -10 1 -24 6 -31 6 -11 11 -11 24 0 14 11 15 10 9 -5 -4 -10 -7 -23 -7
-28 0 -18 -18 -8 -24 13 -4 18 -8 20 -18 10 -14 -14 -48 -16 -48 -3 0 13 40
61 51 61 6 0 9 -8 7 -17z m1567 -33 c0 -7 -8 -14 -17 -16 -20 -3 -20 -2 -12
21 7 18 29 15 29 -5z m-85 -15 c0 -8 -6 -15 -14 -15 -17 0 -28 14 -19 24 12
12 33 6 33 -9z m-664 -26 c3 -6 0 -18 -9 -26 -18 -18 -37 -9 -37 18 0 21 34
27 46 8z m534 -3 c0 -3 -4 -8 -10 -11 -5 -3 -10 -1 -10 4 0 6 5 11 10 11 6 0
10 -2 10 -4z m-1526 -23 c6 -14 9 -15 15 -4 5 8 17 11 30 6 12 -3 18 -11 15
-17 -5 -7 -2 -9 7 -6 8 3 29 -8 48 -27 25 -25 35 -44 38 -78 l5 -44 -73 5
c-41 2 -76 7 -79 9 -3 3 3 10 13 17 30 23 21 41 -20 40 -26 -1 -39 -6 -44 -20
-7 -18 -7 -18 -14 0 -5 11 -3 21 5 26 9 6 7 11 -9 20 -30 16 -24 49 14 71 38
22 42 23 49 2z m602 -10 c-10 -10 -19 5 -10 18 6 11 8 11 12 0 2 -7 1 -15 -2
-18z m88 19 c8 -13 -11 -35 -23 -28 -16 10 -14 36 3 36 8 0 17 -4 20 -8z m96
-27 c0 -14 -6 -25 -13 -25 -21 0 -27 11 -16 31 14 27 29 23 29 -6z m94 9 c8
-22 8 -24 -8 -24 -15 0 -28 24 -19 34 11 10 21 7 27 -10z m-687 -24 c-1 -11
-5 -20 -9 -20 -4 0 -8 9 -8 20 0 11 4 20 9 20 6 0 9 -9 8 -20z m1736 -8 c40
-24 79 -85 84 -135 13 -116 -112 -211 -234 -179 -27 7 -59 21 -72 30 -26 19
-59 98 -60 144 -1 35 46 105 76 113 13 3 21 10 18 15 -10 17 26 24 48 10 18
-11 23 -10 36 9 11 18 20 21 45 15 17 -3 43 -14 59 -22z m-293 11 c0 -17 -19
-35 -29 -29 -18 12 -12 36 9 36 11 0 20 -3 20 -7z m-1319 -28 c3 2 5 -5 6 -15
1 -11 -3 -20 -8 -20 -6 0 -7 -5 -4 -10 7 -12 -31 -8 -42 5 -5 4 -3 5 3 2 13
-8 40 20 30 30 -14 14 -36 11 -37 -5 0 -11 -2 -13 -6 -4 -3 7 1 19 7 28 11 13
15 13 30 -1 9 -8 19 -13 21 -10z m-426 -5 c3 -5 -1 -10 -9 -10 -9 0 -16 5 -16
10 0 6 4 10 9 10 6 0 13 -4 16 -10z m1477 -6 c3 -3 4 -14 1 -25 -4 -15 -11
-18 -27 -13 -29 9 -31 11 -16 29 13 15 32 20 42 9z m-1139 -56 c6 -22 5 -22
-8 -4 -17 22 -20 40 -6 32 5 -3 11 -16 14 -28z m1328 15 c12 -14 12 -16 0 -8
-11 6 -13 4 -8 -8 4 -11 1 -17 -7 -17 -18 0 -39 27 -31 40 9 15 31 12 46 -7z
m-1571 -49 c0 -2 -7 -4 -15 -4 -8 0 -15 4 -15 10 0 5 7 7 15 4 8 -4 15 -8 15
-10z m323 9 c-7 -2 -19 -2 -25 0 -7 3 -2 5 12 5 14 0 19 -2 13 -5z m1161 -46
c-21 -12 -37 12 -21 31 9 12 13 11 24 -4 11 -15 11 -20 -3 -27z m-1197 -9 c-3
-8 -6 -5 -6 6 -1 11 2 17 5 13 3 -3 4 -12 1 -19z m41 -6 c-5 -27 -28 -26 -28
2 0 19 4 24 15 19 9 -3 15 -12 13 -21z m772 7 c0 -4 3 -14 6 -23 10 -26 -21
-19 -33 7 -9 19 -8 23 8 23 11 0 19 -3 19 -7z m64 -5 c3 -8 2 -12 -4 -9 -6 3
-10 10 -10 16 0 14 7 11 14 -7z m-270 -15 c-2 -4 0 -10 6 -14 5 -3 10 -1 10 4
0 16 17 13 24 -4 3 -8 -1 -21 -9 -29 -8 -8 -15 -22 -15 -30 0 -28 -67 -24 -92
5 -16 19 -15 41 4 66 11 13 80 15 72 2z m136 -31 c0 -4 -10 -8 -22 -7 -21 0
-21 1 -4 8 14 5 16 10 8 15 -7 4 -12 13 -12 19 1 13 30 -22 30 -35z m-403 0
c-3 -8 -6 -5 -6 6 -1 11 2 17 5 13 3 -3 4 -12 1 -19z m30 7 c0 -8 -4 -15 -9
-15 -10 0 -11 14 -1 23 9 10 10 9 10 -8z m-279 -17 c18 -18 15 -40 -5 -36 -10
2 -17 11 -17 21 1 9 -2 14 -7 11 -5 -3 -9 0 -9 5 0 15 23 14 38 -1z m137 -9
c22 -10 29 -16 15 -13 -28 7 -80 33 -65 33 6 0 28 -9 50 -20z m955 -8 c14 -11
24 -24 23 -30 -2 -6 2 -10 8 -8 6 1 14 -4 17 -12 3 -9 0 -11 -9 -7 -8 4 -6 1
4 -7 21 -18 36 -97 18 -97 -6 0 -11 5 -11 12 0 6 -10 2 -23 -10 -13 -12 -30
-22 -38 -22 -10 1 -9 4 5 15 11 8 16 21 13 30 -8 20 -66 20 -73 0 -4 -8 -10
-15 -16 -15 -5 0 -7 4 -4 9 3 4 -13 5 -37 1 -30 -6 -50 -4 -72 7 -55 28 -57
32 -35 68 11 17 18 34 15 36 -2 3 8 6 23 7 16 1 35 13 46 28 18 24 24 26 70
20 28 -3 62 -14 76 -25z m-1170 -51 c-8 -5 -22 -9 -30 -9 -10 1 -9 3 3 6 13 3
17 11 13 26 -5 19 -4 19 12 3 15 -15 15 -18 2 -26z m868 18 c2 -9 -6 -22 -19
-28 -17 -10 -24 -9 -37 3 -8 9 -12 23 -8 32 8 22 60 16 64 -7z m-718 -17 c0
-11 -4 -22 -9 -25 -12 -8 -34 21 -26 34 11 17 35 11 35 -9z m126 -16 c-3 -8
-10 -15 -16 -15 -14 0 -12 37 3 43 15 5 21 -8 13 -28z m1554 24 c0 -6 -9 -8
-22 -4 -16 4 -19 3 -9 -3 8 -6 11 -17 6 -32 -4 -12 -9 -20 -11 -17 -8 8 -14
50 -8 58 8 13 44 11 44 -2z m-1462 -7 c7 -5 10 -15 7 -24 -9 -22 -55 -11 -55
13 0 20 25 25 48 11z m379 -8 c8 -23 -12 -38 -41 -30 -30 7 -35 32 -8 39 33 9
43 7 49 -9z m-259 -15 c4 -21 -16 -29 -45 -18 -15 5 -21 13 -17 24 8 21 58 16
62 -6z m-278 1 c0 -5 -2 -10 -4 -10 -3 0 -8 5 -11 10 -3 6 -1 10 4 10 6 0 11
-4 11 -10z m-253 -27 c44 -20 99 -84 111 -127 20 -70 -14 -143 -81 -175 -86
-41 -177 -36 -234 14 -28 23 -28 24 -8 40 20 16 20 16 -2 12 -20 -5 -23 -1
-23 30 0 24 4 32 13 28 6 -4 4 0 -6 8 -10 9 -14 18 -9 21 6 3 8 15 5 26 -3 12
0 20 6 20 7 0 10 4 7 8 -11 19 35 71 85 95 55 28 75 28 136 0z m1803 -33 c0
-18 -36 -38 -47 -26 -9 9 27 57 37 51 6 -4 10 -15 10 -25z m-1545 -4 c0 -11
-7 -21 -15 -23 -12 -4 -13 -3 -1 5 7 5 10 15 6 21 -5 9 -10 9 -21 0 -11 -9
-14 -8 -14 5 0 12 7 16 23 14 14 -2 22 -10 22 -22z m391 9 c24 6 112 -42 135
-75 10 -14 24 -46 31 -72 11 -42 10 -53 -8 -94 -28 -68 -60 -88 -148 -92 -98
-5 -149 19 -178 85 -41 92 -8 185 77 219 25 11 45 25 45 33 0 10 3 11 13 3 7
-6 22 -9 33 -7z m1088 -54 c3 -5 -1 -14 -8 -20 -12 -10 -13 -8 -9 8 6 23 9 25
17 12z m-247 -32 c50 -17 123 -123 123 -177 0 -30 -28 -79 -61 -106 -66 -56
-196 -61 -250 -10 -60 57 -73 110 -43 182 8 22 25 48 37 59 12 11 30 30 39 42
14 17 29 21 71 21 30 0 68 -5 84 -11z m-370 -21 c-3 -8 -6 -5 -6 6 -1 11 2 17
5 13 3 -3 4 -12 1 -19z m681 0 c13 -13 -1 -48 -20 -48 -6 0 -5 6 3 17 13 15
12 15 -8 5 -29 -16 -44 5 -18 25 23 16 28 16 43 1z m-148 -49 c0 6 5 11 12 11
8 0 7 -6 -4 -16 -16 -16 -38 -12 -38 8 0 7 6 6 15 -2 10 -9 15 -9 15 -1z
m-450 -48 c-12 -24 -30 -28 -30 -6 0 13 31 38 38 30 2 -2 -1 -13 -8 -24z m-70
-32 c-7 -11 -14 -19 -16 -16 -7 7 7 37 17 37 6 0 5 -9 -1 -21z m-1466 -4 c-4
-8 0 -23 7 -33 13 -15 12 -16 -3 -3 -19 14 -25 51 -8 51 5 0 7 -7 4 -15z
m2076 -5 c0 -5 -5 -10 -11 -10 -5 0 -7 5 -4 10 3 6 8 10 11 10 2 0 4 -4 4 -10z
m-643 -25 c-1 0 -14 -11 -29 -24 -26 -23 -28 -23 -28 -5 0 10 5 26 10 34 9 13
11 13 20 0 8 -12 10 -12 10 5 0 16 2 17 10 5 5 -8 8 -15 7 -15z m-1358 -44
c-8 -2 -17 -9 -22 -15 -6 -9 -5 7 2 43 1 2 8 -3 17 -10 13 -11 13 -14 3 -18z
m525 9 c53 -24 62 -35 81 -96 20 -65 19 -87 -4 -115 l-19 -24 5 27 c3 17 10
25 17 21 6 -4 5 1 -3 10 -10 12 -29 17 -72 17 -42 0 -59 4 -59 13 0 27 -26 50
-48 43 -12 -4 -20 -11 -18 -15 3 -4 -4 -7 -15 -7 -10 0 -19 4 -19 8 0 4 5 8
12 8 7 0 -3 14 -22 31 -23 19 -31 32 -22 35 6 3 12 12 12 19 0 44 101 59 174
25z m687 -30 c13 0 11 -24 -2 -37 -12 -12 -59 3 -59 19 0 5 11 1 24 -7 32 -21
44 -2 14 21 -17 12 -18 15 -5 10 10 -3 23 -6 28 -6z m190 -7 c0 -11 3 -13 6
-5 8 20 21 14 70 -30 75 -70 108 -174 63 -198 -11 -6 -18 -14 -16 -18 6 -10
-51 -14 -75 -7 -27 9 -23 25 6 25 19 0 25 5 25 20 0 18 -6 21 -42 19 -50 -2
-102 16 -92 32 3 6 14 9 24 6 10 -2 24 -1 31 4 21 13 -2 43 -35 47 -27 3 -27
4 -11 28 14 22 14 26 1 39 -19 19 -30 19 -22 0 3 -9 0 -15 -9 -15 -8 0 -15 7
-15 15 0 17 36 39 50 30 6 -4 13 1 16 9 8 21 24 20 25 -1z m-700 -20 c13 -17
13 -17 -6 -3 -11 8 -22 16 -24 17 -2 2 0 3 6 3 6 0 17 -8 24 -17z m605 -34 c7
-12 -12 -29 -34 -29 -10 0 -10 4 0 20 14 23 24 25 34 9z m-238 -65 c52 -55 72
-126 51 -178 -15 -35 -69 -98 -69 -79 0 6 -3 20 -6 30 -5 15 -4 15 5 3 9 -13
12 -13 25 0 8 8 18 27 21 41 6 26 6 26 -62 32 -52 5 -72 11 -85 28 l-18 21 0
-21 c0 -16 -6 -21 -27 -21 -49 1 -84 46 -51 66 8 5 6 10 -8 16 -15 6 -13 7 11
7 46 -2 52 1 33 12 -11 6 -18 22 -18 41 0 28 2 30 28 25 15 -3 36 -9 47 -13
18 -7 18 -6 6 9 -7 9 -17 14 -22 11 -5 -3 -9 -1 -9 4 0 5 10 13 21 18 25 11
96 -18 127 -52z m-63 56 c3 -6 -1 -7 -9 -4 -18 7 -21 14 -7 14 6 0 13 -4 16
-10z m249 -36 c3 -8 2 -12 -4 -9 -6 3 -10 10 -10 16 0 14 7 11 14 -7z m-4 -49
c0 -8 -4 -15 -10 -15 -5 0 -7 7 -4 15 4 8 8 15 10 15 2 0 4 -7 4 -15z m-1120
-65 c11 0 20 -4 20 -10 0 -5 -5 -10 -10 -10 -16 0 -60 47 -60 62 1 7 8 1 16
-14 8 -16 23 -28 34 -28z m437 34 c-3 -3 -12 -4 -19 -1 -8 3 -5 6 6 6 11 1 17
-2 13 -5z m1127 -19 c4 -10 -1 -15 -14 -15 -18 0 -21 -5 -19 -27 0 -5 7 -7 15
-5 8 2 14 -1 14 -7 0 -12 -27 -8 -41 6 -17 17 -2 63 20 63 10 0 21 -7 25 -15z
m36 -40 c0 -15 -6 -25 -14 -25 -19 0 -30 32 -14 42 21 13 28 9 28 -17z m-340
-20 c-7 -9 -15 -13 -19 -10 -3 3 1 10 9 15 21 14 24 12 10 -5z m243 -70 c-3
-9 -8 -14 -10 -11 -3 3 -2 9 2 15 9 16 15 13 8 -4z m27 -25 c0 -5 -8 -10 -17
-10 -15 0 -16 2 -3 10 19 12 20 12 20 0z m-1290 -10 c0 -5 -4 -10 -10 -10 -5
0 -10 5 -10 10 0 6 5 10 10 10 6 0 10 -4 10 -10z m40 -21 c0 -11 -4 -18 -9
-15 -5 4 -12 0 -14 -6 -3 -7 -6 -3 -6 9 -1 18 6 26 27 32 1 1 2 -8 2 -20z
m171 11 c20 -11 27 -60 8 -60 -5 0 -3 -10 5 -22 9 -12 16 -35 16 -49 0 -51
-83 -59 -109 -11 -11 22 3 60 25 69 15 5 14 7 -5 14 -30 12 -38 39 -16 55 22
17 49 18 76 4z m-295 -40 c10 -29 18 -36 55 -46 47 -12 107 -44 152 -81 35
-28 81 -30 114 -3 30 23 55 25 86 6 31 -19 183 -41 267 -38 72 3 156 1 173 -4
24 -7 22 -47 -13 -291 -17 -115 -35 -244 -40 -287 -5 -44 -13 -83 -18 -88 -22
-22 -158 -40 -337 -45 -168 -5 -204 -3 -303 16 -151 29 -160 33 -166 73 -30
191 -70 704 -61 776 l7 53 36 -3 c32 -3 38 -7 48 -38z m199 -30 c9 -15 -14
-40 -36 -40 -24 0 -33 18 -19 35 14 17 46 20 55 5z m185 -5 c-7 -8 -10 -22 -6
-30 3 -9 0 -15 -10 -15 -15 0 -35 39 -27 53 2 4 16 7 30 7 21 0 23 -2 13 -15z
m85 5 c3 -6 -1 -7 -9 -4 -18 7 -21 14 -7 14 6 0 13 -4 16 -10z m340 -30 c-3
-5 -11 -10 -16 -10 -6 0 -7 5 -4 10 3 6 11 10 16 10 6 0 7 -4 4 -10z m198 3
c-27 -5 -31 -39 -5 -46 16 -4 16 -5 -1 -6 -10 0 -20 6 -23 14 -10 24 4 45 28
44 l23 -2 -22 -4z m-569 -9 c23 -9 20 -24 -4 -24 -11 0 -20 7 -20 15 0 17 2
18 24 9z m136 -8 c0 -3 -4 -8 -10 -11 -5 -3 -10 -1 -10 4 0 6 5 11 10 11 6 0
10 -2 10 -4z m1572 -811 c-7 -87 -39 -112 -180 -140 -70 -14 -137 -16 -460
-13 -417 5 -442 8 -442 58 0 16 -3 35 -6 44 -5 13 18 15 178 16 101 1 217 1
258 1 156 -4 581 47 606 72 5 4 17 7 29 5 17 -3 20 -9 17 -43z m2052 -19 c-10
-41 -65 -82 -120 -91 -27 -4 -67 -16 -89 -27 -29 -15 -71 -23 -155 -29 -64 -4
-154 -13 -200 -18 -96 -12 -237 -14 -330 -4 -59 6 -63 8 -76 39 -28 66 -30 65
134 58 225 -10 540 28 565 67 10 16 25 19 87 20 41 1 100 4 130 8 30 4 56 6
58 5 2 -1 0 -13 -4 -28z m-4044 -7 c75 -12 486 -6 558 7 l32 6 0 -46 c0 -49
-2 -51 -30 -36 -28 15 -39 -10 -12 -28 62 -41 -9 -57 -243 -57 -160 1 -267 15
-353 47 -57 21 -72 42 -72 100 0 26 3 29 23 25 12 -4 56 -11 97 -18z"/>
<path d="M3518 8563 c7 -3 16 -2 19 1 4 3 -2 6 -13 5 -11 0 -14 -3 -6 -6z"/>
<path d="M6180 8410 c0 -5 4 -10 9 -10 6 0 13 5 16 10 3 6 -1 10 -9 10 -9 0
-16 -4 -16 -10z"/>
<path d="M6147 8320 c-5 -18 -2 -21 21 -18 32 4 37 32 6 36 -15 2 -23 -3 -27
-18z"/>
<path d="M5267 7430 c-106 -18 -213 -92 -262 -181 -27 -48 -30 -63 -30 -139 0
-73 4 -92 27 -136 31 -60 83 -108 147 -137 38 -17 66 -21 156 -21 101 -1 114
1 166 28 73 36 138 101 177 175 18 33 42 62 57 69 30 14 32 28 5 44 -13 8 -20
24 -20 43 0 51 -20 104 -53 142 -38 44 -148 97 -231 112 -66 12 -70 12 -139 1z
m316 -102 c77 -55 75 -179 -4 -207 -101 -35 -199 22 -199 115 0 36 6 49 35 78
50 50 109 55 168 14z"/>
<path d="M4195 7053 c-44 -9 -76 -27 -87 -46 -9 -18 -6 -25 23 -49 18 -15 37
-28 43 -28 16 0 1 -281 -17 -315 -29 -57 -62 -78 -127 -83 -55 -4 -61 -2 -90
26 -16 17 -30 39 -30 50 0 33 -11 52 -30 52 -30 0 -32 -30 -6 -86 19 -41 34
-57 65 -73 77 -40 167 -24 237 40 20 19 21 19 42 -10 50 -68 179 -94 261 -52
68 35 121 160 75 178 -19 7 -34 -13 -34 -45 0 -12 -15 -39 -34 -60 -34 -36
-36 -37 -105 -37 -68 0 -72 1 -108 38 l-38 37 -3 122 c-2 67 -1 140 3 162 6
39 9 42 70 70 36 16 70 35 76 43 34 40 -95 86 -186 66z"/>
<path d="M5330 5598 c0 -13 8 -18 25 -18 18 0 25 5 25 19 0 14 -7 19 -25 17
-17 -1 -25 -7 -25 -18z"/>
<path d="M3175 5551 c-7 -12 12 -24 25 -16 6 3 10 0 10 -7 0 -9 3 -9 10 2 7
11 5 17 -8 22 -24 9 -30 9 -37 -1z"/>
<path d="M3232 5503 c-6 -2 -10 -9 -6 -14 8 -14 21 -11 28 6 6 15 1 17 -22 8z"/>
<path d="M3290 5484 c0 -8 5 -12 10 -9 6 3 10 10 10 16 0 5 -4 9 -10 9 -5 0
-10 -7 -10 -16z"/>
<path d="M3127 5474 c-13 -13 -7 -24 14 -24 11 0 19 5 17 12 -5 14 -22 21 -31
12z"/>
<path d="M3334 5424 c3 -9 6 -18 6 -20 0 -2 5 -4 10 -4 6 0 10 9 10 20 0 12
-7 20 -16 20 -11 0 -14 -5 -10 -16z"/>
<path d="M3194 5409 c-4 -7 1 -18 11 -26 22 -15 45 -17 45 -3 0 6 -4 10 -10
10 -5 0 -9 5 -7 12 3 16 -29 22 -39 7z"/>
<path d="M5161 5474 c0 -11 3 -14 6 -6 3 7 2 16 -1 19 -3 4 -6 -2 -5 -13z"/>
<path d="M5582 5456 c1 -10 8 -17 13 -17 15 1 12 24 -3 29 -9 3 -13 -2 -10
-12z"/>
<path d="M5240 5406 c0 -2 7 -9 15 -16 9 -7 15 -8 15 -2 0 5 -7 12 -15 16 -8
3 -15 4 -15 2z"/>
<path d="M5000 5240 c0 -5 7 -10 16 -10 8 0 12 5 9 10 -3 6 -10 10 -16 10 -5
0 -9 -4 -9 -10z"/>
<path d="M5257 5179 c7 -7 15 -10 18 -7 3 3 -2 9 -12 12 -14 6 -15 5 -6 -5z"/>
<path d="M5407 5153 c-4 -3 -7 -11 -7 -17 0 -6 5 -5 12 2 6 6 9 14 7 17 -3 3
-9 2 -12 -2z"/>
<path d="M5435 5140 c-3 -5 -1 -10 4 -10 6 0 11 5 11 10 0 6 -2 10 -4 10 -3 0
-8 -4 -11 -10z"/>
<path d="M5255 5131 c-9 -16 3 -31 26 -31 14 0 19 6 17 17 -4 20 -33 29 -43
14z"/>
<path d="M5409 5058 c-11 -38 7 -55 37 -34 20 15 11 36 -17 36 -10 0 -19 -1
-20 -2z"/>
<path d="M3126 5142 c-3 -3 -6 -12 -6 -20 0 -12 2 -12 17 -1 14 12 16 12 9 0
-6 -9 -5 -12 4 -9 22 7 22 25 1 31 -11 2 -22 2 -25 -1z"/>
<path d="M3245 5130 c-3 -5 -1 -10 4 -10 6 0 11 5 11 10 0 6 -2 10 -4 10 -3 0
-8 -4 -11 -10z"/>
<path d="M3315 5080 c-3 -5 -1 -10 4 -10 6 0 11 5 11 10 0 6 -2 10 -4 10 -3 0
-8 -4 -11 -10z"/>
<path d="M3185 5060 c-4 -7 -3 -16 3 -22 14 -14 45 -2 40 15 -6 16 -34 21 -43
7z"/>
<path d="M3074 5039 c-10 -17 13 -36 27 -22 12 12 4 33 -11 33 -5 0 -12 -5
-16 -11z"/>
<path d="M3265 5011 c-3 -5 -1 -12 5 -16 5 -3 10 1 10 9 0 18 -6 21 -15 7z"/>
<path d="M3320 4989 c0 -5 5 -7 10 -4 6 3 10 8 10 11 0 2 -4 4 -10 4 -5 0 -10
-5 -10 -11z"/>
<path d="M3114 4969 c-3 -6 1 -18 10 -27 14 -14 17 -14 34 1 14 13 21 14 30 5
13 -13 16 1 4 17 -10 14 -32 17 -29 4 1 -6 -4 -14 -11 -16 -8 -3 -10 1 -6 11
7 18 -21 23 -32 5z"/>
<path d="M3248 4960 c10 -12 18 -16 21 -9 2 6 -3 15 -10 20 -24 15 -29 10 -11
-11z"/>
<path d="M5101 5171 c-10 -6 -10 -10 -1 -16 13 -8 24 -1 19 14 -3 6 -10 7 -18
2z"/>
<path d="M3657 4930 c-3 -11 -1 -20 4 -20 5 0 9 9 9 20 0 11 -2 20 -4 20 -2 0
-6 -9 -9 -20z"/>
<path d="M5591 4821 c-10 -7 -10 -10 -1 -16 6 -4 16 -3 22 3 13 13 -4 23 -21
13z"/>
<path d="M5536 4751 c-4 -7 -5 -15 -2 -18 9 -9 19 4 14 18 -4 11 -6 11 -12 0z"/>
<path d="M5605 4740 c4 -6 11 -8 16 -5 14 9 11 15 -7 15 -8 0 -12 -5 -9 -10z"/>
<path d="M5725 4740 c-3 -5 -1 -10 4 -10 6 0 11 5 11 10 0 6 -2 10 -4 10 -3 0
-8 -4 -11 -10z"/>
<path d="M5648 4676 c-22 -16 -13 -56 12 -56 14 0 18 7 18 30 -1 37 -8 42 -30
26z"/>
<path d="M5490 4666 c0 -16 27 -29 41 -20 13 8 -9 34 -27 34 -8 0 -14 -6 -14
-14z"/>
<path d="M5707 4674 c-10 -11 3 -24 24 -24 10 0 19 7 19 15 0 15 -31 21 -43 9z"/>
<path d="M5570 4650 c0 -24 15 -27 24 -4 9 22 8 24 -9 24 -8 0 -15 -9 -15 -20z"/>
<path d="M5190 4740 c0 -11 4 -20 9 -20 11 0 22 26 14 34 -12 12 -23 5 -23
-14z"/>
<path d="M5120 4740 c0 -5 7 -10 15 -10 8 0 15 5 15 10 0 6 -7 10 -15 10 -8 0
-15 -4 -15 -10z"/>
<path d="M5280 4690 c-12 -8 -11 -10 8 -10 12 0 22 5 22 10 0 13 -11 13 -30 0z"/>
<path d="M5052 4638 c7 -19 38 -22 38 -4 0 10 -9 16 -21 16 -12 0 -19 -5 -17
-12z"/>
<path d="M5310 4620 c0 -5 5 -10 10 -10 6 0 10 5 10 10 0 6 -4 10 -10 10 -5 0
-10 -4 -10 -10z"/>
<path d="M5210 4610 c0 -5 5 -10 10 -10 6 0 10 5 10 10 0 6 -4 10 -10 10 -5 0
-10 -4 -10 -10z"/>
<path d="M5250 4611 c0 -12 26 -32 33 -25 9 10 -4 34 -19 34 -8 0 -14 -4 -14
-9z"/>
<path d="M5130 4589 c0 -5 5 -7 10 -4 6 3 10 8 10 11 0 2 -4 4 -10 4 -5 0 -10
-5 -10 -11z"/>
<path d="M5181 4580 c-17 -10 -7 -40 14 -40 16 0 20 17 7 37 -5 7 -13 9 -21 3z"/>
<path d="M3220 4706 c0 -9 5 -16 10 -16 6 0 10 4 10 9 0 6 -4 13 -10 16 -5 3
-10 -1 -10 -9z"/>
<path d="M4845 4400 c3 -5 11 -10 16 -10 6 0 7 5 4 10 -3 6 -11 10 -16 10 -6
0 -7 -4 -4 -10z"/>
<path d="M4810 4352 c0 -15 24 -32 47 -32 30 0 30 26 1 34 -32 8 -48 7 -48 -2z"/>
<path d="M5377 4343 c-16 -15 -6 -33 18 -33 18 0 25 5 25 20 0 20 -28 28 -43
13z"/>
<path d="M5393 4234 c-6 -17 14 -36 32 -31 6 2 11 13 13 25 3 17 -2 22 -18 22
-11 0 -23 -7 -27 -16z"/>
<path d="M5256 4202 c-6 -9 53 -37 61 -28 3 3 0 12 -7 21 -13 16 -46 20 -54 7z"/>
<path d="M5530 4200 c0 -5 5 -10 10 -10 6 0 10 5 10 10 0 6 -4 10 -10 10 -5 0
-10 -4 -10 -10z"/>
<path d="M5406 4162 c6 -4 14 -14 17 -22 4 -10 6 -8 6 8 1 15 -5 22 -16 22
-11 0 -14 -3 -7 -8z"/>
<path d="M3190 4266 c0 -16 19 -25 38 -19 22 8 13 33 -13 33 -15 0 -25 -6 -25
-14z"/>
<path d="M3425 4249 c-4 -6 -5 -13 -2 -16 7 -7 27 6 27 18 0 12 -17 12 -25 -2z"/>
<path d="M4975 4230 c-3 -5 1 -10 10 -10 9 0 13 5 10 10 -3 6 -8 10 -10 10 -2
0 -7 -4 -10 -10z"/>
<path d="M3333 3914 c-6 -16 19 -44 39 -44 15 0 20 30 8 45 -16 20 -39 19 -47
-1z"/>
<path d="M3450 3840 c-10 -19 -9 -21 12 -18 13 2 23 9 23 17 0 23 -23 24 -35
1z"/>
<path d="M5206 3821 c-4 -5 -2 -12 3 -15 5 -4 12 -2 15 3 4 5 2 12 -3 15 -5 4
-12 2 -15 -3z"/>
<path d="M5300 3755 c0 -8 2 -15 4 -15 2 0 6 7 10 15 3 8 1 15 -4 15 -6 0 -10
-7 -10 -15z"/>
<path d="M5135 3750 c3 -5 8 -10 11 -10 2 0 4 5 4 10 0 6 -5 10 -11 10 -5 0
-7 -4 -4 -10z"/>
<path d="M5060 3730 c0 -15 5 -20 18 -18 9 2 17 10 17 18 0 8 -8 16 -17 18
-13 2 -18 -3 -18 -18z"/>
<path d="M5182 3721 c-10 -6 -10 -10 2 -20 8 -7 19 -10 25 -7 5 3 11 1 13 -6
2 -6 9 -8 16 -4 8 5 6 12 -6 26 -18 22 -30 24 -50 11z"/>
<path d="M5100 3671 c0 -6 4 -12 8 -15 5 -3 9 1 9 9 0 8 -4 15 -9 15 -4 0 -8
-4 -8 -9z"/>
<path d="M5140 3660 c-12 -7 -12 -12 -2 -22 9 -9 15 -9 24 0 16 16 -2 34 -22
22z"/>
<path d="M4675 3604 c-17 -17 -16 -19 5 -36 21 -17 25 -17 39 -3 12 11 13 20
5 32 -15 24 -29 26 -49 7z"/>
<path d="M4846 3561 c-4 -5 -2 -12 3 -15 5 -4 12 -2 15 3 4 5 2 12 -3 15 -5 4
-12 2 -15 -3z"/>
<path d="M4885 3540 c-3 -5 -1 -10 4 -10 6 0 11 5 11 10 0 6 -2 10 -4 10 -3 0
-8 -4 -11 -10z"/>
<path d="M4493 3625 c0 -8 4 -12 9 -9 5 3 6 10 3 15 -9 13 -12 11 -12 -6z"/>
<path d="M3500 3510 c-14 -27 -8 -34 20 -25 12 4 20 13 18 23 -5 24 -25 25
-38 2z"/>
<path d="M3420 3491 c0 -5 7 -12 16 -15 14 -5 15 -4 4 9 -14 17 -20 19 -20 6z"/>
<path d="M3632 3468 c6 -18 28 -21 28 -4 0 9 -7 16 -16 16 -9 0 -14 -5 -12
-12z"/>
<path d="M3544 3425 c-4 -9 -3 -19 0 -23 9 -8 42 12 39 24 -4 16 -33 16 -39
-1z"/>
<path d="M3620 3391 c0 -10 30 -24 37 -17 3 3 2 9 -2 15 -8 13 -35 15 -35 2z"/>
<path d="M3441 3371 c-17 -11 -7 -41 12 -41 19 0 40 26 32 40 -8 12 -25 13
-44 1z"/>
<path d="M3554 3354 c24 -17 49 -18 44 -2 -3 7 -18 14 -34 15 -27 2 -28 1 -10
-13z"/>
<path d="M3510 3311 c0 -22 16 -36 24 -22 8 12 -3 41 -15 41 -5 0 -9 -9 -9
-19z"/>
<path d="M4206 3483 c-13 -14 -5 -33 14 -33 11 0 20 6 20 14 0 15 -24 28 -34
19z"/>
<path d="M4320 3469 c0 -5 4 -9 9 -9 5 0 17 -3 27 -7 11 -4 15 -3 11 4 -9 14
-47 24 -47 12z"/>
<path d="M4120 3435 c0 -8 5 -15 10 -15 6 0 10 7 10 15 0 8 -4 15 -10 15 -5 0
-10 -7 -10 -15z"/>
<path d="M4250 3379 c0 -14 47 -32 64 -26 9 4 16 13 16 21 0 11 -11 15 -40 14
-22 0 -40 -4 -40 -9z"/>
<path d="M4370 3360 c0 -19 3 -21 12 -12 9 9 9 15 0 24 -9 9 -12 7 -12 -12z"/>
<path d="M4150 3355 c0 -8 9 -15 20 -15 11 0 20 7 20 15 0 8 -9 15 -20 15 -11
0 -20 -7 -20 -15z"/>
<path d="M4286 3295 c4 -8 17 -15 31 -15 14 0 22 4 18 10 -4 6 -11 8 -16 5 -5
-4 -9 -1 -9 4 0 6 -7 11 -15 11 -9 0 -12 -6 -9 -15z"/>
<path d="M5037 3423 c-12 -12 -7 -22 8 -17 8 4 15 10 15 15 0 11 -14 12 -23 2z"/>
<path d="M4950 3410 c0 -5 7 -10 15 -10 8 0 15 5 15 10 0 6 -7 10 -15 10 -8 0
-15 -4 -15 -10z"/>
<path d="M5045 3350 c-3 -5 3 -10 14 -10 12 0 21 5 21 10 0 6 -6 10 -14 10 -8
0 -18 -4 -21 -10z"/>
<path d="M4912 3298 c3 -7 15 -14 29 -16 23 -2 23 -2 5 13 -24 18 -39 20 -34
3z"/>
<path d="M5170 3290 c0 -5 5 -10 10 -10 6 0 10 5 10 10 0 6 -4 10 -10 10 -5 0
-10 -4 -10 -10z"/>
<path d="M5090 3265 c0 -8 9 -15 20 -15 11 0 20 2 20 5 0 2 -9 9 -20 15 -16 9
-20 8 -20 -5z"/>
<path d="M4980 3231 c0 -5 5 -13 10 -16 6 -3 10 -2 10 4 0 5 -4 13 -10 16 -5
3 -10 2 -10 -4z"/>
<path d="M5150 3230 c0 -5 7 -10 16 -10 8 0 12 5 9 10 -3 6 -10 10 -16 10 -5
0 -9 -4 -9 -10z"/>
<path d="M5027 3216 c-12 -10 -15 -16 -7 -21 6 -4 17 1 24 11 10 13 15 14 21
4 6 -9 4 -11 -5 -5 -8 5 -11 4 -6 -3 9 -16 36 -3 29 14 -7 18 -32 18 -56 0z"/>
<path d="M3841 3216 c-9 -10 -7 -21 6 -45 19 -34 46 -37 51 -7 3 14 0 17 -12
13 -18 -7 -23 18 -6 28 13 8 3 25 -14 25 -8 0 -19 -6 -25 -14z"/>
<path d="M3795 3210 c3 -5 8 -10 11 -10 2 0 4 5 4 10 0 6 -5 10 -11 10 -5 0
-7 -4 -4 -10z"/>
<path d="M3740 3187 c0 -19 10 -27 26 -20 21 8 17 33 -6 33 -11 0 -20 -6 -20
-13z"/>
<path d="M4760 3141 c0 -18 5 -22 28 -19 29 3 34 21 6 26 -11 3 -14 0 -9 -10
3 -7 -1 -4 -9 6 -16 19 -16 19 -16 -3z"/>
<path d="M4832 3061 c-10 -6 -10 -10 3 -21 8 -7 15 -9 15 -4 0 5 5 2 10 -6 8
-12 11 -13 22 -2 11 11 9 16 -6 28 -23 16 -26 17 -44 5z"/>
<path d="M4887 2993 c-10 -10 -8 -33 2 -33 6 0 9 9 8 20 -1 23 -1 22 -10 13z"/>
<path d="M4355 3090 c3 -5 8 -10 11 -10 2 0 4 5 4 10 0 6 -5 10 -11 10 -5 0
-7 -4 -4 -10z"/>
<path d="M4297 3004 c-12 -12 3 -22 23 -17 11 3 17 9 14 14 -6 10 -28 12 -37
3z"/>
<path d="M4413 3003 c-7 -2 -13 -9 -13 -14 0 -6 5 -7 10 -4 6 3 10 0 10 -8 0
-18 27 -30 35 -17 7 11 -12 50 -23 49 -4 0 -13 -3 -19 -6z"/>
</g>
</svg>
