<svg xmlns="http://www.w3.org/2000/svg" width="16" height="16" viewBox="0 0 512 512" version="1.1"><path d="M 78.500 2.950 C 56.519 3.479, 55.222 3.621, 49.221 6.147 C 29.365 14.508, 16.252 27.468, 6.469 48.404 L 2 57.967 2 256.122 L 2 454.277 7.413 465.389 C 15.892 482.795, 26.776 494.443, 42 502.407 C 55.460 509.448, 54.089 509.300, 110.155 509.758 C 160.802 510.171, 160.811 510.171, 161.473 508.086 C 162.310 505.448, 163.678 505.409, 164.500 508 C 165.123 509.962, 166.013 510, 210.867 510 C 245.104 510, 256.902 509.698, 257.800 508.800 C 258.733 507.867, 259.267 507.867, 260.200 508.800 C 261.001 509.601, 265.415 510, 273.467 510 L 285.533 510 285.533 504.246 C 285.533 493.535, 292.611 486.775, 304 486.608 C 314.712 486.450, 321.782 494.137, 320.686 504.749 L 320.133 510.108 324.317 509.804 C 327.899 509.544, 328.441 509.213, 328.088 507.500 C 327.862 506.400, 327.637 502.986, 327.588 499.913 C 327.516 495.352, 328.008 493.593, 330.264 490.339 C 335.381 482.958, 345.018 479.889, 351.901 483.449 C 359.429 487.342, 364.218 496.983, 362.263 504.309 C 361.656 506.585, 361.374 508.797, 361.638 509.224 C 361.902 509.651, 382.854 510, 408.198 510 L 454.277 510 465.389 504.572 C 484.569 495.203, 495.203 484.569, 504.572 465.389 L 510 454.277 510 256 L 510 57.723 504.566 46.611 C 495.096 27.247, 484.650 16.796, 465.389 7.413 L 454.277 2 277.889 2.198 C 180.875 2.308, 91.150 2.646, 78.500 2.950 M 147.626 66.246 C 141.494 74.286, 132.477 99.015, 131.382 110.797 C 130.915 115.829, 131.198 119.170, 132.462 123.518 C 135.573 134.220, 141.038 142.880, 143.620 141.199 C 144.211 140.815, 144.989 137.613, 145.349 134.085 C 146.035 127.366, 147.983 123.356, 154.535 115.172 C 157.049 112.032, 158 109.854, 158 107.235 L 158 103.626 160.844 106.350 C 162.408 107.849, 165.445 109.588, 167.594 110.216 L 171.500 111.357 166.903 112.074 C 160.627 113.052, 156.854 115.185, 152.596 120.158 C 148.968 124.398, 147.016 129.273, 147.006 134.125 C 146.992 140.619, 145.864 142.887, 141.631 144.938 C 136.338 147.502, 130.425 153.256, 127.759 158.437 C 125.535 162.760, 125.118 168.906, 126.482 177.237 C 127.175 181.473, 126.974 182.345, 124.577 185.487 C 116.308 196.329, 117.456 209.169, 127 212.592 C 135.532 215.653, 148.658 212.694, 156.267 205.996 L 160.827 201.982 167.028 205.676 C 172.546 208.964, 174.147 209.419, 181.555 209.808 C 189.261 210.212, 190.377 210.012, 196.552 207.122 C 200.222 205.405, 204.020 204, 204.991 204 C 205.963 204, 209.269 205.150, 212.339 206.555 C 222.786 211.338, 237.763 210.839, 245.046 205.466 L 248.266 203.090 252.520 207.467 C 259.377 214.523, 266.761 215.639, 279.601 211.562 L 287.278 209.124 292.889 214.434 C 301.224 222.323, 303.714 223.318, 313.799 222.789 C 320.996 222.411, 321.979 222.542, 320.433 223.673 C 318.222 225.289, 307.077 225.427, 301.595 223.905 C 299.289 223.264, 295.565 220.810, 292.499 217.910 C 286.816 212.536, 285.951 212.287, 280.654 214.500 C 273.323 217.563, 258.796 215.839, 252.168 211.120 C 248.458 208.478, 245.468 208.451, 239 211 C 231.470 213.968, 223.690 213.651, 214.500 210 C 210.346 208.350, 206.100 207, 205.064 207 C 204.027 207, 200.327 208.350, 196.840 209.999 C 188.068 214.149, 180.454 214.149, 171 210 C 162.903 206.446, 162.058 206.380, 158.687 209.031 C 157.267 210.149, 153.494 212.281, 150.302 213.770 C 145.258 216.123, 143.083 216.505, 133.647 216.691 C 121.194 216.937, 119.444 217.679, 115.517 224.380 C 110.237 233.391, 109.842 245, 114.816 245 C 115.838 245, 120.235 241.911, 124.587 238.135 C 135.762 228.440, 139.732 226.552, 149 226.523 C 157.648 226.496, 162.404 228.386, 170.438 235.041 C 178.037 241.335, 178.250 241.384, 182.641 237.843 C 188.125 233.421, 199.473 228.213, 206.500 226.894 C 214.473 225.396, 229.850 226.386, 238.042 228.925 C 250.679 232.840, 259.961 241.258, 266.421 254.658 C 273.856 270.084, 275.712 284.756, 272.421 302.105 C 269.159 319.298, 262.606 330.033, 250.581 337.883 C 239.027 345.426, 232.410 347.177, 213.249 347.763 C 202.618 348.088, 194.837 347.841, 190.749 347.049 C 182.879 345.524, 167.546 338.113, 161.806 333.060 C 153.286 325.561, 149.041 313.654, 149.015 297.184 C 148.997 286.064, 148.157 284, 143.646 284 C 134.361 284, 123.945 277.733, 119.833 269.672 C 118.624 267.302, 117.524 262.791, 117.237 259.029 C 116.964 255.438, 116.293 251.938, 115.747 251.250 C 112.640 247.335, 104.614 254.105, 100.993 263.695 C 98.823 269.441, 98.684 276.106, 100.566 284.111 C 101.077 286.285, 100.247 287.768, 95.617 292.957 C 89.291 300.047, 89.524 299.165, 88.028 321.753 C 86.819 340, 86.983 340.764, 93.415 346.946 C 97.546 350.917, 97.746 352.534, 94.999 359.761 C 92.529 366.260, 92.502 370.307, 94.893 375.571 C 98.169 382.784, 106.713 387.838, 120.012 390.429 C 121.394 390.698, 124.971 393.007, 127.962 395.560 C 134.433 401.084, 136.571 402, 142.988 402 C 146.829 402, 148.531 402.576, 151.115 404.750 C 154.024 407.198, 155.181 407.500, 161.648 407.500 C 167.634 407.500, 169.159 407.165, 170.304 405.599 C 172.819 402.160, 173.487 405.795, 173.830 424.767 L 174.159 443.034 179.830 446.865 C 187.946 452.349, 188.912 452.774, 199.493 455.523 C 204.741 456.887, 211.614 459.458, 214.766 461.237 C 220.311 464.366, 220.939 464.484, 234.056 464.844 C 257.557 465.489, 265 463.266, 265 455.601 C 265 453.853, 265.900 450.658, 267 448.500 C 268.100 446.342, 269 442.831, 269 440.696 C 269 438.337, 269.780 435.824, 270.989 434.287 C 272.257 432.675, 272.771 430.936, 272.407 429.487 C 272.049 428.060, 272.798 425.410, 274.419 422.365 C 277.525 416.530, 277.606 415.040, 275 411.727 C 273.900 410.329, 273 408.963, 273 408.691 C 273 408.420, 280.762 407.997, 290.250 407.751 C 305.259 407.363, 308.279 407.003, 313.500 404.979 C 318.425 403.069, 321.471 402.641, 330.500 402.591 C 340.532 402.535, 341.984 402.769, 347 405.255 C 353.002 408.229, 356.748 408.596, 363.571 406.878 C 368.808 405.559, 373 401.188, 373 397.046 C 373 393.535, 374.133 392.633, 381.028 390.657 C 389.830 388.135, 394 382.645, 394 373.580 C 394 369.313, 394.716 366.664, 397.095 362.125 C 401.120 354.446, 401.408 348.288, 398.076 341.167 L 395.652 335.987 398.872 331.743 C 407.505 320.365, 409.193 310.864, 404.300 301.193 C 402.116 296.875, 401.827 295.536, 402.784 294.178 C 407.747 287.143, 409.269 283.517, 409.744 277.605 C 410.339 270.194, 409.056 265.604, 404.945 260.431 C 401.571 256.185, 401.332 254.190, 403.659 249.700 C 407.535 242.221, 407.051 233.697, 402.345 226.586 C 399.963 222.987, 399.831 222.312, 400.970 219.553 C 404.680 210.564, 405.222 207.928, 404.525 202.257 C 403.871 196.930, 403.414 196.125, 398.404 191.477 L 392.990 186.455 395.245 184.199 C 397.249 182.196, 397.500 180.948, 397.500 173.004 L 397.500 164.063 391.670 158.172 C 386.141 152.585, 385.800 151.950, 385.042 145.839 C 384.126 138.451, 381.435 132.594, 376.392 127.012 C 372.621 122.838, 364.028 118, 360.385 118 C 356.274 118, 355.059 116.833, 351.529 109.494 C 348.468 103.130, 347.432 101.904, 343.517 100.008 C 340.712 98.650, 335.840 97.541, 330.568 97.061 C 322.392 96.316, 321.955 96.145, 317.126 91.803 C 309.227 84.701, 299.904 82.646, 288.688 85.533 C 286.535 86.087, 284.070 85.410, 278.171 82.641 C 273.933 80.653, 268.348 78.735, 265.759 78.380 C 261.647 77.817, 260.127 78.193, 253.709 81.364 L 246.365 84.993 233.925 84.746 L 221.486 84.500 216.351 88.256 C 209.555 93.227, 205.074 94.999, 199.282 95.006 C 189.589 95.017, 182.816 98.420, 177.543 105.928 C 175.832 108.363, 173.823 110.559, 173.077 110.808 C 172.317 111.061, 172.005 110.801, 172.367 110.215 C 172.722 109.641, 168.537 100.112, 163.068 89.038 C 157.599 77.965, 152.983 67.724, 152.812 66.280 C 152.357 62.448, 150.532 62.436, 147.626 66.246 M 389.759 73.052 C 380.735 94.761, 374.639 111.024, 374.257 114.409 C 373.830 118.204, 374.258 119.171, 379.350 125.892 C 382.408 129.928, 385.100 133.741, 385.332 134.365 C 385.565 134.992, 387.874 133.484, 390.487 131 C 394.588 127.101, 395.124 126.834, 394.498 129 C 394.101 130.375, 392.426 133.893, 390.777 136.817 C 388.529 140.800, 387.928 142.889, 388.379 145.147 C 389.443 150.467, 392.189 155.046, 395.269 156.639 C 398.051 158.078, 398.456 158.050, 400.852 156.261 C 404.175 153.780, 409.457 143.316, 411.585 135 C 413.599 127.128, 413.035 117.619, 409.951 107.452 C 407.678 99.957, 396.329 76.057, 393.141 72.052 L 391.192 69.604 389.759 73.052 M 207.293 230.508 C 188.058 234.688, 170.423 250.506, 159.362 273.500 C 153.594 285.491, 151.677 293.361, 151.692 305 C 151.702 313.215, 152.052 315.187, 154.281 319.576 C 157.112 325.154, 166.269 334.210, 173.164 338.250 C 183.384 344.240, 188.983 345.389, 208 345.403 C 227.534 345.418, 234.737 344.181, 244.855 339.073 C 263.325 329.749, 273.096 310.340, 271.572 286 C 270.283 265.418, 266.493 255.282, 256.265 245.065 C 242.928 231.742, 225.480 226.556, 207.293 230.508 M 151.400 234.400 C 148.622 237.178, 148 238.562, 148 241.966 C 148 247.169, 149.251 249.561, 152.980 251.490 C 157.803 253.984, 162.316 253.406, 167.172 249.673 C 171.093 246.659, 171.492 245.955, 171.414 242.184 C 171.317 237.423, 169.132 234.415, 164.282 232.362 C 158.804 230.043, 155.184 230.616, 151.400 234.400 M 306.500 232.402 C 292.844 236.732, 283.085 247.342, 281.455 259.630 C 280.533 266.578, 282.221 271.632, 287.760 278.507 C 294.639 287.046, 302.493 291, 312.577 291 C 320.814 291, 327.941 288.808, 333.508 284.562 C 335.372 283.140, 340.564 277.887, 345.046 272.888 C 351.345 265.863, 353.072 263.312, 352.655 261.650 C 349.894 250.652, 348.983 247.781, 347.411 245.119 C 341.517 235.141, 319.474 228.288, 306.500 232.402 M 325.659 241.054 C 321.779 244.105, 320.407 249.645, 322.368 254.339 C 323.567 257.207, 325.008 258.558, 328.533 260.118 C 340.617 265.463, 350.642 255.736, 344.253 244.865 C 340.969 239.276, 330.616 237.154, 325.659 241.054 M 203.500 268.660 C 200.750 269.411, 198 271.998, 198 273.834 C 198 274.672, 199.642 276.862, 201.649 278.701 L 205.299 282.043 204.660 291.272 C 203.928 301.838, 201.897 310.299, 199.212 313.967 C 196.398 317.811, 191.150 320.184, 186.672 319.637 C 181.917 319.056, 179.294 316.790, 176.672 311 C 174.751 306.757, 174.598 306.643, 173.990 309 C 172.018 316.653, 182.513 325.120, 191.811 323.376 C 193.640 323.033, 197.406 321.191, 200.180 319.282 L 205.224 315.813 209.033 319.532 C 216.754 327.072, 228.721 327.279, 236.001 319.999 C 239.973 316.027, 241.979 310.579, 240.145 308.745 C 239.401 308.001, 238.554 308.671, 237.293 311.001 C 236.307 312.824, 234.299 315.707, 232.832 317.408 C 230.323 320.316, 229.747 320.500, 223.155 320.500 C 217.613 320.500, 215.556 320.063, 213.323 318.410 C 208.444 314.798, 207.500 311.652, 207.500 299 C 207.500 289.023, 207.795 286.948, 209.727 283.335 C 211.307 280.380, 212.942 278.844, 215.356 278.048 C 217.227 277.430, 219.572 276.026, 220.566 274.927 C 222.314 272.996, 222.305 272.861, 220.303 270.859 C 218.742 269.297, 216.668 268.706, 211.866 268.451 C 208.365 268.266, 204.600 268.360, 203.500 268.660 M 107.500 408.326 C 100.352 411.123, 97.010 415.892, 97.004 423.300 C 96.992 438.071, 112.979 444.856, 125.603 435.437 C 130.230 431.986, 131.637 427.833, 130.113 422.133 C 128.162 414.839, 124.082 409.133, 120 407.991 C 115.510 406.734, 111.278 406.848, 107.500 408.326 M 290.667 413.667 C 289.629 414.704, 289.883 418, 291 418 C 291.550 418, 292 416.875, 292 415.500 C 292 412.882, 291.769 412.564, 290.667 413.667 M 280.459 416.067 C 280.096 416.653, 280.040 417.373, 280.333 417.667 C 281.050 418.383, 283 417.121, 283 415.941 C 283 414.663, 281.274 414.748, 280.459 416.067 M 307.446 419.087 C 306.416 420.755, 308.733 422.667, 310.113 421.287 C 311.267 420.133, 310.545 418, 309 418 C 308.515 418, 307.816 418.489, 307.446 419.087 M 298 421.015 C 296.667 421.891, 296.667 422.109, 298 422.985 C 298.825 423.526, 299.725 423.969, 300 423.969 C 300.275 423.969, 301.175 423.526, 302 422.985 C 303.333 422.109, 303.333 421.891, 302 421.015 C 301.175 420.474, 300.275 420.031, 300 420.031 C 299.725 420.031, 298.825 420.474, 298 421.015 M 340.200 422.200 C 338.571 423.829, 338.692 425.500, 340.550 427.042 C 341.826 428.101, 342.374 428.055, 343.648 426.781 C 344.874 425.554, 344.960 424.794, 344.062 423.117 C 342.769 420.700, 341.905 420.495, 340.200 422.200 M 287.036 423.456 C 285.537 425.263, 286.500 427, 289 427 C 290.035 427, 291.172 426.530, 291.527 425.956 C 292.190 424.883, 290.348 422, 289 422 C 288.585 422, 287.701 422.655, 287.036 423.456 M 323.446 423.087 C 322.416 424.755, 324.733 426.667, 326.113 425.287 C 327.267 424.133, 326.545 422, 325 422 C 324.515 422, 323.816 422.489, 323.446 423.087 M 152.459 424.067 C 152.096 424.653, 152.040 425.373, 152.333 425.667 C 153.050 426.383, 155 425.121, 155 423.941 C 155 422.663, 153.274 422.748, 152.459 424.067 M 164.543 424.931 C 164.226 425.443, 164.425 426.144, 164.984 426.490 C 166.177 427.227, 168 426.291, 168 424.941 C 168 423.724, 165.293 423.716, 164.543 424.931 M 277.250 425.137 C 275.746 426.656, 275.611 429.642, 277.007 430.504 C 278.269 431.284, 279.264 428.831, 278.829 426.010 C 278.565 424.294, 278.254 424.123, 277.250 425.137 M 139.638 429.500 C 138.982 431.211, 139.826 434, 141 434 C 142.174 434, 143.018 431.211, 142.362 429.500 C 142.045 428.675, 141.432 428, 141 428 C 140.568 428, 139.955 428.675, 139.638 429.500 M 307.102 429.378 C 306.372 430.256, 306.278 431.054, 306.861 431.414 C 308.229 432.260, 311.152 430.957, 310.730 429.689 C 310.157 427.972, 308.394 427.820, 307.102 429.378 M 296 431.015 C 294.667 431.891, 294.667 432.109, 296 432.985 C 296.825 433.526, 297.725 433.969, 298 433.969 C 298.275 433.969, 299.175 433.526, 300 432.985 C 301.333 432.109, 301.333 431.891, 300 431.015 C 299.175 430.474, 298.275 430.031, 298 430.031 C 297.725 430.031, 296.825 430.474, 296 431.015 M 164.667 433.667 C 163.629 434.704, 163.883 438, 165 438 C 165.550 438, 166 436.875, 166 435.500 C 166 432.882, 165.769 432.564, 164.667 433.667 M 286.446 434.087 C 285.416 435.755, 287.733 437.667, 289.113 436.287 C 290.267 435.133, 289.545 433, 288 433 C 287.515 433, 286.816 433.489, 286.446 434.087 M 338.695 434.111 C 337.268 434.941, 337.137 435.460, 338.067 436.581 C 339.408 438.196, 341.829 438.394, 343.936 437.061 C 345.126 436.308, 345.147 435.883, 344.063 434.576 C 342.551 432.754, 341.225 432.639, 338.695 434.111 M 272 439.015 C 270.667 439.891, 270.667 440.109, 272 440.985 C 272.825 441.526, 273.725 441.969, 274 441.969 C 274.275 441.969, 275.175 441.526, 276 440.985 C 277.333 440.109, 277.333 439.891, 276 439.015 C 275.175 438.474, 274.275 438.031, 274 438.031 C 273.725 438.031, 272.825 438.474, 272 439.015 M 296.129 438.920 C 295.412 439.364, 294.977 440.800, 295.163 442.113 C 295.600 445.205, 299.364 445.448, 299.798 442.412 C 300.157 439.900, 297.947 437.796, 296.129 438.920 M 283.446 444.087 C 282.416 445.755, 284.733 447.667, 286.113 446.287 C 287.267 445.133, 286.545 443, 285 443 C 284.515 443, 283.816 443.489, 283.446 444.087 M 163.446 445.087 C 162.416 446.755, 164.733 448.667, 166.113 447.287 C 167.267 446.133, 166.545 444, 165 444 C 164.515 444, 163.816 444.489, 163.446 445.087 M 338 445.015 C 336.667 445.891, 336.667 446.109, 338 446.985 C 338.825 447.526, 339.725 447.969, 340 447.969 C 340.275 447.969, 341.175 447.526, 342 446.985 C 343.333 446.109, 343.333 445.891, 342 445.015 C 341.175 444.474, 340.275 444.031, 340 444.031 C 339.725 444.031, 338.825 444.474, 338 445.015 M 104.707 449.487 C 98.792 451.730, 95.352 454.641, 93.086 459.323 C 90.467 464.732, 90.442 469.215, 93 474.500 C 98.359 485.571, 115.482 486.100, 123.608 475.447 C 126.023 472.281, 126.500 470.706, 126.500 465.901 C 126.500 459.528, 124.989 456.735, 118.858 451.773 C 114.610 448.335, 109.796 447.557, 104.707 449.487 M 292.394 450.417 C 291.566 452.574, 292.717 455.261, 294.251 454.750 C 294.938 454.521, 295.500 453.283, 295.500 452 C 295.500 449.259, 293.273 448.124, 292.394 450.417 M 337.459 453.067 C 337.096 453.653, 337.040 454.373, 337.333 454.667 C 338.050 455.383, 340 454.121, 340 452.941 C 340 451.663, 338.274 451.748, 337.459 453.067 M 139 455.500 C 138.007 456.697, 138.007 457.303, 139 458.500 C 139.685 459.325, 140.592 460, 141.015 460 C 141.439 460, 142.045 459.325, 142.362 458.500 C 143.014 456.799, 142.177 454, 141.015 454 C 140.592 454, 139.685 454.675, 139 455.500 M 147.446 455.087 C 146.416 456.755, 148.733 458.667, 150.113 457.287 C 151.267 456.133, 150.545 454, 149 454 C 148.515 454, 147.816 454.489, 147.446 455.087 M 281.250 456.035 C 278.627 457.085, 278.335 458.531, 280.572 459.389 C 282.540 460.145, 286.250 458.249, 285.748 456.745 C 285.230 455.191, 283.886 454.979, 281.250 456.035 M 131.615 457.814 C 130.864 459.028, 131.882 462, 133.048 462 C 134.764 462, 135.183 459.755, 133.737 458.308 C 132.808 457.380, 132 457.191, 131.615 457.814 M 268.543 457.931 C 267.803 459.128, 269.684 460.313, 271.016 459.490 C 272.135 458.799, 271.400 457, 270 457 C 269.515 457, 268.859 457.419, 268.543 457.931 M 147.446 463.087 C 146.416 464.755, 148.733 466.667, 150.113 465.287 C 151.267 464.133, 150.545 462, 149 462 C 148.515 462, 147.816 462.489, 147.446 463.087 M 139.473 465.044 C 138.603 466.451, 141.072 469.328, 142.190 468.210 C 143.178 467.222, 142.231 464, 140.952 464 C 140.493 464, 139.828 464.470, 139.473 465.044 M 278.459 468.067 C 278.096 468.653, 278.040 469.373, 278.333 469.667 C 279.050 470.383, 281 469.121, 281 467.941 C 281 466.663, 279.274 466.748, 278.459 468.067 M 265.667 468.667 C 264.570 469.763, 264.904 470.749, 266.590 471.396 C 268.916 472.289, 270.322 471.093, 268.926 469.411 C 267.641 467.863, 266.688 467.645, 265.667 468.667 M 150.380 473.452 C 149.676 475.286, 150.700 477, 152.500 477 C 154.558 477, 155.338 475.112, 153.964 473.456 C 152.425 471.603, 151.090 471.601, 150.380 473.452 M 162 473.015 C 160.667 473.891, 160.667 474.109, 162 474.985 C 162.825 475.526, 163.725 475.969, 164 475.969 C 164.275 475.969, 165.175 475.526, 166 474.985 C 167.333 474.109, 167.333 473.891, 166 473.015 C 165.175 472.474, 164.275 472.031, 164 472.031 C 163.725 472.031, 162.825 472.474, 162 473.015 M 139.473 475.044 C 138.603 476.451, 141.072 479.328, 142.190 478.210 C 143.178 477.222, 142.231 474, 140.952 474 C 140.493 474, 139.828 474.470, 139.473 475.044 M 274.362 478.500 C 273.662 480.324, 274.577 483, 275.901 483 C 277.141 483, 278.321 479.328, 277.506 478.009 C 276.593 476.532, 275.023 476.778, 274.362 478.500 M 261.544 479.928 C 260.879 481.005, 264.833 482.501, 265.796 481.537 C 266.152 481.182, 265.780 480.473, 264.971 479.961 C 263.097 478.776, 262.262 478.768, 261.544 479.928 M 160 485.015 C 158.667 485.891, 158.667 486.109, 160 486.985 C 160.825 487.526, 161.725 487.969, 162 487.969 C 162.275 487.969, 163.175 487.526, 164 486.985 C 165.333 486.109, 165.333 485.891, 164 485.015 C 163.175 484.474, 162.275 484.031, 162 484.031 C 161.725 484.031, 160.825 484.474, 160 485.015 M 272.980 489.524 C 272.284 490.362, 271.993 491.327, 272.333 491.667 C 273.060 492.393, 276 490.156, 276 488.878 C 276 487.500, 274.370 487.849, 272.980 489.524 M 160.150 496.319 C 159.237 497.419, 159.302 498.005, 160.440 498.950 C 162.537 500.690, 165.500 499.833, 165.500 497.486 C 165.500 495.065, 161.852 494.269, 160.150 496.319 M 137.446 499.087 C 136.416 500.755, 138.733 502.667, 140.113 501.287 C 141.267 500.133, 140.545 498, 139 498 C 138.515 498, 137.816 498.489, 137.446 499.087 M 269.446 499.087 C 268.416 500.755, 270.733 502.667, 272.113 501.287 C 273.267 500.133, 272.545 498, 271 498 C 270.515 498, 269.816 498.489, 269.446 499.087" stroke="none" fill="#042c2c" fill-rule="evenodd"/><path d="M 147.626 66.246 C 141.494 74.286, 132.477 99.015, 131.382 110.797 C 130.915 115.829, 131.198 119.170, 132.462 123.518 C 135.573 134.220, 141.038 142.880, 143.620 141.199 C 144.211 140.815, 144.989 137.613, 145.349 134.085 C 146.035 127.366, 147.983 123.356, 154.535 115.172 C 157.049 112.032, 158 109.854, 158 107.235 L 158 103.626 160.844 106.350 C 162.408 107.849, 165.445 109.588, 167.594 110.216 L 171.500 111.357 166.903 112.074 C 160.627 113.052, 156.854 115.185, 152.596 120.158 C 148.968 124.398, 147.016 129.273, 147.006 134.125 C 146.992 140.619, 145.864 142.887, 141.631 144.938 C 136.338 147.502, 130.425 153.256, 127.759 158.437 C 125.535 162.760, 125.118 168.906, 126.482 177.237 C 127.175 181.473, 126.974 182.345, 124.577 185.487 C 116.308 196.329, 117.456 209.169, 127 212.592 C 135.532 215.653, 148.658 212.694, 156.267 205.996 L 160.827 201.982 167.028 205.676 C 172.546 208.964, 174.147 209.419, 181.555 209.808 C 189.261 210.212, 190.377 210.012, 196.552 207.122 C 200.222 205.405, 204.020 204, 204.991 204 C 205.963 204, 209.269 205.150, 212.339 206.555 C 222.786 211.338, 237.763 210.839, 245.046 205.466 L 248.266 203.090 252.520 207.467 C 259.377 214.523, 266.761 215.639, 279.601 211.562 L 287.278 209.124 292.889 214.434 C 301.224 222.323, 303.714 223.318, 313.799 222.789 C 320.996 222.411, 321.979 222.542, 320.433 223.673 C 318.222 225.289, 307.077 225.427, 301.595 223.905 C 299.289 223.264, 295.565 220.810, 292.499 217.910 C 286.816 212.536, 285.951 212.287, 280.654 214.500 C 273.323 217.563, 258.796 215.839, 252.168 211.120 C 248.458 208.478, 245.468 208.451, 239 211 C 231.470 213.968, 223.690 213.651, 214.500 210 C 210.346 208.350, 206.100 207, 205.064 207 C 204.027 207, 200.327 208.350, 196.840 209.999 C 188.068 214.149, 180.454 214.149, 171 210 C 162.903 206.446, 162.058 206.380, 158.687 209.031 C 157.267 210.149, 153.494 212.281, 150.302 213.770 C 145.258 216.123, 143.083 216.505, 133.647 216.691 C 121.194 216.937, 119.444 217.679, 115.517 224.380 C 110.237 233.391, 109.842 245, 114.816 245 C 115.838 245, 120.235 241.911, 124.587 238.135 C 135.762 228.440, 139.732 226.552, 149 226.523 C 157.648 226.496, 162.404 228.386, 170.438 235.041 C 178.037 241.335, 178.250 241.384, 182.641 237.843 C 188.125 233.421, 199.473 228.213, 206.500 226.894 C 214.473 225.396, 229.850 226.386, 238.042 228.925 C 250.679 232.840, 259.961 241.258, 266.421 254.658 C 273.856 270.084, 275.712 284.756, 272.421 302.105 C 269.159 319.298, 262.606 330.033, 250.581 337.883 C 239.027 345.426, 232.410 347.177, 213.249 347.763 C 202.618 348.088, 194.837 347.841, 190.749 347.049 C 182.879 345.524, 167.546 338.113, 161.806 333.060 C 153.286 325.561, 149.041 313.654, 149.015 297.184 C 148.997 286.064, 148.157 284, 143.646 284 C 134.361 284, 123.945 277.733, 119.833 269.672 C 118.624 267.302, 117.524 262.791, 117.237 259.029 C 116.964 255.438, 116.293 251.938, 115.747 251.250 C 112.640 247.335, 104.614 254.105, 100.993 263.695 C 98.823 269.441, 98.684 276.106, 100.566 284.111 C 101.077 286.285, 100.247 287.768, 95.617 292.957 C 89.291 300.047, 89.524 299.165, 88.028 321.753 C 86.819 340, 86.983 340.764, 93.415 346.946 C 97.546 350.917, 97.746 352.534, 94.999 359.761 C 92.529 366.260, 92.502 370.307, 94.893 375.571 C 98.169 382.784, 106.713 387.838, 120.012 390.429 C 121.394 390.698, 124.971 393.007, 127.962 395.560 C 134.433 401.084, 136.571 402, 142.988 402 C 146.829 402, 148.531 402.576, 151.115 404.750 C 154.024 407.198, 155.181 407.500, 161.648 407.500 C 167.634 407.500, 169.159 407.165, 170.304 405.599 C 172.819 402.160, 173.487 405.795, 173.830 424.767 L 174.159 443.034 179.830 446.865 C 187.946 452.349, 188.912 452.774, 199.493 455.523 C 204.741 456.887, 211.614 459.458, 214.766 461.237 C 220.311 464.366, 220.939 464.484, 234.056 464.844 C 257.557 465.489, 265 463.266, 265 455.601 C 265 453.853, 265.900 450.658, 267 448.500 C 268.100 446.342, 269 442.831, 269 440.696 C 269 438.337, 269.780 435.824, 270.989 434.287 C 272.257 432.675, 272.771 430.936, 272.407 429.487 C 272.049 428.060, 272.798 425.410, 274.419 422.365 C 277.525 416.530, 277.606 415.040, 275 411.727 C 273.900 410.329, 273 408.963, 273 408.691 C 273 408.420, 280.762 407.997, 290.250 407.751 C 305.259 407.363, 308.279 407.003, 313.500 404.979 C 318.425 403.069, 321.471 402.641, 330.500 402.591 C 340.532 402.535, 341.984 402.769, 347 405.255 C 353.002 408.229, 356.748 408.596, 363.571 406.878 C 368.808 405.559, 373 401.188, 373 397.046 C 373 393.535, 374.133 392.633, 381.028 390.657 C 389.830 388.135, 394 382.645, 394 373.580 C 394 369.313, 394.716 366.664, 397.095 362.125 C 401.120 354.446, 401.408 348.288, 398.076 341.167 L 395.652 335.987 398.872 331.743 C 407.505 320.365, 409.193 310.864, 404.300 301.193 C 402.116 296.875, 401.827 295.536, 402.784 294.178 C 407.747 287.143, 409.269 283.517, 409.744 277.605 C 410.339 270.194, 409.056 265.604, 404.945 260.431 C 401.571 256.185, 401.332 254.190, 403.659 249.700 C 407.535 242.221, 407.051 233.697, 402.345 226.586 C 399.963 222.987, 399.831 222.312, 400.970 219.553 C 404.680 210.564, 405.222 207.928, 404.525 202.257 C 403.871 196.930, 403.414 196.125, 398.404 191.477 L 392.990 186.455 395.245 184.199 C 397.249 182.196, 397.500 180.948, 397.500 173.004 L 397.500 164.063 391.670 158.172 C 386.141 152.585, 385.800 151.950, 385.042 145.839 C 384.126 138.451, 381.435 132.594, 376.392 127.012 C 372.621 122.838, 364.028 118, 360.385 118 C 356.274 118, 355.059 116.833, 351.529 109.494 C 348.468 103.130, 347.432 101.904, 343.517 100.008 C 340.712 98.650, 335.840 97.541, 330.568 97.061 C 322.392 96.316, 321.955 96.145, 317.126 91.803 C 309.227 84.701, 299.904 82.646, 288.688 85.533 C 286.535 86.087, 284.070 85.410, 278.171 82.641 C 273.933 80.653, 268.348 78.735, 265.759 78.380 C 261.647 77.817, 260.127 78.193, 253.709 81.364 L 246.365 84.993 233.925 84.746 L 221.486 84.500 216.351 88.256 C 209.555 93.227, 205.074 94.999, 199.282 95.006 C 189.589 95.017, 182.816 98.420, 177.543 105.928 C 175.832 108.363, 173.823 110.559, 173.077 110.808 C 172.317 111.061, 172.005 110.801, 172.367 110.215 C 172.722 109.641, 168.537 100.112, 163.068 89.038 C 157.599 77.965, 152.983 67.724, 152.812 66.280 C 152.357 62.448, 150.532 62.436, 147.626 66.246 M 389.759 73.052 C 380.735 94.761, 374.639 111.024, 374.257 114.409 C 373.830 118.204, 374.258 119.171, 379.350 125.892 C 382.408 129.928, 385.100 133.741, 385.332 134.365 C 385.565 134.992, 387.874 133.484, 390.487 131 C 394.588 127.101, 395.124 126.834, 394.498 129 C 394.101 130.375, 392.426 133.893, 390.777 136.817 C 388.529 140.800, 387.928 142.889, 388.379 145.147 C 389.443 150.467, 392.189 155.046, 395.269 156.639 C 398.051 158.078, 398.456 158.050, 400.852 156.261 C 404.175 153.780, 409.457 143.316, 411.585 135 C 413.599 127.128, 413.035 117.619, 409.951 107.452 C 407.678 99.957, 396.329 76.057, 393.141 72.052 L 391.192 69.604 389.759 73.052 M 207.293 230.508 C 188.058 234.688, 170.423 250.506, 159.362 273.500 C 153.594 285.491, 151.677 293.361, 151.692 305 C 151.702 313.215, 152.052 315.187, 154.281 319.576 C 157.112 325.154, 166.269 334.210, 173.164 338.250 C 183.384 344.240, 188.983 345.389, 208 345.403 C 227.534 345.418, 234.737 344.181, 244.855 339.073 C 263.325 329.749, 273.096 310.340, 271.572 286 C 270.283 265.418, 266.493 255.282, 256.265 245.065 C 242.928 231.742, 225.480 226.556, 207.293 230.508 M 151.400 234.400 C 148.622 237.178, 148 238.562, 148 241.966 C 148 247.169, 149.251 249.561, 152.980 251.490 C 157.803 253.984, 162.316 253.406, 167.172 249.673 C 171.093 246.659, 171.492 245.955, 171.414 242.184 C 171.317 237.423, 169.132 234.415, 164.282 232.362 C 158.804 230.043, 155.184 230.616, 151.400 234.400 M 306.500 232.402 C 292.844 236.732, 283.085 247.342, 281.455 259.630 C 280.533 266.578, 282.221 271.632, 287.760 278.507 C 294.639 287.046, 302.493 291, 312.577 291 C 320.814 291, 327.941 288.808, 333.508 284.562 C 335.372 283.140, 340.564 277.887, 345.046 272.888 C 351.345 265.863, 353.072 263.312, 352.655 261.650 C 349.894 250.652, 348.983 247.781, 347.411 245.119 C 341.517 235.141, 319.474 228.288, 306.500 232.402 M 325.659 241.054 C 321.779 244.105, 320.407 249.645, 322.368 254.339 C 323.567 257.207, 325.008 258.558, 328.533 260.118 C 340.617 265.463, 350.642 255.736, 344.253 244.865 C 340.969 239.276, 330.616 237.154, 325.659 241.054 M 203.500 268.660 C 200.750 269.411, 198 271.998, 198 273.834 C 198 274.672, 199.642 276.862, 201.649 278.701 L 205.299 282.043 204.660 291.272 C 203.928 301.838, 201.897 310.299, 199.212 313.967 C 196.398 317.811, 191.150 320.184, 186.672 319.637 C 181.917 319.056, 179.294 316.790, 176.672 311 C 174.751 306.757, 174.598 306.643, 173.990 309 C 172.018 316.653, 182.513 325.120, 191.811 323.376 C 193.640 323.033, 197.406 321.191, 200.180 319.282 L 205.224 315.813 209.033 319.532 C 216.754 327.072, 228.721 327.279, 236.001 319.999 C 239.973 316.027, 241.979 310.579, 240.145 308.745 C 239.401 308.001, 238.554 308.671, 237.293 311.001 C 236.307 312.824, 234.299 315.707, 232.832 317.408 C 230.323 320.316, 229.747 320.500, 223.155 320.500 C 217.613 320.500, 215.556 320.063, 213.323 318.410 C 208.444 314.798, 207.500 311.652, 207.500 299 C 207.500 289.023, 207.795 286.948, 209.727 283.335 C 211.307 280.380, 212.942 278.844, 215.356 278.048 C 217.227 277.430, 219.572 276.026, 220.566 274.927 C 222.314 272.996, 222.305 272.861, 220.303 270.859 C 218.742 269.297, 216.668 268.706, 211.866 268.451 C 208.365 268.266, 204.600 268.360, 203.500 268.660 M 107.500 408.326 C 100.352 411.123, 97.010 415.892, 97.004 423.300 C 96.992 438.071, 112.979 444.856, 125.603 435.437 C 130.230 431.986, 131.637 427.833, 130.113 422.133 C 128.162 414.839, 124.082 409.133, 120 407.991 C 115.510 406.734, 111.278 406.848, 107.500 408.326 M 290.667 413.667 C 289.629 414.704, 289.883 418, 291 418 C 291.550 418, 292 416.875, 292 415.500 C 292 412.882, 291.769 412.564, 290.667 413.667 M 280.459 416.067 C 280.096 416.653, 280.040 417.373, 280.333 417.667 C 281.050 418.383, 283 417.121, 283 415.941 C 283 414.663, 281.274 414.748, 280.459 416.067 M 307.446 419.087 C 306.416 420.755, 308.733 422.667, 310.113 421.287 C 311.267 420.133, 310.545 418, 309 418 C 308.515 418, 307.816 418.489, 307.446 419.087 M 298 421.015 C 296.667 421.891, 296.667 422.109, 298 422.985 C 298.825 423.526, 299.725 423.969, 300 423.969 C 300.275 423.969, 301.175 423.526, 302 422.985 C 303.333 422.109, 303.333 421.891, 302 421.015 C 301.175 420.474, 300.275 420.031, 300 420.031 C 299.725 420.031, 298.825 420.474, 298 421.015 M 340.200 422.200 C 338.571 423.829, 338.692 425.500, 340.550 427.042 C 341.826 428.101, 342.374 428.055, 343.648 426.781 C 344.874 425.554, 344.960 424.794, 344.062 423.117 C 342.769 420.700, 341.905 420.495, 340.200 422.200 M 287.036 423.456 C 285.537 425.263, 286.500 427, 289 427 C 290.035 427, 291.172 426.530, 291.527 425.956 C 292.190 424.883, 290.348 422, 289 422 C 288.585 422, 287.701 422.655, 287.036 423.456 M 323.446 423.087 C 322.416 424.755, 324.733 426.667, 326.113 425.287 C 327.267 424.133, 326.545 422, 325 422 C 324.515 422, 323.816 422.489, 323.446 423.087 M 152.459 424.067 C 152.096 424.653, 152.040 425.373, 152.333 425.667 C 153.050 426.383, 155 425.121, 155 423.941 C 155 422.663, 153.274 422.748, 152.459 424.067 M 164.543 424.931 C 164.226 425.443, 164.425 426.144, 164.984 426.490 C 166.177 427.227, 168 426.291, 168 424.941 C 168 423.724, 165.293 423.716, 164.543 424.931 M 277.250 425.137 C 275.746 426.656, 275.611 429.642, 277.007 430.504 C 278.269 431.284, 279.264 428.831, 278.829 426.010 C 278.565 424.294, 278.254 424.123, 277.250 425.137 M 139.638 429.500 C 138.982 431.211, 139.826 434, 141 434 C 142.174 434, 143.018 431.211, 142.362 429.500 C 142.045 428.675, 141.432 428, 141 428 C 140.568 428, 139.955 428.675, 139.638 429.500 M 307.102 429.378 C 306.372 430.256, 306.278 431.054, 306.861 431.414 C 308.229 432.260, 311.152 430.957, 310.730 429.689 C 310.157 427.972, 308.394 427.820, 307.102 429.378 M 296 431.015 C 294.667 431.891, 294.667 432.109, 296 432.985 C 296.825 433.526, 297.725 433.969, 298 433.969 C 298.275 433.969, 299.175 433.526, 300 432.985 C 301.333 432.109, 301.333 431.891, 300 431.015 C 299.175 430.474, 298.275 430.031, 298 430.031 C 297.725 430.031, 296.825 430.474, 296 431.015 M 164.667 433.667 C 163.629 434.704, 163.883 438, 165 438 C 165.550 438, 166 436.875, 166 435.500 C 166 432.882, 165.769 432.564, 164.667 433.667 M 286.446 434.087 C 285.416 435.755, 287.733 437.667, 289.113 436.287 C 290.267 435.133, 289.545 433, 288 433 C 287.515 433, 286.816 433.489, 286.446 434.087 M 338.695 434.111 C 337.268 434.941, 337.137 435.460, 338.067 436.581 C 339.408 438.196, 341.829 438.394, 343.936 437.061 C 345.126 436.308, 345.147 435.883, 344.063 434.576 C 342.551 432.754, 341.225 432.639, 338.695 434.111 M 272 439.015 C 270.667 439.891, 270.667 440.109, 272 440.985 C 272.825 441.526, 273.725 441.969, 274 441.969 C 274.275 441.969, 275.175 441.526, 276 440.985 C 277.333 440.109, 277.333 439.891, 276 439.015 C 275.175 438.474, 274.275 438.031, 274 438.031 C 273.725 438.031, 272.825 438.474, 272 439.015 M 296.129 438.920 C 295.412 439.364, 294.977 440.800, 295.163 442.113 C 295.600 445.205, 299.364 445.448, 299.798 442.412 C 300.157 439.900, 297.947 437.796, 296.129 438.920 M 283.446 444.087 C 282.416 445.755, 284.733 447.667, 286.113 446.287 C 287.267 445.133, 286.545 443, 285 443 C 284.515 443, 283.816 443.489, 283.446 444.087 M 163.446 445.087 C 162.416 446.755, 164.733 448.667, 166.113 447.287 C 167.267 446.133, 166.545 444, 165 444 C 164.515 444, 163.816 444.489, 163.446 445.087 M 338 445.015 C 336.667 445.891, 336.667 446.109, 338 446.985 C 338.825 447.526, 339.725 447.969, 340 447.969 C 340.275 447.969, 341.175 447.526, 342 446.985 C 343.333 446.109, 343.333 445.891, 342 445.015 C 341.175 444.474, 340.275 444.031, 340 444.031 C 339.725 444.031, 338.825 444.474, 338 445.015 M 104.707 449.487 C 98.792 451.730, 95.352 454.641, 93.086 459.323 C 90.467 464.732, 90.442 469.215, 93 474.500 C 98.359 485.571, 115.482 486.100, 123.608 475.447 C 126.023 472.281, 126.500 470.706, 126.500 465.901 C 126.500 459.528, 124.989 456.735, 118.858 451.773 C 114.610 448.335, 109.796 447.557, 104.707 449.487 M 292.394 450.417 C 291.566 452.574, 292.717 455.261, 294.251 454.750 C 294.938 454.521, 295.500 453.283, 295.500 452 C 295.500 449.259, 293.273 448.124, 292.394 450.417 M 337.459 453.067 C 337.096 453.653, 337.040 454.373, 337.333 454.667 C 338.050 455.383, 340 454.121, 340 452.941 C 340 451.663, 338.274 451.748, 337.459 453.067 M 139 455.500 C 138.007 456.697, 138.007 457.303, 139 458.500 C 139.685 459.325, 140.592 460, 141.015 460 C 141.439 460, 142.045 459.325, 142.362 458.500 C 143.014 456.799, 142.177 454, 141.015 454 C 140.592 454, 139.685 454.675, 139 455.500 M 147.446 455.087 C 146.416 456.755, 148.733 458.667, 150.113 457.287 C 151.267 456.133, 150.545 454, 149 454 C 148.515 454, 147.816 454.489, 147.446 455.087 M 281.250 456.035 C 278.627 457.085, 278.335 458.531, 280.572 459.389 C 282.540 460.145, 286.250 458.249, 285.748 456.745 C 285.230 455.191, 283.886 454.979, 281.250 456.035 M 131.615 457.814 C 130.864 459.028, 131.882 462, 133.048 462 C 134.764 462, 135.183 459.755, 133.737 458.308 C 132.808 457.380, 132 457.191, 131.615 457.814 M 268.543 457.931 C 267.803 459.128, 269.684 460.313, 271.016 459.490 C 272.135 458.799, 271.400 457, 270 457 C 269.515 457, 268.859 457.419, 268.543 457.931 M 147.446 463.087 C 146.416 464.755, 148.733 466.667, 150.113 465.287 C 151.267 464.133, 150.545 462, 149 462 C 148.515 462, 147.816 462.489, 147.446 463.087 M 139.473 465.044 C 138.603 466.451, 141.072 469.328, 142.190 468.210 C 143.178 467.222, 142.231 464, 140.952 464 C 140.493 464, 139.828 464.470, 139.473 465.044 M 278.459 468.067 C 278.096 468.653, 278.040 469.373, 278.333 469.667 C 279.050 470.383, 281 469.121, 281 467.941 C 281 466.663, 279.274 466.748, 278.459 468.067 M 265.667 468.667 C 264.570 469.763, 264.904 470.749, 266.590 471.396 C 268.916 472.289, 270.322 471.093, 268.926 469.411 C 267.641 467.863, 266.688 467.645, 265.667 468.667 M 150.380 473.452 C 149.676 475.286, 150.700 477, 152.500 477 C 154.558 477, 155.338 475.112, 153.964 473.456 C 152.425 471.603, 151.090 471.601, 150.380 473.452 M 162 473.015 C 160.667 473.891, 160.667 474.109, 162 474.985 C 162.825 475.526, 163.725 475.969, 164 475.969 C 164.275 475.969, 165.175 475.526, 166 474.985 C 167.333 474.109, 167.333 473.891, 166 473.015 C 165.175 472.474, 164.275 472.031, 164 472.031 C 163.725 472.031, 162.825 472.474, 162 473.015 M 139.473 475.044 C 138.603 476.451, 141.072 479.328, 142.190 478.210 C 143.178 477.222, 142.231 474, 140.952 474 C 140.493 474, 139.828 474.470, 139.473 475.044 M 274.362 478.500 C 273.662 480.324, 274.577 483, 275.901 483 C 277.141 483, 278.321 479.328, 277.506 478.009 C 276.593 476.532, 275.023 476.778, 274.362 478.500 M 261.544 479.928 C 260.879 481.005, 264.833 482.501, 265.796 481.537 C 266.152 481.182, 265.780 480.473, 264.971 479.961 C 263.097 478.776, 262.262 478.768, 261.544 479.928 M 336.500 484.454 C 328.565 489.283, 324.770 499.788, 328.414 506.834 L 330.051 510 345.077 510 L 360.102 510 361.551 506.532 C 363.409 502.084, 363.382 498.851, 361.447 494.218 C 356.858 483.232, 345.689 478.860, 336.500 484.454 M 160 485.015 C 158.667 485.891, 158.667 486.109, 160 486.985 C 160.825 487.526, 161.725 487.969, 162 487.969 C 162.275 487.969, 163.175 487.526, 164 486.985 C 165.333 486.109, 165.333 485.891, 164 485.015 C 163.175 484.474, 162.275 484.031, 162 484.031 C 161.725 484.031, 160.825 484.474, 160 485.015 M 299.500 486.892 C 289.538 489.460, 283.540 498.075, 285.500 507 L 286.159 510 302.963 510 C 319.544 510, 319.775 509.970, 320.370 507.750 C 322.258 500.703, 319.381 492.635, 313.735 489.145 C 309.864 486.753, 303.778 485.790, 299.500 486.892 M 272.980 489.524 C 272.284 490.362, 271.993 491.327, 272.333 491.667 C 273.060 492.393, 276 490.156, 276 488.878 C 276 487.500, 274.370 487.849, 272.980 489.524 M 160.150 496.319 C 159.237 497.419, 159.302 498.005, 160.440 498.950 C 162.537 500.690, 165.500 499.833, 165.500 497.486 C 165.500 495.065, 161.852 494.269, 160.150 496.319 M 137.446 499.087 C 136.416 500.755, 138.733 502.667, 140.113 501.287 C 141.267 500.133, 140.545 498, 139 498 C 138.515 498, 137.816 498.489, 137.446 499.087 M 269.446 499.087 C 268.416 500.755, 270.733 502.667, 272.113 501.287 C 273.267 500.133, 272.545 498, 271 498 C 270.515 498, 269.816 498.489, 269.446 499.087 M 161.638 507.500 C 161.249 508.515, 161.689 509, 163 509 C 164.311 509, 164.751 508.515, 164.362 507.500 C 164.045 506.675, 163.432 506, 163 506 C 162.568 506, 161.955 506.675, 161.638 507.500" stroke="none" fill="#f9d227" fill-rule="evenodd"/></svg>
