<svg xmlns="http://www.w3.org/2000/svg" width="512" height="512" viewBox="0 0 512 512" version="1.1"><path d="M 77.500 1.997 C 59.438 2.469, 53.575 2.958, 50.191 4.275 C 47.821 5.198, 42.781 7.583, 38.990 9.575 C 35.199 11.566, 29.679 15.290, 26.723 17.848 C 23.767 20.407, 19.174 25.200, 16.517 28.500 C 13.860 31.800, 9.286 39.450, 6.352 45.500 L 1.018 56.500 1.009 256.218 L 1 455.937 7.205 468.218 C 12.727 479.149, 14.405 481.494, 22.455 489.540 C 29.321 496.402, 33.428 499.573, 39.500 502.699 C 43.900 504.965, 50.200 507.647, 53.500 508.659 C 59.177 510.401, 65.610 510.500, 173 510.500 L 286.500 510.500 286.569 504.912 C 286.617 500.927, 287.292 498.263, 288.919 495.630 C 290.175 493.600, 292.865 491.089, 294.897 490.052 C 296.930 489.015, 300.214 487.863, 302.194 487.491 C 304.773 487.008, 307.057 487.374, 310.240 488.782 C 312.684 489.863, 315.768 492.267, 317.092 494.124 C 319.043 496.859, 319.500 498.734, 319.500 504 L 319.500 510.500 324.500 510.500 C 328.894 510.500, 329.478 510.258, 329.318 508.500 C 329.218 507.400, 328.826 504.618, 328.446 502.319 C 327.903 499.033, 328.240 497.135, 330.022 493.455 C 331.572 490.253, 333.727 487.861, 336.840 485.887 C 339.526 484.183, 342.766 483, 344.745 483 C 346.590 483, 349.360 483.652, 350.901 484.449 C 352.442 485.246, 355.100 487.488, 356.806 489.432 C 358.513 491.376, 360.451 494.774, 361.113 496.983 C 362.051 500.114, 362.051 501.886, 361.112 505.021 C 360.449 507.232, 360.180 509.482, 360.513 510.021 C 360.894 510.638, 378.649 511, 408.485 511 L 455.852 511 468.176 504.834 C 479.241 499.298, 481.426 497.741, 489.562 489.584 C 497.699 481.427, 499.255 479.233, 504.812 468.087 L 511 455.674 511 255.911 L 511 56.148 504.834 43.824 C 499.298 32.759, 497.741 30.574, 489.584 22.438 C 481.427 14.301, 479.233 12.745, 468.087 7.188 L 455.674 1 278.087 1.198 C 180.414 1.308, 90.150 1.667, 77.500 1.997 M 148.687 66.793 C 147.794 67.780, 145.282 72.392, 143.105 77.043 C 140.928 81.695, 137.997 88.928, 136.592 93.119 C 135.188 97.309, 133.497 103.896, 132.835 107.756 C 131.897 113.225, 131.897 115.959, 132.834 120.138 C 133.496 123.087, 135.184 127.974, 136.587 130.997 C 137.989 134.020, 139.851 137.282, 140.723 138.247 C 141.596 139.211, 142.625 140, 143.010 140 C 143.396 140, 143.984 137.077, 144.317 133.506 C 144.651 129.934, 145.457 125.996, 146.108 124.756 C 146.760 123.515, 148.961 120.475, 151 118 C 153.039 115.525, 155.223 112.517, 155.854 111.316 C 156.484 110.114, 157 107.752, 157 106.066 C 157 104.380, 157.395 103, 157.878 103 C 158.360 103, 159.373 103.748, 160.128 104.663 C 160.882 105.577, 163.450 107.190, 165.833 108.246 C 168.216 109.303, 170.435 109.898, 170.764 109.570 C 171.092 109.241, 167.233 100.541, 162.189 90.236 C 157.144 79.931, 152.731 70.037, 152.383 68.250 C 152.035 66.463, 151.426 65, 151.030 65 C 150.634 65, 149.580 65.807, 148.687 66.793 M 383.752 90.892 C 379.512 101.333, 375.768 111.600, 375.431 113.708 C 374.867 117.231, 375.285 118.165, 380.590 125.231 L 386.362 132.921 390.757 128.870 C 393.174 126.642, 395.397 125.063, 395.696 125.363 C 395.995 125.662, 395.956 127.423, 395.608 129.277 C 395.260 131.130, 393.631 134.767, 391.988 137.358 C 390.345 139.949, 389 142.812, 389 143.719 C 389 144.626, 389.946 147.323, 391.102 149.712 C 392.269 152.121, 394.461 154.704, 396.025 155.513 C 398.735 156.914, 398.954 156.844, 401.587 153.736 C 403.094 151.956, 405.552 147.800, 407.050 144.500 C 408.547 141.200, 410.327 135.809, 411.005 132.521 C 411.712 129.089, 411.974 124.023, 411.619 120.631 C 411.279 117.380, 410.115 111.746, 409.031 108.110 C 407.947 104.475, 404.157 95.650, 400.609 88.500 C 397.060 81.350, 393.550 74.692, 392.809 73.705 C 391.609 72.108, 390.609 74.005, 383.752 90.892 M 257 80.958 C 255.075 82.102, 251.946 83.748, 250.047 84.617 C 247.219 85.910, 244.502 86.073, 235.047 85.514 C 223.756 84.846, 223.422 84.887, 220 87.369 C 218.075 88.765, 214.619 91.077, 212.319 92.508 C 209.184 94.459, 206.007 95.329, 199.609 95.989 C 194.917 96.473, 189.485 97.625, 187.538 98.549 C 185.590 99.473, 182.856 101.640, 181.463 103.365 C 180.069 105.089, 177.933 107.762, 176.715 109.305 C 174.968 111.517, 173.336 112.267, 168.993 112.854 C 165.963 113.264, 161.566 114.678, 159.221 115.996 C 156.686 117.421, 153.700 120.350, 151.860 123.218 C 149.531 126.847, 148.556 129.835, 147.926 135.272 C 147.465 139.247, 147.068 142.797, 147.044 143.161 C 147.020 143.524, 145.069 144.756, 142.710 145.898 C 140.350 147.041, 136.559 149.817, 134.285 152.069 C 132.011 154.320, 129.381 157.785, 128.440 159.768 C 127.499 161.752, 126.720 165.203, 126.711 167.437 C 126.701 169.672, 127.049 174.076, 127.484 177.226 C 128.203 182.435, 128.050 183.246, 125.786 186.226 C 124.417 188.026, 122.555 190.940, 121.648 192.700 C 120.742 194.461, 120 197.656, 120 199.802 C 120 202.210, 120.876 205.006, 122.287 207.102 C 123.729 209.245, 126.037 210.992, 128.537 211.833 C 131.055 212.681, 134.476 212.944, 137.921 212.555 C 140.902 212.218, 145.233 211.106, 147.543 210.084 C 149.854 209.062, 153.650 206.504, 155.978 204.401 L 160.211 200.576 167.295 204.451 C 173.181 207.669, 175.605 208.403, 181.620 208.789 C 188.164 209.209, 189.502 208.953, 195.542 206.127 C 199.218 204.407, 203.470 203, 204.991 203 C 206.513 203, 210.400 204.224, 213.629 205.721 C 218.558 208.006, 220.864 208.443, 228 208.449 C 234.097 208.455, 237.490 207.963, 240 206.711 C 241.925 205.750, 244.656 204.228, 246.070 203.328 C 248.599 201.718, 248.712 201.765, 253.231 206.284 C 256.253 209.305, 259.297 211.272, 262.136 212.037 C 264.508 212.675, 268.486 212.928, 270.975 212.598 C 273.465 212.267, 277.910 211.082, 280.853 209.964 C 283.797 208.845, 287.019 208.189, 288.014 208.505 C 289.009 208.820, 291.379 210.977, 293.279 213.296 C 295.180 215.615, 298.882 218.586, 301.507 219.896 C 305.849 222.065, 307.085 222.222, 315.221 221.645 C 322.131 221.154, 324.070 221.293, 323.753 222.255 C 323.527 222.940, 322.253 224.056, 320.921 224.735 C 319.589 225.415, 315.347 225.977, 311.493 225.985 C 307.640 225.993, 302.976 225.567, 301.129 225.037 C 299.283 224.507, 295.375 221.807, 292.446 219.037 C 289.516 216.267, 286.840 214, 286.498 214 C 286.156 214, 283.642 214.731, 280.911 215.624 C 277.348 216.789, 273.600 217.125, 267.640 216.812 C 261.766 216.504, 258.135 215.751, 255.240 214.242 C 252.989 213.069, 250.241 211.543, 249.134 210.852 C 247.455 209.803, 245.945 209.981, 240.013 211.926 C 234.305 213.797, 231.483 214.160, 225.701 213.763 C 220.879 213.433, 216.518 212.379, 212.500 210.572 C 209.200 209.089, 205.600 208.086, 204.500 208.343 C 203.400 208.601, 199.800 209.969, 196.500 211.382 C 192.200 213.224, 188.705 213.959, 184.167 213.976 C 179.407 213.994, 175.952 213.247, 170.265 210.969 L 162.696 207.939 159.098 210.423 C 157.119 211.789, 153.250 213.929, 150.500 215.178 C 146.445 217.021, 143.421 217.500, 134.501 217.716 C 125.789 217.926, 122.982 218.356, 121.001 219.785 C 119.625 220.778, 117.225 224.119, 115.666 227.211 C 114.107 230.302, 112.586 234.665, 112.286 236.906 C 111.944 239.457, 112.208 241.545, 112.992 242.490 C 113.681 243.321, 114.619 244, 115.076 244 C 115.533 244, 119.190 241.033, 123.203 237.408 C 127.216 233.782, 132.889 229.687, 135.809 228.307 C 138.728 226.928, 143.765 225.560, 147.002 225.266 C 151.075 224.897, 154.474 225.252, 158.047 226.420 C 160.885 227.349, 166.463 230.559, 170.443 233.554 C 174.422 236.549, 178.131 239, 178.684 239 C 179.237 239, 180.469 238.139, 181.421 237.088 C 182.373 236.036, 186.830 233.327, 191.326 231.068 C 195.822 228.810, 202.200 226.468, 205.500 225.864 C 208.958 225.231, 215.737 225.017, 221.500 225.359 C 227 225.685, 233.860 226.596, 236.744 227.384 C 239.628 228.171, 244.128 229.843, 246.744 231.098 C 249.360 232.353, 254.214 236.107, 257.532 239.440 C 261.742 243.670, 264.718 247.916, 267.385 253.500 C 269.487 257.900, 272.121 265.100, 273.238 269.500 C 274.944 276.218, 275.177 279.422, 274.693 289.500 C 274.376 296.100, 273.360 304.425, 272.435 308 C 271.510 311.575, 269.607 316.975, 268.206 320 C 266.618 323.430, 262.995 328.169, 258.580 332.592 C 253.758 337.422, 249.427 340.668, 245 342.767 C 241.425 344.462, 234.767 346.603, 230.204 347.525 C 223.780 348.822, 218.138 349.109, 205.204 348.796 C 189.201 348.409, 188.159 348.257, 180.368 345.169 C 175.896 343.396, 169.098 339.742, 165.262 337.048 C 161.131 334.147, 156.997 330.201, 155.122 327.370 C 153.381 324.741, 151.237 320.320, 150.357 317.545 C 149.422 314.592, 148.555 307.316, 148.267 300 C 147.996 293.125, 147.368 286.995, 146.871 286.377 C 146.373 285.760, 143.386 284.956, 140.233 284.592 C 136.970 284.215, 132.363 282.759, 129.539 281.214 C 126.811 279.722, 123.117 276.576, 121.329 274.225 C 119.542 271.873, 117.615 268.273, 117.046 266.225 C 116.477 264.176, 116.002 260.475, 115.990 258 C 115.979 255.525, 115.538 252.825, 115.010 252 C 114.158 250.668, 113.739 250.671, 111.275 252.026 C 109.749 252.866, 107.044 255.720, 105.264 258.369 C 103.484 261.018, 101.522 265.056, 100.903 267.343 C 100.284 269.636, 100.062 273.742, 100.408 276.500 C 100.754 279.250, 101.298 282.918, 101.618 284.651 C 102.131 287.437, 101.552 288.505, 96.628 293.861 C 93.565 297.193, 90.858 300.950, 90.614 302.210 C 90.369 303.469, 89.690 311.851, 89.103 320.836 C 88.218 334.408, 88.274 337.622, 89.433 339.836 C 90.201 341.301, 92.443 344.051, 94.415 345.946 C 97.131 348.557, 98 350.206, 98 352.746 C 98 354.590, 97.364 357.330, 96.586 358.834 C 95.808 360.338, 94.863 363.212, 94.487 365.219 C 94.089 367.340, 94.313 370.418, 95.022 372.566 C 95.692 374.598, 97.766 377.949, 99.629 380.011 C 101.492 382.074, 105.150 384.669, 107.758 385.778 C 110.366 386.887, 115.052 388.315, 118.171 388.952 C 122.227 389.779, 125.075 391.166, 128.171 393.820 C 130.552 395.860, 133.283 398.138, 134.241 398.880 C 135.198 399.622, 139.167 400.579, 143.061 401.007 C 148.359 401.588, 150.756 402.362, 152.584 404.079 C 154.394 405.779, 156.543 406.484, 160.872 406.797 C 165.946 407.164, 166.992 406.925, 168.803 404.981 C 169.950 403.750, 171.523 402.987, 172.299 403.285 C 173.075 403.582, 173.995 405.553, 174.344 407.663 C 174.693 409.773, 174.983 418.324, 174.989 426.665 L 175 441.830 179.750 445.289 C 182.363 447.192, 186.403 449.709, 188.728 450.884 C 191.054 452.058, 196.114 453.683, 199.974 454.495 C 203.834 455.306, 210.256 457.665, 214.246 459.735 L 221.500 463.500 239.677 463.500 C 256.588 463.500, 258.051 463.354, 260.677 461.397 C 262.766 459.841, 263.656 458.151, 264.101 454.897 C 264.431 452.479, 265.444 448.827, 266.351 446.782 C 267.258 444.737, 268.003 441.587, 268.007 439.782 C 268.010 437.977, 268.857 435.220, 269.888 433.656 C 270.920 432.092, 271.546 429.981, 271.281 428.966 C 271.015 427.950, 271.969 424.646, 273.399 421.622 C 274.830 418.598, 276 415.716, 276 415.217 C 276 414.718, 275.100 413.495, 274 412.500 C 272.900 411.505, 272 409.903, 272 408.942 C 272 407.361, 273.691 407.152, 289.750 406.747 C 305.527 406.350, 308.111 406.040, 313 403.962 C 317.701 401.963, 320.242 401.614, 330.500 401.562 C 341.268 401.506, 342.897 401.735, 346.367 403.785 C 348.493 405.042, 352.098 406.326, 354.377 406.638 C 356.656 406.951, 360.396 406.701, 362.687 406.084 C 365.165 405.417, 367.897 403.723, 369.427 401.904 C 370.842 400.223, 372 397.826, 372 396.578 C 372 395.331, 372.788 393.607, 373.750 392.748 C 374.712 391.889, 377.517 390.649, 379.983 389.992 C 382.933 389.206, 385.924 387.339, 388.733 384.530 C 392.914 380.349, 393 380.127, 393 373.503 C 393 367.756, 393.471 365.921, 396.143 361.250 C 398.576 356.997, 399.286 354.565, 399.286 350.478 C 399.286 346.826, 398.625 344.129, 397.143 341.731 C 395.964 339.824, 395 337.389, 395 336.320 C 395 335.250, 396.960 331.703, 399.356 328.438 C 401.752 325.172, 404.227 320.970, 404.856 319.101 C 405.485 317.231, 406 313.811, 406 311.500 C 406 308.938, 405.024 305.462, 403.500 302.596 C 402.125 300.010, 401 296.988, 401 295.880 C 401 294.773, 402.111 292.410, 403.469 290.629 C 404.827 288.849, 406.627 285.744, 407.469 283.728 C 408.311 281.713, 409 278.010, 409 275.500 C 409 272.990, 408.331 269.335, 407.514 267.378 C 406.696 265.422, 404.896 262.477, 403.514 260.834 C 402.131 259.191, 401 256.673, 401 255.239 C 401 253.805, 401.943 250.683, 403.096 248.302 C 404.418 245.570, 405.177 242.077, 405.152 238.836 C 405.121 234.892, 404.403 232.558, 402.056 228.783 C 400.375 226.079, 399 222.995, 399 221.930 C 399 220.864, 399.884 218.344, 400.964 216.329 C 402.044 214.313, 403.208 210.795, 403.551 208.511 C 403.893 206.227, 403.677 202.513, 403.069 200.257 C 402.265 197.271, 400.612 195.024, 396.983 191.985 C 394.242 189.691, 392 187.322, 392 186.721 C 392 186.120, 393.012 184.551, 394.250 183.234 C 396.187 181.172, 396.500 179.752, 396.500 173.022 L 396.500 165.205 390.801 159.230 C 387.667 155.944, 384.882 152.186, 384.613 150.878 C 384.344 149.570, 383.923 146.651, 383.676 144.392 C 383.430 142.132, 382.442 138.627, 381.482 136.602 C 380.521 134.578, 377.824 130.796, 375.488 128.198 C 373.153 125.601, 369.226 122.468, 366.762 121.238 C 364.297 120.007, 360.937 119, 359.295 119 C 357.653 119, 355.597 118.213, 354.726 117.250 C 353.856 116.287, 352.260 113.475, 351.181 111 C 350.102 108.525, 348.257 105.492, 347.081 104.261 C 345.904 103.029, 343.527 101.289, 341.796 100.395 C 340.066 99.500, 334.688 98.440, 329.844 98.039 C 321.134 97.317, 320.985 97.259, 316.124 92.713 C 312.618 89.433, 309.564 87.639, 305.459 86.445 C 301.838 85.392, 298.187 84.997, 295.604 85.379 C 293.347 85.712, 290.081 86.258, 288.346 86.592 C 285.961 87.051, 283.170 86.286, 276.899 83.454 C 272.338 81.395, 266.782 79.523, 264.553 79.294 C 261.669 78.998, 259.491 79.478, 257 80.958 M 398.020 143.476 C 397.231 144.426, 397.155 145, 397.819 145 C 398.403 145, 399.179 144.520, 399.541 143.933 C 399.904 143.347, 399.994 142.661, 399.743 142.409 C 399.491 142.158, 398.716 142.638, 398.020 143.476 M 206.645 231.584 C 203.425 232.364, 197.584 234.686, 193.666 236.745 C 189.051 239.170, 183.883 243.132, 178.992 247.994 C 174.840 252.122, 169.232 258.875, 166.529 263 C 163.826 267.125, 160.139 273.994, 158.335 278.263 C 156.531 282.533, 154.316 289.676, 153.412 294.136 C 152.287 299.691, 151.986 304.160, 152.458 308.329 C 152.836 311.676, 153.767 315.901, 154.526 317.718 C 155.286 319.535, 158.290 323.561, 161.203 326.665 C 164.117 329.769, 169.181 334.055, 172.458 336.189 C 175.736 338.323, 181.586 341.066, 185.458 342.285 C 191.518 344.191, 194.731 344.497, 208.500 344.480 C 218.018 344.469, 226.931 343.924, 230.500 343.136 C 233.800 342.407, 239.400 340.399, 242.945 338.672 C 246.490 336.946, 251.929 333.182, 255.033 330.309 C 258.137 327.435, 262.059 322.478, 263.750 319.292 C 265.440 316.106, 267.638 310.800, 268.634 307.500 C 269.969 303.077, 270.429 298.347, 270.385 289.500 C 270.346 281.789, 269.716 274.998, 268.620 270.500 C 267.682 266.650, 265.812 261.090, 264.464 258.144 C 262.901 254.728, 259.385 250.192, 254.757 245.622 C 250.363 241.284, 245.263 237.383, 241.829 235.736 C 238.710 234.240, 233.553 232.337, 230.369 231.508 C 227.185 230.679, 221.862 230.037, 218.540 230.083 C 215.218 230.129, 209.865 230.804, 206.645 231.584 M 306.500 232.402 C 304.300 233.100, 300.700 234.608, 298.500 235.753 C 296.300 236.898, 292.635 239.785, 290.355 242.167 C 288.075 244.550, 285.286 248.347, 284.158 250.605 C 283.030 252.863, 281.814 256.924, 281.455 259.630 C 281.096 262.337, 281.286 266.349, 281.878 268.546 C 282.470 270.744, 285.116 275.226, 287.760 278.507 C 291.195 282.772, 294.363 285.403, 298.870 287.736 C 304.324 290.559, 306.174 291, 312.577 291 C 317.463 291, 321.701 290.345, 325.048 289.074 C 327.837 288.014, 331.644 285.984, 333.508 284.562 C 335.372 283.140, 340.564 277.887, 345.046 272.888 C 351.345 265.863, 353.072 263.312, 352.655 261.650 C 352.358 260.467, 351.465 256.955, 350.670 253.844 C 349.875 250.733, 348.408 246.807, 347.411 245.119 C 346.415 243.432, 343.729 240.708, 341.443 239.067 C 339.158 237.425, 333.881 234.939, 329.718 233.541 C 324.856 231.909, 320.063 231.024, 316.324 231.067 C 313.121 231.104, 308.700 231.705, 306.500 232.402 M 153.514 234.168 C 151.998 235.360, 150.116 237.871, 149.333 239.746 C 148.052 242.810, 148.090 243.470, 149.704 246.231 C 150.692 247.922, 153.126 250.149, 155.113 251.180 C 157.860 252.605, 159.333 252.824, 161.252 252.094 C 162.641 251.566, 165.403 249.707, 167.389 247.963 C 169.538 246.077, 171 243.877, 171 242.531 C 171 241.287, 170.024 239.030, 168.832 237.514 C 167.640 235.998, 165.179 234.137, 163.364 233.379 C 161.549 232.620, 159.210 232, 158.167 232 C 157.123 232, 155.030 232.976, 153.514 234.168 M 325.659 241.054 C 324.223 242.183, 322.543 244.792, 321.926 246.852 C 321.020 249.876, 321.105 251.316, 322.368 254.339 C 323.567 257.207, 325.008 258.558, 328.533 260.118 C 331.892 261.603, 334.180 261.976, 337.005 261.499 C 339.133 261.140, 342.028 259.777, 343.437 258.470 C 344.847 257.164, 346.052 255.062, 346.115 253.798 C 346.178 252.534, 346.134 250.600, 346.016 249.500 C 345.898 248.400, 345.105 246.314, 344.253 244.865 C 343.401 243.415, 341.181 241.503, 339.318 240.615 C 337.456 239.727, 334.208 239, 332.101 239 C 329.751 239, 327.261 239.794, 325.659 241.054 M 203.500 268.660 C 202.400 268.961, 200.713 269.905, 199.750 270.758 C 198.787 271.612, 198 272.996, 198 273.834 C 198 274.672, 199.642 276.862, 201.649 278.701 L 205.299 282.043 204.660 291.272 C 204.308 296.347, 203.356 302.960, 202.544 305.967 C 201.731 308.974, 200.232 312.574, 199.212 313.967 C 198.192 315.360, 195.815 317.311, 193.929 318.302 C 191.667 319.491, 189.197 319.946, 186.672 319.637 C 184.567 319.380, 181.914 318.344, 180.777 317.335 C 179.640 316.326, 177.793 313.475, 176.672 311 C 174.751 306.757, 174.598 306.643, 173.990 309 C 173.636 310.375, 173.767 312.752, 174.282 314.282 C 174.797 315.813, 176.698 318.193, 178.506 319.573 C 180.315 320.952, 183.300 322.512, 185.140 323.040 C 186.980 323.568, 189.982 323.719, 191.811 323.376 C 193.640 323.033, 197.406 321.191, 200.180 319.282 L 205.224 315.813 209.033 319.532 C 211.525 321.966, 214.552 323.695, 217.784 324.534 C 221.412 325.475, 223.987 325.547, 227.466 324.805 C 230.807 324.092, 233.326 322.674, 236.001 319.999 C 238.089 317.911, 240.113 314.763, 240.499 313.003 C 240.913 311.119, 240.767 309.367, 240.145 308.745 C 239.401 308.001, 238.554 308.671, 237.293 311.001 C 236.307 312.824, 234.299 315.707, 232.832 317.408 C 230.323 320.316, 229.747 320.500, 223.155 320.500 C 217.613 320.500, 215.556 320.063, 213.323 318.410 C 211.770 317.261, 209.825 315.011, 209 313.410 C 207.922 311.319, 207.500 307.262, 207.500 299 C 207.500 289.023, 207.795 286.948, 209.727 283.335 C 211.307 280.380, 212.942 278.844, 215.356 278.048 C 217.227 277.430, 219.572 276.026, 220.566 274.927 C 222.314 272.996, 222.305 272.861, 220.303 270.859 C 218.742 269.297, 216.668 268.706, 211.866 268.451 C 208.365 268.266, 204.600 268.360, 203.500 268.660 M 108.914 408.956 C 107.491 409.387, 105.167 410.499, 103.750 411.428 C 102.332 412.357, 100.459 414.621, 99.586 416.460 C 98.714 418.298, 98 421.580, 98 423.753 C 98 426.204, 98.854 428.959, 100.250 431.010 C 101.487 432.828, 103.772 435.257, 105.326 436.408 C 107.392 437.938, 109.583 438.486, 113.476 438.449 C 117.547 438.410, 119.773 437.754, 122.934 435.663 C 125.207 434.158, 127.803 431.384, 128.702 429.498 C 130.055 426.662, 130.139 425.407, 129.189 422.237 C 128.558 420.129, 126.676 416.344, 125.007 413.825 C 122.819 410.520, 121.107 409.071, 118.862 408.622 C 117.150 408.280, 114.794 408.039, 113.625 408.086 C 112.456 408.133, 110.336 408.525, 108.914 408.956 M 291 415.500 C 291 415.775, 291.225 416, 291.500 416 C 291.775 416, 292 415.775, 292 415.500 C 292 415.225, 291.775 415, 291.500 415 C 291.225 415, 291 415.225, 291 415.500 M 299 422 C 299 422.550, 299.450 423, 300 423 C 300.550 423, 301 422.550, 301 422 C 301 421.450, 300.550 421, 300 421 C 299.450 421, 299 421.450, 299 422 M 340.543 423.931 C 340.226 424.443, 340.425 425.144, 340.984 425.490 C 341.543 425.835, 342.457 425.835, 343.016 425.490 C 343.575 425.144, 343.774 424.443, 343.457 423.931 C 343.141 423.419, 342.485 423, 342 423 C 341.515 423, 340.859 423.419, 340.543 423.931 M 288 425 C 288 425.550, 288.450 426, 289 426 C 289.550 426, 290 425.550, 290 425 C 290 424.450, 289.550 424, 289 424 C 288.450 424, 288 424.450, 288 425 M 277 428 C 277 428.733, 277.300 429.033, 277.667 428.667 C 278.033 428.300, 278.033 427.700, 277.667 427.333 C 277.300 426.967, 277 427.267, 277 428 M 108 428.819 C 108 429.403, 108.480 430.179, 109.067 430.541 C 109.653 430.904, 110.339 430.994, 110.591 430.743 C 110.842 430.491, 110.362 429.716, 109.524 429.020 C 108.574 428.231, 108 428.155, 108 428.819 M 140 431 C 140 431.550, 140.450 432, 141 432 C 141.550 432, 142 431.550, 142 431 C 142 430.450, 141.550 430, 141 430 C 140.450 430, 140 430.450, 140 431 M 297 432 C 297 432.550, 297.450 433, 298 433 C 298.550 433, 299 432.550, 299 432 C 299 431.450, 298.550 431, 298 431 C 297.450 431, 297 431.450, 297 432 M 340.095 434.941 C 339.101 435.556, 339.073 435.927, 339.980 436.488 C 340.637 436.894, 341.624 436.776, 342.174 436.226 C 342.734 435.666, 342.784 434.985, 342.289 434.679 C 341.803 434.378, 340.815 434.496, 340.095 434.941 M 165 435.500 C 165 435.775, 165.225 436, 165.500 436 C 165.775 436, 166 435.775, 166 435.500 C 166 435.225, 165.775 435, 165.500 435 C 165.225 435, 165 435.225, 165 435.500 M 273 440 C 273 440.550, 273.450 441, 274 441 C 274.550 441, 275 440.550, 275 440 C 275 439.450, 274.550 439, 274 439 C 273.450 439, 273 439.450, 273 440 M 296.154 441.438 C 296.345 442.355, 296.950 443.082, 297.500 443.053 C 298.050 443.024, 298.500 442.475, 298.500 441.833 C 298.500 441.192, 297.895 440.465, 297.154 440.218 C 296.313 439.938, 295.939 440.395, 296.154 441.438 M 339 446 C 339 446.550, 339.450 447, 340 447 C 340.550 447, 341 446.550, 341 446 C 341 445.450, 340.550 445, 340 445 C 339.450 445, 339 445.450, 339 446 M 105.707 450.512 C 103.621 451.289, 100.622 452.845, 99.043 453.970 C 97.464 455.094, 95.233 457.953, 94.086 460.323 C 92.939 462.693, 92 465.697, 92 467 C 92 468.303, 92.893 471.198, 93.985 473.434 C 95.077 475.670, 97.571 478.583, 99.527 479.908 C 101.994 481.577, 104.411 482.295, 107.413 482.250 C 109.794 482.214, 113.263 481.415, 115.121 480.475 C 116.980 479.535, 119.555 477.806, 120.845 476.633 C 122.135 475.460, 123.822 473.285, 124.595 471.800 C 125.368 470.314, 126 467.569, 126 465.698 C 126 463.816, 124.995 460.819, 123.750 458.991 C 122.513 457.173, 119.925 454.434, 118 452.903 C 116.075 451.373, 113.375 449.891, 112 449.610 C 110.625 449.329, 107.793 449.735, 105.707 450.512 M 293 452 C 293 452.550, 293.450 453, 294 453 C 294.550 453, 295 452.550, 295 452 C 295 451.450, 294.550 451, 294 451 C 293.450 451, 293 451.450, 293 452 M 140 457 C 140 457.550, 140.450 458, 141 458 C 141.550 458, 142 457.550, 142 457 C 142 456.450, 141.550 456, 141 456 C 140.450 456, 140 456.450, 140 457 M 282 457 C 281.207 457.490, 280.890 458.223, 281.296 458.629 C 281.701 459.035, 282.558 458.842, 283.200 458.200 C 283.842 457.558, 284.159 456.825, 283.904 456.571 C 283.650 456.317, 282.793 456.510, 282 457 M 151 473.819 C 151 474.403, 151.480 475.179, 152.067 475.541 C 152.653 475.904, 153.339 475.994, 153.591 475.743 C 153.842 475.491, 153.362 474.716, 152.524 474.020 C 151.574 473.231, 151 473.155, 151 473.819 M 163 474 C 163 474.550, 163.450 475, 164 475 C 164.550 475, 165 474.550, 165 474 C 165 473.450, 164.550 473, 164 473 C 163.450 473, 163 473.450, 163 474 M 275 480.059 C 275 480.641, 275.450 480.840, 276 480.500 C 276.550 480.160, 277 479.684, 277 479.441 C 277 479.198, 276.550 479, 276 479 C 275.450 479, 275 479.477, 275 480.059 M 161 486 C 161 486.550, 161.450 487, 162 487 C 162.550 487, 163 486.550, 163 486 C 163 485.450, 162.550 485, 162 485 C 161.450 485, 161 485.450, 161 486 M 161.218 497.154 C 161.465 497.895, 162.192 498.500, 162.833 498.500 C 163.475 498.500, 164.024 498.050, 164.053 497.500 C 164.082 496.950, 163.355 496.345, 162.438 496.154 C 161.395 495.939, 160.938 496.313, 161.218 497.154 M 162.333 508.667 C 162.700 509.033, 163.300 509.033, 163.667 508.667 C 164.033 508.300, 163.733 508, 163 508 C 162.267 508, 161.967 508.300, 162.333 508.667" stroke="none" fill="#042c2b" fill-rule="evenodd"/><path d="M 148.687 66.793 C 147.794 67.780, 145.282 72.392, 143.105 77.043 C 140.928 81.695, 137.997 88.928, 136.592 93.119 C 135.188 97.309, 133.497 103.896, 132.835 107.756 C 131.897 113.225, 131.897 115.959, 132.834 120.138 C 133.496 123.087, 135.184 127.974, 136.587 130.997 C 137.989 134.020, 139.851 137.282, 140.723 138.247 C 141.596 139.211, 142.625 140, 143.010 140 C 143.396 140, 143.984 137.077, 144.317 133.506 C 144.651 129.934, 145.457 125.996, 146.108 124.756 C 146.760 123.515, 148.961 120.475, 151 118 C 153.039 115.525, 155.223 112.517, 155.854 111.316 C 156.484 110.114, 157 107.752, 157 106.066 C 157 104.380, 157.395 103, 157.878 103 C 158.360 103, 159.373 103.748, 160.128 104.663 C 160.882 105.577, 163.450 107.190, 165.833 108.246 C 168.216 109.303, 170.435 109.898, 170.764 109.570 C 171.092 109.241, 167.233 100.541, 162.189 90.236 C 157.144 79.931, 152.731 70.037, 152.383 68.250 C 152.035 66.463, 151.426 65, 151.030 65 C 150.634 65, 149.580 65.807, 148.687 66.793 M 383.752 90.892 C 379.512 101.333, 375.768 111.600, 375.431 113.708 C 374.867 117.231, 375.285 118.165, 380.590 125.231 L 386.362 132.921 390.757 128.870 C 393.174 126.642, 395.397 125.063, 395.696 125.363 C 395.995 125.662, 395.956 127.423, 395.608 129.277 C 395.260 131.130, 393.631 134.767, 391.988 137.358 C 390.345 139.949, 389 142.812, 389 143.719 C 389 144.626, 389.946 147.323, 391.102 149.712 C 392.269 152.121, 394.461 154.704, 396.025 155.513 C 398.735 156.914, 398.954 156.844, 401.587 153.736 C 403.094 151.956, 405.552 147.800, 407.050 144.500 C 408.547 141.200, 410.327 135.809, 411.005 132.521 C 411.712 129.089, 411.974 124.023, 411.619 120.631 C 411.279 117.380, 410.115 111.746, 409.031 108.110 C 407.947 104.475, 404.157 95.650, 400.609 88.500 C 397.060 81.350, 393.550 74.692, 392.809 73.705 C 391.609 72.108, 390.609 74.005, 383.752 90.892 M 257 80.958 C 255.075 82.102, 251.946 83.748, 250.047 84.617 C 247.219 85.910, 244.502 86.073, 235.047 85.514 C 223.756 84.846, 223.422 84.887, 220 87.369 C 218.075 88.765, 214.619 91.077, 212.319 92.508 C 209.184 94.459, 206.007 95.329, 199.609 95.989 C 194.917 96.473, 189.485 97.625, 187.538 98.549 C 185.590 99.473, 182.856 101.640, 181.463 103.365 C 180.069 105.089, 177.933 107.762, 176.715 109.305 C 174.968 111.517, 173.336 112.267, 168.993 112.854 C 165.963 113.264, 161.566 114.678, 159.221 115.996 C 156.686 117.421, 153.700 120.350, 151.860 123.218 C 149.531 126.847, 148.556 129.835, 147.926 135.272 C 147.465 139.247, 147.068 142.797, 147.044 143.161 C 147.020 143.524, 145.069 144.756, 142.710 145.898 C 140.350 147.041, 136.559 149.817, 134.285 152.069 C 132.011 154.320, 129.381 157.785, 128.440 159.768 C 127.499 161.752, 126.720 165.203, 126.711 167.437 C 126.701 169.672, 127.049 174.076, 127.484 177.226 C 128.203 182.435, 128.050 183.246, 125.786 186.226 C 124.417 188.026, 122.555 190.940, 121.648 192.700 C 120.742 194.461, 120 197.656, 120 199.802 C 120 202.210, 120.876 205.006, 122.287 207.102 C 123.729 209.245, 126.037 210.992, 128.537 211.833 C 131.055 212.681, 134.476 212.944, 137.921 212.555 C 140.902 212.218, 145.233 211.106, 147.543 210.084 C 149.854 209.062, 153.650 206.504, 155.978 204.401 L 160.211 200.576 167.295 204.451 C 173.181 207.669, 175.605 208.403, 181.620 208.789 C 188.164 209.209, 189.502 208.953, 195.542 206.127 C 199.218 204.407, 203.470 203, 204.991 203 C 206.513 203, 210.400 204.224, 213.629 205.721 C 218.558 208.006, 220.864 208.443, 228 208.449 C 234.097 208.455, 237.490 207.963, 240 206.711 C 241.925 205.750, 244.656 204.228, 246.070 203.328 C 248.599 201.718, 248.712 201.765, 253.231 206.284 C 256.253 209.305, 259.297 211.272, 262.136 212.037 C 264.508 212.675, 268.486 212.928, 270.975 212.598 C 273.465 212.267, 277.910 211.082, 280.853 209.964 C 283.797 208.845, 287.019 208.189, 288.014 208.505 C 289.009 208.820, 291.379 210.977, 293.279 213.296 C 295.180 215.615, 298.882 218.586, 301.507 219.896 C 305.849 222.065, 307.085 222.222, 315.221 221.645 C 322.131 221.154, 324.070 221.293, 323.753 222.255 C 323.527 222.940, 322.253 224.056, 320.921 224.735 C 319.589 225.415, 315.347 225.977, 311.493 225.985 C 307.640 225.993, 302.976 225.567, 301.129 225.037 C 299.283 224.507, 295.375 221.807, 292.446 219.037 C 289.516 216.267, 286.840 214, 286.498 214 C 286.156 214, 283.642 214.731, 280.911 215.624 C 277.348 216.789, 273.600 217.125, 267.640 216.812 C 261.766 216.504, 258.135 215.751, 255.240 214.242 C 252.989 213.069, 250.241 211.543, 249.134 210.852 C 247.455 209.803, 245.945 209.981, 240.013 211.926 C 234.305 213.797, 231.483 214.160, 225.701 213.763 C 220.879 213.433, 216.518 212.379, 212.500 210.572 C 209.200 209.089, 205.600 208.086, 204.500 208.343 C 203.400 208.601, 199.800 209.969, 196.500 211.382 C 192.200 213.224, 188.705 213.959, 184.167 213.976 C 179.407 213.994, 175.952 213.247, 170.265 210.969 L 162.696 207.939 159.098 210.423 C 157.119 211.789, 153.250 213.929, 150.500 215.178 C 146.445 217.021, 143.421 217.500, 134.501 217.716 C 125.789 217.926, 122.982 218.356, 121.001 219.785 C 119.625 220.778, 117.225 224.119, 115.666 227.211 C 114.107 230.302, 112.586 234.665, 112.286 236.906 C 111.944 239.457, 112.208 241.545, 112.992 242.490 C 113.681 243.321, 114.619 244, 115.076 244 C 115.533 244, 119.190 241.033, 123.203 237.408 C 127.216 233.782, 132.889 229.687, 135.809 228.307 C 138.728 226.928, 143.765 225.560, 147.002 225.266 C 151.075 224.897, 154.474 225.252, 158.047 226.420 C 160.885 227.349, 166.463 230.559, 170.443 233.554 C 174.422 236.549, 178.131 239, 178.684 239 C 179.237 239, 180.469 238.139, 181.421 237.088 C 182.373 236.036, 186.830 233.327, 191.326 231.068 C 195.822 228.810, 202.200 226.468, 205.500 225.864 C 208.958 225.231, 215.737 225.017, 221.500 225.359 C 227 225.685, 233.860 226.596, 236.744 227.384 C 239.628 228.171, 244.128 229.843, 246.744 231.098 C 249.360 232.353, 254.214 236.107, 257.532 239.440 C 261.742 243.670, 264.718 247.916, 267.385 253.500 C 269.487 257.900, 272.121 265.100, 273.238 269.500 C 274.944 276.218, 275.177 279.422, 274.693 289.500 C 274.376 296.100, 273.360 304.425, 272.435 308 C 271.510 311.575, 269.607 316.975, 268.206 320 C 266.618 323.430, 262.995 328.169, 258.580 332.592 C 253.758 337.422, 249.427 340.668, 245 342.767 C 241.425 344.462, 234.767 346.603, 230.204 347.525 C 223.780 348.822, 218.138 349.109, 205.204 348.796 C 189.201 348.409, 188.159 348.257, 180.368 345.169 C 175.896 343.396, 169.098 339.742, 165.262 337.048 C 161.131 334.147, 156.997 330.201, 155.122 327.370 C 153.381 324.741, 151.237 320.320, 150.357 317.545 C 149.422 314.592, 148.555 307.316, 148.267 300 C 147.996 293.125, 147.368 286.995, 146.871 286.377 C 146.373 285.760, 143.386 284.956, 140.233 284.592 C 136.970 284.215, 132.363 282.759, 129.539 281.214 C 126.811 279.722, 123.117 276.576, 121.329 274.225 C 119.542 271.873, 117.615 268.273, 117.046 266.225 C 116.477 264.176, 116.002 260.475, 115.990 258 C 115.979 255.525, 115.538 252.825, 115.010 252 C 114.158 250.668, 113.739 250.671, 111.275 252.026 C 109.749 252.866, 107.044 255.720, 105.264 258.369 C 103.484 261.018, 101.522 265.056, 100.903 267.343 C 100.284 269.636, 100.062 273.742, 100.408 276.500 C 100.754 279.250, 101.298 282.918, 101.618 284.651 C 102.131 287.437, 101.552 288.505, 96.628 293.861 C 93.565 297.193, 90.858 300.950, 90.614 302.210 C 90.369 303.469, 89.690 311.851, 89.103 320.836 C 88.218 334.408, 88.274 337.622, 89.433 339.836 C 90.201 341.301, 92.443 344.051, 94.415 345.946 C 97.131 348.557, 98 350.206, 98 352.746 C 98 354.590, 97.364 357.330, 96.586 358.834 C 95.808 360.338, 94.863 363.212, 94.487 365.219 C 94.089 367.340, 94.313 370.418, 95.022 372.566 C 95.692 374.598, 97.766 377.949, 99.629 380.011 C 101.492 382.074, 105.150 384.669, 107.758 385.778 C 110.366 386.887, 115.052 388.315, 118.171 388.952 C 122.227 389.779, 125.075 391.166, 128.171 393.820 C 130.552 395.860, 133.283 398.138, 134.241 398.880 C 135.198 399.622, 139.167 400.579, 143.061 401.007 C 148.359 401.588, 150.756 402.362, 152.584 404.079 C 154.394 405.779, 156.543 406.484, 160.872 406.797 C 165.946 407.164, 166.992 406.925, 168.803 404.981 C 169.950 403.750, 171.523 402.987, 172.299 403.285 C 173.075 403.582, 173.995 405.553, 174.344 407.663 C 174.693 409.773, 174.983 418.324, 174.989 426.665 L 175 441.830 179.750 445.289 C 182.363 447.192, 186.403 449.709, 188.728 450.884 C 191.054 452.058, 196.114 453.683, 199.974 454.495 C 203.834 455.306, 210.256 457.665, 214.246 459.735 L 221.500 463.500 239.677 463.500 C 256.588 463.500, 258.051 463.354, 260.677 461.397 C 262.766 459.841, 263.656 458.151, 264.101 454.897 C 264.431 452.479, 265.444 448.827, 266.351 446.782 C 267.258 444.737, 268.003 441.587, 268.007 439.782 C 268.010 437.977, 268.857 435.220, 269.888 433.656 C 270.920 432.092, 271.546 429.981, 271.281 428.966 C 271.015 427.950, 271.969 424.646, 273.399 421.622 C 274.830 418.598, 276 415.716, 276 415.217 C 276 414.718, 275.100 413.495, 274 412.500 C 272.900 411.505, 272 409.903, 272 408.942 C 272 407.361, 273.691 407.152, 289.750 406.747 C 305.527 406.350, 308.111 406.040, 313 403.962 C 317.701 401.963, 320.242 401.614, 330.500 401.562 C 341.268 401.506, 342.897 401.735, 346.367 403.785 C 348.493 405.042, 352.098 406.326, 354.377 406.638 C 356.656 406.951, 360.396 406.701, 362.687 406.084 C 365.165 405.417, 367.897 403.723, 369.427 401.904 C 370.842 400.223, 372 397.826, 372 396.578 C 372 395.331, 372.788 393.607, 373.750 392.748 C 374.712 391.889, 377.517 390.649, 379.983 389.992 C 382.933 389.206, 385.924 387.339, 388.733 384.530 C 392.914 380.349, 393 380.127, 393 373.503 C 393 367.756, 393.471 365.921, 396.143 361.250 C 398.576 356.997, 399.286 354.565, 399.286 350.478 C 399.286 346.826, 398.625 344.129, 397.143 341.731 C 395.964 339.824, 395 337.389, 395 336.320 C 395 335.250, 396.960 331.703, 399.356 328.438 C 401.752 325.172, 404.227 320.970, 404.856 319.101 C 405.485 317.231, 406 313.811, 406 311.500 C 406 308.938, 405.024 305.462, 403.500 302.596 C 402.125 300.010, 401 296.988, 401 295.880 C 401 294.773, 402.111 292.410, 403.469 290.629 C 404.827 288.849, 406.627 285.744, 407.469 283.728 C 408.311 281.713, 409 278.010, 409 275.500 C 409 272.990, 408.331 269.335, 407.514 267.378 C 406.696 265.422, 404.896 262.477, 403.514 260.834 C 402.131 259.191, 401 256.673, 401 255.239 C 401 253.805, 401.943 250.683, 403.096 248.302 C 404.418 245.570, 405.177 242.077, 405.152 238.836 C 405.121 234.892, 404.403 232.558, 402.056 228.783 C 400.375 226.079, 399 222.995, 399 221.930 C 399 220.864, 399.884 218.344, 400.964 216.329 C 402.044 214.313, 403.208 210.795, 403.551 208.511 C 403.893 206.227, 403.677 202.513, 403.069 200.257 C 402.265 197.271, 400.612 195.024, 396.983 191.985 C 394.242 189.691, 392 187.322, 392 186.721 C 392 186.120, 393.012 184.551, 394.250 183.234 C 396.187 181.172, 396.500 179.752, 396.500 173.022 L 396.500 165.205 390.801 159.230 C 387.667 155.944, 384.882 152.186, 384.613 150.878 C 384.344 149.570, 383.923 146.651, 383.676 144.392 C 383.430 142.132, 382.442 138.627, 381.482 136.602 C 380.521 134.578, 377.824 130.796, 375.488 128.198 C 373.153 125.601, 369.226 122.468, 366.762 121.238 C 364.297 120.007, 360.937 119, 359.295 119 C 357.653 119, 355.597 118.213, 354.726 117.250 C 353.856 116.287, 352.260 113.475, 351.181 111 C 350.102 108.525, 348.257 105.492, 347.081 104.261 C 345.904 103.029, 343.527 101.289, 341.796 100.395 C 340.066 99.500, 334.688 98.440, 329.844 98.039 C 321.134 97.317, 320.985 97.259, 316.124 92.713 C 312.618 89.433, 309.564 87.639, 305.459 86.445 C 301.838 85.392, 298.187 84.997, 295.604 85.379 C 293.347 85.712, 290.081 86.258, 288.346 86.592 C 285.961 87.051, 283.170 86.286, 276.899 83.454 C 272.338 81.395, 266.782 79.523, 264.553 79.294 C 261.669 78.998, 259.491 79.478, 257 80.958 M 398.020 143.476 C 397.231 144.426, 397.155 145, 397.819 145 C 398.403 145, 399.179 144.520, 399.541 143.933 C 399.904 143.347, 399.994 142.661, 399.743 142.409 C 399.491 142.158, 398.716 142.638, 398.020 143.476 M 206.645 231.584 C 203.425 232.364, 197.584 234.686, 193.666 236.745 C 189.051 239.170, 183.883 243.132, 178.992 247.994 C 174.840 252.122, 169.232 258.875, 166.529 263 C 163.826 267.125, 160.139 273.994, 158.335 278.263 C 156.531 282.533, 154.316 289.676, 153.412 294.136 C 152.287 299.691, 151.986 304.160, 152.458 308.329 C 152.836 311.676, 153.767 315.901, 154.526 317.718 C 155.286 319.535, 158.290 323.561, 161.203 326.665 C 164.117 329.769, 169.181 334.055, 172.458 336.189 C 175.736 338.323, 181.586 341.066, 185.458 342.285 C 191.518 344.191, 194.731 344.497, 208.500 344.480 C 218.018 344.469, 226.931 343.924, 230.500 343.136 C 233.800 342.407, 239.400 340.399, 242.945 338.672 C 246.490 336.946, 251.929 333.182, 255.033 330.309 C 258.137 327.435, 262.059 322.478, 263.750 319.292 C 265.440 316.106, 267.638 310.800, 268.634 307.500 C 269.969 303.077, 270.429 298.347, 270.385 289.500 C 270.346 281.789, 269.716 274.998, 268.620 270.500 C 267.682 266.650, 265.812 261.090, 264.464 258.144 C 262.901 254.728, 259.385 250.192, 254.757 245.622 C 250.363 241.284, 245.263 237.383, 241.829 235.736 C 238.710 234.240, 233.553 232.337, 230.369 231.508 C 227.185 230.679, 221.862 230.037, 218.540 230.083 C 215.218 230.129, 209.865 230.804, 206.645 231.584 M 306.500 232.402 C 304.300 233.100, 300.700 234.608, 298.500 235.753 C 296.300 236.898, 292.635 239.785, 290.355 242.167 C 288.075 244.550, 285.286 248.347, 284.158 250.605 C 283.030 252.863, 281.814 256.924, 281.455 259.630 C 281.096 262.337, 281.286 266.349, 281.878 268.546 C 282.470 270.744, 285.116 275.226, 287.760 278.507 C 291.195 282.772, 294.363 285.403, 298.870 287.736 C 304.324 290.559, 306.174 291, 312.577 291 C 317.463 291, 321.701 290.345, 325.048 289.074 C 327.837 288.014, 331.644 285.984, 333.508 284.562 C 335.372 283.140, 340.564 277.887, 345.046 272.888 C 351.345 265.863, 353.072 263.312, 352.655 261.650 C 352.358 260.467, 351.465 256.955, 350.670 253.844 C 349.875 250.733, 348.408 246.807, 347.411 245.119 C 346.415 243.432, 343.729 240.708, 341.443 239.067 C 339.158 237.425, 333.881 234.939, 329.718 233.541 C 324.856 231.909, 320.063 231.024, 316.324 231.067 C 313.121 231.104, 308.700 231.705, 306.500 232.402 M 153.514 234.168 C 151.998 235.360, 150.116 237.871, 149.333 239.746 C 148.052 242.810, 148.090 243.470, 149.704 246.231 C 150.692 247.922, 153.126 250.149, 155.113 251.180 C 157.860 252.605, 159.333 252.824, 161.252 252.094 C 162.641 251.566, 165.403 249.707, 167.389 247.963 C 169.538 246.077, 171 243.877, 171 242.531 C 171 241.287, 170.024 239.030, 168.832 237.514 C 167.640 235.998, 165.179 234.137, 163.364 233.379 C 161.549 232.620, 159.210 232, 158.167 232 C 157.123 232, 155.030 232.976, 153.514 234.168 M 325.659 241.054 C 324.223 242.183, 322.543 244.792, 321.926 246.852 C 321.020 249.876, 321.105 251.316, 322.368 254.339 C 323.567 257.207, 325.008 258.558, 328.533 260.118 C 331.892 261.603, 334.180 261.976, 337.005 261.499 C 339.133 261.140, 342.028 259.777, 343.437 258.470 C 344.847 257.164, 346.052 255.062, 346.115 253.798 C 346.178 252.534, 346.134 250.600, 346.016 249.500 C 345.898 248.400, 345.105 246.314, 344.253 244.865 C 343.401 243.415, 341.181 241.503, 339.318 240.615 C 337.456 239.727, 334.208 239, 332.101 239 C 329.751 239, 327.261 239.794, 325.659 241.054 M 203.500 268.660 C 202.400 268.961, 200.713 269.905, 199.750 270.758 C 198.787 271.612, 198 272.996, 198 273.834 C 198 274.672, 199.642 276.862, 201.649 278.701 L 205.299 282.043 204.660 291.272 C 204.308 296.347, 203.356 302.960, 202.544 305.967 C 201.731 308.974, 200.232 312.574, 199.212 313.967 C 198.192 315.360, 195.815 317.311, 193.929 318.302 C 191.667 319.491, 189.197 319.946, 186.672 319.637 C 184.567 319.380, 181.914 318.344, 180.777 317.335 C 179.640 316.326, 177.793 313.475, 176.672 311 C 174.751 306.757, 174.598 306.643, 173.990 309 C 173.636 310.375, 173.767 312.752, 174.282 314.282 C 174.797 315.813, 176.698 318.193, 178.506 319.573 C 180.315 320.952, 183.300 322.512, 185.140 323.040 C 186.980 323.568, 189.982 323.719, 191.811 323.376 C 193.640 323.033, 197.406 321.191, 200.180 319.282 L 205.224 315.813 209.033 319.532 C 211.525 321.966, 214.552 323.695, 217.784 324.534 C 221.412 325.475, 223.987 325.547, 227.466 324.805 C 230.807 324.092, 233.326 322.674, 236.001 319.999 C 238.089 317.911, 240.113 314.763, 240.499 313.003 C 240.913 311.119, 240.767 309.367, 240.145 308.745 C 239.401 308.001, 238.554 308.671, 237.293 311.001 C 236.307 312.824, 234.299 315.707, 232.832 317.408 C 230.323 320.316, 229.747 320.500, 223.155 320.500 C 217.613 320.500, 215.556 320.063, 213.323 318.410 C 211.770 317.261, 209.825 315.011, 209 313.410 C 207.922 311.319, 207.500 307.262, 207.500 299 C 207.500 289.023, 207.795 286.948, 209.727 283.335 C 211.307 280.380, 212.942 278.844, 215.356 278.048 C 217.227 277.430, 219.572 276.026, 220.566 274.927 C 222.314 272.996, 222.305 272.861, 220.303 270.859 C 218.742 269.297, 216.668 268.706, 211.866 268.451 C 208.365 268.266, 204.600 268.360, 203.500 268.660 M 108.914 408.956 C 107.491 409.387, 105.167 410.499, 103.750 411.428 C 102.332 412.357, 100.459 414.621, 99.586 416.460 C 98.714 418.298, 98 421.580, 98 423.753 C 98 426.204, 98.854 428.959, 100.250 431.010 C 101.487 432.828, 103.772 435.257, 105.326 436.408 C 107.392 437.938, 109.583 438.486, 113.476 438.449 C 117.547 438.410, 119.773 437.754, 122.934 435.663 C 125.207 434.158, 127.803 431.384, 128.702 429.498 C 130.055 426.662, 130.139 425.407, 129.189 422.237 C 128.558 420.129, 126.676 416.344, 125.007 413.825 C 122.819 410.520, 121.107 409.071, 118.862 408.622 C 117.150 408.280, 114.794 408.039, 113.625 408.086 C 112.456 408.133, 110.336 408.525, 108.914 408.956 M 291 415.500 C 291 415.775, 291.225 416, 291.500 416 C 291.775 416, 292 415.775, 292 415.500 C 292 415.225, 291.775 415, 291.500 415 C 291.225 415, 291 415.225, 291 415.500 M 299 422 C 299 422.550, 299.450 423, 300 423 C 300.550 423, 301 422.550, 301 422 C 301 421.450, 300.550 421, 300 421 C 299.450 421, 299 421.450, 299 422 M 340.543 423.931 C 340.226 424.443, 340.425 425.144, 340.984 425.490 C 341.543 425.835, 342.457 425.835, 343.016 425.490 C 343.575 425.144, 343.774 424.443, 343.457 423.931 C 343.141 423.419, 342.485 423, 342 423 C 341.515 423, 340.859 423.419, 340.543 423.931 M 288 425 C 288 425.550, 288.450 426, 289 426 C 289.550 426, 290 425.550, 290 425 C 290 424.450, 289.550 424, 289 424 C 288.450 424, 288 424.450, 288 425 M 277 428 C 277 428.733, 277.300 429.033, 277.667 428.667 C 278.033 428.300, 278.033 427.700, 277.667 427.333 C 277.300 426.967, 277 427.267, 277 428 M 108 428.819 C 108 429.403, 108.480 430.179, 109.067 430.541 C 109.653 430.904, 110.339 430.994, 110.591 430.743 C 110.842 430.491, 110.362 429.716, 109.524 429.020 C 108.574 428.231, 108 428.155, 108 428.819 M 140 431 C 140 431.550, 140.450 432, 141 432 C 141.550 432, 142 431.550, 142 431 C 142 430.450, 141.550 430, 141 430 C 140.450 430, 140 430.450, 140 431 M 297 432 C 297 432.550, 297.450 433, 298 433 C 298.550 433, 299 432.550, 299 432 C 299 431.450, 298.550 431, 298 431 C 297.450 431, 297 431.450, 297 432 M 340.095 434.941 C 339.101 435.556, 339.073 435.927, 339.980 436.488 C 340.637 436.894, 341.624 436.776, 342.174 436.226 C 342.734 435.666, 342.784 434.985, 342.289 434.679 C 341.803 434.378, 340.815 434.496, 340.095 434.941 M 165 435.500 C 165 435.775, 165.225 436, 165.500 436 C 165.775 436, 166 435.775, 166 435.500 C 166 435.225, 165.775 435, 165.500 435 C 165.225 435, 165 435.225, 165 435.500 M 273 440 C 273 440.550, 273.450 441, 274 441 C 274.550 441, 275 440.550, 275 440 C 275 439.450, 274.550 439, 274 439 C 273.450 439, 273 439.450, 273 440 M 296.154 441.438 C 296.345 442.355, 296.950 443.082, 297.500 443.053 C 298.050 443.024, 298.500 442.475, 298.500 441.833 C 298.500 441.192, 297.895 440.465, 297.154 440.218 C 296.313 439.938, 295.939 440.395, 296.154 441.438 M 339 446 C 339 446.550, 339.450 447, 340 447 C 340.550 447, 341 446.550, 341 446 C 341 445.450, 340.550 445, 340 445 C 339.450 445, 339 445.450, 339 446 M 105.707 450.512 C 103.621 451.289, 100.622 452.845, 99.043 453.970 C 97.464 455.094, 95.233 457.953, 94.086 460.323 C 92.939 462.693, 92 465.697, 92 467 C 92 468.303, 92.893 471.198, 93.985 473.434 C 95.077 475.670, 97.571 478.583, 99.527 479.908 C 101.994 481.577, 104.411 482.295, 107.413 482.250 C 109.794 482.214, 113.263 481.415, 115.121 480.475 C 116.980 479.535, 119.555 477.806, 120.845 476.633 C 122.135 475.460, 123.822 473.285, 124.595 471.800 C 125.368 470.314, 126 467.569, 126 465.698 C 126 463.816, 124.995 460.819, 123.750 458.991 C 122.513 457.173, 119.925 454.434, 118 452.903 C 116.075 451.373, 113.375 449.891, 112 449.610 C 110.625 449.329, 107.793 449.735, 105.707 450.512 M 293 452 C 293 452.550, 293.450 453, 294 453 C 294.550 453, 295 452.550, 295 452 C 295 451.450, 294.550 451, 294 451 C 293.450 451, 293 451.450, 293 452 M 140 457 C 140 457.550, 140.450 458, 141 458 C 141.550 458, 142 457.550, 142 457 C 142 456.450, 141.550 456, 141 456 C 140.450 456, 140 456.450, 140 457 M 282 457 C 281.207 457.490, 280.890 458.223, 281.296 458.629 C 281.701 459.035, 282.558 458.842, 283.200 458.200 C 283.842 457.558, 284.159 456.825, 283.904 456.571 C 283.650 456.317, 282.793 456.510, 282 457 M 151 473.819 C 151 474.403, 151.480 475.179, 152.067 475.541 C 152.653 475.904, 153.339 475.994, 153.591 475.743 C 153.842 475.491, 153.362 474.716, 152.524 474.020 C 151.574 473.231, 151 473.155, 151 473.819 M 163 474 C 163 474.550, 163.450 475, 164 475 C 164.550 475, 165 474.550, 165 474 C 165 473.450, 164.550 473, 164 473 C 163.450 473, 163 473.450, 163 474 M 275 480.059 C 275 480.641, 275.450 480.840, 276 480.500 C 276.550 480.160, 277 479.684, 277 479.441 C 277 479.198, 276.550 479, 276 479 C 275.450 479, 275 479.477, 275 480.059 M 336.840 485.887 C 333.814 487.805, 331.569 490.258, 330.144 493.202 C 328.965 495.638, 328 498.675, 328 499.950 C 328 501.225, 328.521 504.008, 329.158 506.134 L 330.317 510 345.028 510 L 359.740 510 361.014 505.451 C 362.014 501.880, 362.032 500.050, 361.099 496.935 C 360.445 494.752, 358.513 491.376, 356.806 489.432 C 355.100 487.488, 352.442 485.246, 350.901 484.449 C 349.360 483.652, 346.590 483, 344.745 483 C 342.766 483, 339.526 484.183, 336.840 485.887 M 161 486 C 161 486.550, 161.450 487, 162 487 C 162.550 487, 163 486.550, 163 486 C 163 485.450, 162.550 485, 162 485 C 161.450 485, 161 485.450, 161 486 M 299.994 487.934 C 298.615 488.354, 296.094 489.417, 294.392 490.297 C 292.690 491.178, 290.507 493.103, 289.542 494.576 C 288.577 496.049, 287.385 498.656, 286.894 500.370 C 286.403 502.083, 286.275 504.951, 286.612 506.743 L 287.223 510 303.050 510 L 318.877 510 319.537 505.599 C 319.900 503.178, 319.869 500.141, 319.468 498.849 C 319.066 497.557, 317.829 495.210, 316.718 493.633 C 315.607 492.057, 312.853 489.929, 310.599 488.905 C 308.345 487.882, 305.600 487.073, 304.500 487.108 C 303.400 487.143, 301.372 487.515, 299.994 487.934 M 161.218 497.154 C 161.465 497.895, 162.192 498.500, 162.833 498.500 C 163.475 498.500, 164.024 498.050, 164.053 497.500 C 164.082 496.950, 163.355 496.345, 162.438 496.154 C 161.395 495.939, 160.938 496.313, 161.218 497.154 M 162.333 508.667 C 162.700 509.033, 163.300 509.033, 163.667 508.667 C 164.033 508.300, 163.733 508, 163 508 C 162.267 508, 161.967 508.300, 162.333 508.667" stroke="none" fill="#f9d226" fill-rule="evenodd"/></svg>
