<svg xmlns="http://www.w3.org/2000/svg" xmlns:xlink="http://www.w3.org/1999/xlink" width="157" height="20" role="img" aria-label="OpenIntegrations Add-on">
  <title>OpenIntegrations: Add-on</title>

  <clipPath id="r">
    <rect width="157" height="20" rx="3" fill="#fff"/>
  </clipPath>

  <g clip-path="url(#r)">
    <rect width="65" height="20" fill="#F15F2C"/>
    <rect x="65" width="105" height="20" fill="#555"/>
    <rect width="157" height="20" fill="url(#s)"/>
  </g>

  <g fill="#fff" text-anchor="middle" font-family="Verdana,Geneva,DejaVu Sans,sans-serif" text-rendering="geometricPrecision" font-size="110">
    
    <!-- Здесь вставляем твою SVG-фигуру -->
    <g transform="translate(2, 0)" width="10" height="10">
      <style type="text/css">
        .st0{fill:#FFFFFF;}
      </style>
      <path class="st0" d="M44.3,164.5L76.9,51.6H127l-10.1,35c-0.1,0.2-0.2,0.4-0.3,0.6L90,179.6h24.8c-10.4,25.9-18.5,46.2-24.3,60.9
        c-45.8-0.5-58.6-33.3-47.4-72.1 M90.7,240.6l60.4-86.9h-25.6l22.3-55.7c38.2,4,56.2,34.1,45.6,70.5
        c-11.3,39.1-57.1,72.1-101.7,72.1C91.3,240.6,91,240.6,90.7,240.6z"
        transform="scale(0.07)" />
    </g>

    <!-- Текст -->
    <text aria-hidden="true" x="400" y="150" fill="#010101" fill-opacity=".3" transform="scale(.1)" textLength="390">Boosty</text>
    <text x="400" y="140" transform="scale(.1)" fill="#fff" textLength="390">Boosty</text>
    <text aria-hidden="true" x="1100" y="150" fill="#010101" fill-opacity=".3" transform="scale(.1)" textLength="800">bayselonarrend</text>
    <text x="1100" y="140" transform="scale(.1)" fill="#fff" textLength="800">bayselonarrend</text>
  </g>
</svg>