<svg width="184" height="28" viewBox="0 0 184 28" fill="none" xmlns="http://www.w3.org/2000/svg">
<path d="M21.3429 0L6.82136 0C3.05496 0 0 3.03715 0 6.78157L0 21.2184C0 24.9629 3.05496 28 6.82136 28L21.3429 28C25.1093 28 28.1643 24.9629 28.1643 21.2184L28.1643 6.78157C28.1643 3.03715 25.1093 0 21.3429 0ZM19.7945 10.318C18.5809 10.3596 17.9531 10.734 17.6602 11.899C17.2417 13.7296 16.7395 15.5602 16.321 17.5988C15.6096 20.8856 13.7264 22.7578 9.58338 23.3819C9.12304 23.4651 7.53279 23.7147 7.15615 23.7147C9.24859 22.4666 10.2948 20.5527 10.8807 18.3061C11.341 16.4755 11.8014 14.6033 12.3036 12.7727C12.8057 10.7756 12.5965 10.4428 10.4622 10.3596C10.2948 10.3596 10.1274 10.318 9.75078 10.2764C12.0106 8.19614 14.1449 6.28232 16.321 4.32689C17.9113 6.32392 19.4179 8.23774 21.05 10.2764C20.4222 10.2764 20.0874 10.318 19.7945 10.318Z" fill="#3B5998"/>
<path d="M38.799 22.0373L46.5257 11.2488V22.0373H49.976V5.93907H46.4285L38.9205 16.3414V5.93907H35.4702V22.0373H38.799Z" fill="#3B5998"/>
<path d="M67.7501 22.0373V5.93907H64.2755V12.2625H56.6218V5.93907H53.1715V22.0373H56.6218V15.2794H64.2755V22.0373H67.7501Z" fill="#3B5998"/>
<path d="M81.4405 22.0373V20.4202C86.3487 20.0099 89.2644 17.7171 89.2644 14.0002C89.2644 10.2834 86.3487 8.0147 81.4405 7.58027V5.93907H77.9903V7.58027C73.0821 8.0147 70.1664 10.3075 70.1664 14.0002C70.1664 17.7171 73.0821 20.0099 77.9903 20.4202V22.0373H81.4405ZM85.7412 14.0002C85.7412 15.8345 84.2348 17.0413 81.4405 17.355V10.6454C84.2348 10.9833 85.7412 12.166 85.7412 14.0002ZM73.7139 14.0002C73.7139 12.1901 75.196 10.9833 77.9903 10.6454V17.355C75.196 17.0171 73.7139 15.8345 73.7139 14.0002Z" fill="#3B5998"/>
<path d="M99.4079 22.3269C104.316 22.3269 107.888 18.8514 107.888 14.0002C107.888 9.14906 104.316 5.67358 99.4079 5.67358C94.5241 5.67358 90.9523 9.14906 90.9523 14.0002C90.9523 18.8514 94.5241 22.3269 99.4079 22.3269ZM99.4079 19.2859C96.4193 19.2859 94.4998 16.993 94.4998 14.0002C94.4998 10.9833 96.4193 8.71462 99.4079 8.71462C102.397 8.71462 104.34 10.9833 104.34 14.0002C104.34 16.993 102.397 19.2859 99.4079 19.2859Z" fill="#3B5998"/>
<path d="M118.157 22.3269C121.729 22.3269 123.77 20.3719 124.936 18.3687L121.972 16.9447C121.292 18.2722 119.834 19.2859 118.157 19.2859C115.217 19.2859 113.079 17.0413 113.079 14.0002C113.079 10.9592 115.217 8.71462 118.157 8.71462C119.834 8.71462 121.292 9.75244 121.972 11.0557L124.936 9.60763C123.794 7.6044 121.729 5.67358 118.157 5.67358C113.298 5.67358 109.532 9.05251 109.532 14.0002C109.532 18.948 113.298 22.3269 118.157 22.3269Z" fill="#3B5998"/>
<path d="M134.206 22.0373V8.95597H138.92V5.93907H125.994V8.95597H130.732V22.0373H134.206Z" fill="#3B5998"/>
<path d="M154.679 22.0373L148.435 5.93907H144.11L137.841 22.0373H141.777L142.798 19.31H149.747L150.743 22.0373H154.679ZM148.799 16.2931H143.745L146.272 9.36627L148.799 16.2931Z" fill="#3B5998"/>
<path d="M159.626 22.0373V16.3172H163.757C167.256 16.3172 169.199 13.9278 169.199 11.1281C169.199 8.30432 167.28 5.93907 163.757 5.93907H156.176V22.0373H159.626ZM163.295 13.3003H159.626V8.95597H163.295C164.656 8.95597 165.676 9.77657 165.676 11.1281C165.676 12.4556 164.656 13.3003 163.295 13.3003Z" fill="#3B5998"/>
<path d="M178.555 22.0373V8.95597H183.268V5.93907H170.342V8.95597H175.08V22.0373H178.555Z" fill="#3B5998"/>
</svg>
