<svg xmlns="http://www.w3.org/2000/svg" width="256" height="256" viewBox="0 0 256 256" version="1.1"><path d="M 72.500 27.072 C 48.883 28.460, 26.615 35.587, 7.250 47.957 L 1 51.949 1 62.097 L 1 72.244 3.250 70.637 C 27.565 53.268, 51.393 43.770, 76.225 41.551 C 82.649 40.976, 82.968 41.051, 83.370 43.225 C 83.602 44.476, 84.315 48.358, 84.956 51.851 C 85.596 55.343, 87.628 62.634, 89.470 68.053 L 92.820 77.904 89.160 79.096 C 78.215 82.659, 57.008 94.416, 43.625 104.338 L 35.603 110.286 31.551 105.717 C 29.323 103.204, 21.650 94.772, 14.500 86.979 L 1.500 72.809 1.219 84.967 L 0.937 97.124 4.219 100.978 C 6.023 103.097, 11.064 108.717, 15.420 113.467 L 23.340 122.103 17.296 128.302 C 13.972 131.711, 8.946 137.833, 6.126 141.907 L 1 149.314 1.013 164.407 L 1.025 179.500 4.008 173.619 C 9.405 162.976, 26.703 138.791, 32.126 134.306 C 33.320 133.319, 37.070 136.909, 53.771 155.021 L 73.972 176.930 56.737 192.869 L 39.503 208.808 35.001 204.626 C 29.594 199.601, 19.309 192.697, 8.750 187.005 L 1 182.826 1 190.347 L 1 197.869 8.750 203.234 C 21.673 212.179, 28.889 217.471, 28.946 218.043 C 28.976 218.341, 24.050 223.047, 18 228.500 C 11.950 233.953, 7 238.706, 7 239.062 C 7 240.021, 17.733 250, 18.764 250 C 19.251 250, 24.107 245.950, 29.555 241 C 35.004 236.050, 39.803 232, 40.219 232 C 41.243 232, 49.462 243.253, 53.183 249.750 L 56.191 255 63.595 255 C 67.668 255, 71 254.764, 71 254.475 C 71 252.069, 59.260 231.792, 53.867 224.884 L 51.044 221.268 67.981 205.634 C 77.297 197.035, 85.115 190, 85.355 190 C 85.595 190, 93.343 198.212, 102.574 208.250 C 111.804 218.287, 120.890 228.134, 122.765 230.131 L 126.174 233.762 117.732 240.060 C 113.089 243.523, 105.738 248.296, 101.395 250.666 L 93.500 254.975 109.151 254.987 L 124.802 255 131.052 250.302 L 137.302 245.604 141.408 250.337 L 145.514 255.070 156.898 254.785 L 168.283 254.500 158.719 244.027 L 149.156 233.555 152.846 229.527 C 161.912 219.633, 175.680 199.516, 182.099 186.783 L 185.989 179.066 190.244 180.889 C 195.372 183.086, 210.856 188.377, 216.750 189.946 C 221.718 191.268, 221.788 191.623, 219.483 203.776 C 216.610 218.922, 210.309 234.489, 201.605 247.944 L 196.993 255.073 206.747 254.786 L 216.500 254.500 220.691 246.500 C 241.381 207.003, 243.307 163.830, 226.281 121.232 C 204.715 67.275, 150.936 30.129, 89.500 26.755 C 86.200 26.574, 78.550 26.716, 72.500 27.072 M 99.355 46.092 C 99.723 47.966, 101.403 54.505, 103.090 60.622 L 106.157 71.744 114.360 68.936 C 122.681 66.087, 134.701 62.987, 145.378 60.935 L 151.255 59.805 146.959 57.365 C 135.110 50.634, 116.389 44.270, 105.593 43.303 L 98.687 42.684 99.355 46.092 M 154.627 75.075 C 142.012 77.296, 139.692 77.859, 123.276 82.687 L 111.052 86.282 115.502 94.891 C 121.042 105.606, 131.584 122, 132.936 122 C 133.491 122, 142.395 114.201, 152.722 104.669 C 163.050 95.136, 173.075 85.941, 175 84.235 L 178.500 81.132 174.547 77.066 C 169.987 72.375, 169.974 72.374, 154.627 75.075 M 86 96.404 C 74.290 101.697, 62.813 108.433, 53.150 115.683 L 45.800 121.198 48.729 124.349 C 50.340 126.082, 59.423 135.938, 68.915 146.250 C 78.406 156.563, 86.401 165, 86.681 165 C 86.960 165, 94.809 157.961, 104.122 149.358 C 120.438 134.286, 120.999 133.639, 119.517 131.608 C 116.632 127.655, 112.554 121.505, 111.156 119 C 108.218 113.733, 103.027 103.263, 100.620 97.750 C 99.240 94.588, 97.523 92.025, 96.805 92.055 C 96.087 92.086, 91.225 94.043, 86 96.404 M 172.500 109.638 C 163.150 118.225, 153.106 127.499, 150.180 130.248 L 144.861 135.245 147.680 138.231 C 151.207 141.965, 165.487 153.130, 169.500 155.291 C 171.150 156.179, 173.981 157.623, 175.791 158.500 L 179.083 160.094 181.920 153.797 C 187.494 141.427, 192.657 124.622, 195.974 108.048 C 197.023 102.808, 196.953 102.442, 194.165 98.592 C 192.569 96.390, 190.867 94.461, 190.382 94.307 C 189.897 94.152, 181.850 101.051, 172.500 109.638 M 206.562 127.123 C 204.194 136.996, 199.450 150.887, 195.440 159.694 L 192.165 166.888 198.832 169.388 C 205.944 172.055, 213.667 174.461, 218.398 175.485 L 221.297 176.113 220.610 167.871 C 219.597 155.725, 214.981 136.402, 210.279 124.623 L 208.332 119.747 206.562 127.123 M 119.930 157.895 C 113.017 164.278, 105.242 171.433, 102.653 173.796 L 97.945 178.092 115.611 197.296 C 125.328 207.858, 134.505 217.782, 136.006 219.348 L 138.735 222.196 146.442 213.348 C 157.426 200.740, 174.719 174.190, 172.939 172.669 C 172.697 172.463, 168.450 170.123, 163.500 167.470 C 152.697 161.679, 144.255 156.166, 137.500 150.491 L 132.500 146.290 119.930 157.895" stroke="none" fill="#ffd620" fill-rule="evenodd"/><path d="M 28.746 2.074 C 18.346 4.558, 8.977 12.404, 4.354 22.500 C 1.979 27.687, 1.548 30.096, 1.179 40.278 L 0.752 52.056 8.629 47.170 C 24.446 37.360, 39.238 31.822, 58.500 28.499 C 69.259 26.643, 93.377 26.385, 104 28.014 C 160.185 36.625, 206.610 72.016, 226.281 121.232 C 242.934 162.895, 241.552 204.171, 222.192 243.375 L 216.327 255.251 222.282 254.628 C 235.021 253.297, 246.214 245.258, 251.700 233.500 L 254.500 227.500 254.500 128 L 254.500 28.500 251.676 22.390 C 248.142 14.743, 241.310 7.944, 233.500 4.300 L 227.500 1.500 130 1.338 C 75.293 1.248, 30.852 1.570, 28.746 2.074 M 74 41.703 C 54.114 43.265, 31.014 52.156, 9.296 66.607 L 0.829 72.241 4.224 75.870 C 6.091 77.867, 13.170 85.575, 19.956 93 C 26.742 100.425, 33.069 107.329, 34.017 108.342 C 35.679 110.119, 36.023 109.975, 43.693 104.287 C 57.011 94.413, 78.238 82.652, 89.160 79.096 L 92.820 77.904 89.470 68.053 C 87.628 62.634, 85.596 55.343, 84.956 51.851 C 84.315 48.358, 83.605 44.487, 83.376 43.250 C 83.080 41.641, 82.327 41.050, 80.731 41.175 C 79.504 41.271, 76.475 41.509, 74 41.703 M 99.355 46.092 C 99.723 47.966, 101.403 54.505, 103.090 60.622 L 106.157 71.744 114.360 68.936 C 122.681 66.087, 134.701 62.987, 145.378 60.935 L 151.255 59.805 146.959 57.365 C 135.110 50.634, 116.389 44.270, 105.593 43.303 L 98.687 42.684 99.355 46.092 M 154.627 75.075 C 142.012 77.296, 139.692 77.859, 123.276 82.687 L 111.052 86.282 115.502 94.891 C 121.042 105.606, 131.584 122, 132.936 122 C 133.491 122, 142.395 114.201, 152.722 104.669 C 163.050 95.136, 173.075 85.941, 175 84.235 L 178.500 81.132 174.547 77.066 C 169.987 72.375, 169.974 72.374, 154.627 75.075 M 86 96.404 C 74.290 101.697, 62.813 108.433, 53.150 115.683 L 45.800 121.198 48.729 124.349 C 50.340 126.082, 59.423 135.938, 68.915 146.250 C 78.406 156.563, 86.401 165, 86.681 165 C 86.960 165, 94.809 157.961, 104.122 149.358 C 120.438 134.286, 120.999 133.639, 119.517 131.608 C 116.632 127.655, 112.554 121.505, 111.156 119 C 108.218 113.733, 103.027 103.263, 100.620 97.750 C 99.240 94.588, 97.523 92.025, 96.805 92.055 C 96.087 92.086, 91.225 94.043, 86 96.404 M 172.500 109.638 C 163.150 118.225, 153.106 127.499, 150.180 130.248 L 144.861 135.245 147.680 138.231 C 151.207 141.965, 165.487 153.130, 169.500 155.291 C 171.150 156.179, 173.981 157.623, 175.791 158.500 L 179.083 160.094 181.920 153.797 C 187.494 141.427, 192.657 124.622, 195.974 108.048 C 197.023 102.808, 196.953 102.442, 194.165 98.592 C 192.569 96.390, 190.867 94.461, 190.382 94.307 C 189.897 94.152, 181.850 101.051, 172.500 109.638 M 1.038 123.407 L 1 149.314 6.126 141.907 C 8.946 137.833, 13.972 131.711, 17.296 128.302 L 23.340 122.103 15.420 113.462 C 11.064 108.709, 6.054 103.174, 4.288 101.160 L 1.075 97.500 1.038 123.407 M 206.562 127.123 C 204.194 136.996, 199.450 150.887, 195.440 159.694 L 192.165 166.888 198.832 169.388 C 205.944 172.055, 213.667 174.461, 218.398 175.485 L 221.297 176.113 220.610 167.871 C 219.597 155.725, 214.981 136.402, 210.279 124.623 L 208.332 119.747 206.562 127.123 M 29.054 137.674 C 16.238 152.228, 1 176.051, 1 181.535 C 1 182.245, 4.487 184.707, 8.750 187.005 C 19.309 192.697, 29.594 199.601, 35.001 204.626 L 39.503 208.808 56.756 192.852 L 74.010 176.896 55.859 157.198 C 45.877 146.364, 36.718 136.453, 35.506 135.174 L 33.303 132.849 29.054 137.674 M 119.930 157.895 C 113.017 164.278, 105.242 171.433, 102.653 173.796 L 97.945 178.092 115.611 197.296 C 125.328 207.858, 134.505 217.782, 136.006 219.348 L 138.735 222.196 146.442 213.348 C 157.426 200.740, 174.719 174.190, 172.939 172.669 C 172.697 172.463, 168.450 170.123, 163.500 167.470 C 152.697 161.679, 144.255 156.166, 137.500 150.491 L 132.500 146.290 119.930 157.895 M 182.099 186.783 C 175.683 199.510, 161.912 219.633, 152.855 229.518 L 149.173 233.536 158.836 244.240 L 168.500 254.944 182.770 254.972 L 197.040 255 201.628 247.908 C 210.308 234.490, 216.613 218.908, 219.483 203.776 C 221.788 191.623, 221.718 191.268, 216.750 189.946 C 210.856 188.377, 195.372 183.086, 190.244 180.889 L 185.989 179.066 182.099 186.783 M 67.773 205.701 L 51.045 221.269 53.921 224.900 C 57.716 229.692, 65.884 243.242, 68.921 249.785 L 71.342 255 82.302 255 C 93.261 255, 93.264 254.999, 101.155 250.795 C 105.496 248.482, 112.898 243.700, 117.604 240.168 L 126.159 233.747 122.758 230.124 C 120.887 228.131, 111.804 218.287, 102.574 208.250 C 93.343 198.213, 85.500 190.030, 85.145 190.067 C 84.790 190.104, 76.973 197.139, 67.773 205.701 M 1.190 212.607 C 1.549 225.448, 1.926 228.223, 3.926 232.750 C 5.202 235.637, 6.535 238, 6.889 238 C 7.715 238, 28.437 219.217, 28.692 218.238 C 28.884 217.500, 23.389 213.367, 8.638 203.156 L 0.775 197.714 1.190 212.607 M 29.970 240.613 C 24.762 245.350, 20.369 249.568, 20.208 249.988 C 20.048 250.407, 21.848 251.557, 24.208 252.544 C 27.389 253.874, 32.091 254.454, 42.376 254.786 L 56.252 255.234 53.573 250.367 C 50.312 244.441, 41.255 232, 40.202 232 C 39.783 232, 35.179 235.876, 29.970 240.613 M 130.662 250.536 L 124.824 255 135.042 255 L 145.259 255 141.796 250.805 C 139.891 248.498, 137.920 246.490, 137.416 246.341 C 136.912 246.193, 133.873 248.081, 130.662 250.536" stroke="none" fill="#043a34" fill-rule="evenodd"/></svg>