<svg xmlns="http://www.w3.org/2000/svg" width="256" height="256" viewBox="0 0 256 256" version="1.1"><path d="M 28.746 2.074 C 18.376 4.551, 9.036 12.355, 4.301 22.500 L 1.500 28.500 1.500 128 L 1.500 227.500 4.665 234.180 C 7.545 240.260, 8.129 240.889, 11.165 241.180 C 13.990 241.451, 14.802 242.150, 16.476 245.754 C 18.226 249.522, 21.039 251.782, 23.250 251.198 C 23.663 251.089, 24 251.413, 24 251.917 C 24 253.535, 33.797 255.001, 44.299 254.956 C 54.204 254.913, 54.388 254.872, 50.625 253.531 C 45.775 251.802, 40 246.312, 40 243.430 C 40 242.232, 40.606 239.507, 41.348 237.376 C 42.089 235.244, 42.995 232.273, 43.361 230.772 C 43.990 228.196, 43.867 228.077, 41.136 228.623 C 37.804 229.289, 34 227.606, 34 225.465 C 34 224.562, 33.023 224, 31.455 224 C 28.962 224, 24 220.068, 24 218.092 C 24 217.543, 22.087 216.246, 19.750 215.209 C 14.232 212.763, 12.766 210.866, 12.639 206.003 C 12.565 203.200, 13.152 201.403, 14.621 199.935 C 16.679 197.876, 16.682 197.800, 14.854 194.213 C 12.514 189.624, 12.534 188.276, 15.004 184.226 C 16.102 182.425, 17 179.697, 17 178.164 C 17 175.102, 19.794 171.518, 22.966 170.511 C 24.605 169.991, 25 169.011, 25 165.466 C 25 161.751, 25.558 160.509, 28.587 157.479 C 30.561 155.506, 32.693 154.064, 33.327 154.276 C 34.016 154.505, 34.483 156.969, 34.489 160.412 C 34.499 165.638, 34.798 166.430, 37.766 169.082 C 39.562 170.687, 41.898 172, 42.957 172 C 45.814 172, 46.151 173.321, 44.493 178.019 C 38.982 193.639, 51.510 207.608, 72.099 208.800 C 84.650 209.526, 92.691 205.382, 97.197 195.866 C 106.272 176.699, 99.288 158.472, 81.435 154.727 C 76.762 153.747, 74.852 153.836, 69.291 155.295 C 65.662 156.247, 62.625 156.907, 62.543 156.763 C 58.449 149.531, 54.668 147.517, 45.890 147.889 C 44.454 147.950, 41.621 149.125, 39.595 150.500 C 34.821 153.740, 34 153.652, 34 149.901 C 34 145.602, 39.310 140.584, 42.941 141.451 C 49.833 143.099, 53.931 143.181, 56.837 141.731 C 59.688 140.309, 59.984 140.354, 62.013 142.513 C 64.813 145.495, 71.968 147.343, 75.504 145.998 C 77.717 145.157, 78.702 145.434, 81.737 147.750 C 84.632 149.959, 86.500 150.532, 91.226 150.663 C 96.128 150.799, 97.504 151.251, 99.470 153.373 C 102.249 156.372, 105.822 157.453, 110.465 156.699 C 113.480 156.210, 113.950 156.464, 115.083 159.200 C 116.521 162.672, 121.191 165.058, 126.218 164.890 C 129.316 164.787, 129.264 164.734, 125.297 163.951 C 119.249 162.756, 117.287 161.436, 115.914 157.639 C 114.778 154.498, 114.485 154.327, 111.430 155.016 C 105.711 156.306, 100.945 154.297, 98.235 149.456 C 97.495 148.134, 96.926 148.077, 94.680 149.100 C 91.237 150.669, 84.803 148.894, 81.325 145.416 C 79.295 143.386, 78.550 143.170, 76.801 144.106 C 73.341 145.958, 66.231 144.595, 62.949 141.451 L 60.050 138.674 56.192 140.413 C 50.003 143.204, 41 140.331, 41 135.565 C 41 132.579, 43.046 128.936, 45.299 127.910 C 47.158 127.062, 47.633 126.068, 47.615 123.057 C 47.587 118.278, 50.202 114.231, 54.471 112.447 L 57.787 111.062 56.323 106.813 C 54.643 101.934, 55.185 97.541, 58.207 91.547 C 60.422 87.153, 68.048 77.124, 69.231 77.047 C 69.633 77.021, 70.199 78.238, 70.488 79.750 C 71.336 84.182, 74.230 96.382, 74.778 97.838 C 75.708 100.309, 70.623 98.634, 69.198 96 L 67.846 93.500 68.389 96.041 C 68.843 98.159, 68.365 98.887, 65.519 100.420 C 62.080 102.272, 58.457 108.060, 59.338 110.295 C 59.599 110.958, 60.138 110.029, 60.535 108.230 C 61.637 103.243, 66.410 99.733, 71.431 100.217 C 74.743 100.537, 75.834 100.188, 77.293 98.342 C 79.654 95.357, 85.036 94.373, 88.781 96.241 C 91.390 97.542, 91.895 97.503, 93.947 95.842 C 96.736 93.583, 102.083 93.471, 106.521 95.577 C 109.131 96.815, 110.303 96.908, 111.981 96.010 C 115.056 94.364, 119.985 95.717, 123.664 99.216 C 125.404 100.871, 127.306 101.929, 127.891 101.568 C 128.475 101.206, 130.794 101.406, 133.044 102.012 C 136.005 102.809, 137.678 104.035, 139.104 106.452 C 140.505 108.826, 142.043 109.973, 144.425 110.420 C 148.688 111.220, 152.999 115.475, 153.003 118.886 C 153.005 120.862, 153.898 121.989, 156.660 123.500 C 158.670 124.600, 161.143 127.068, 162.157 128.984 C 163.171 130.901, 164 131.788, 164 130.957 C 164 130.125, 163.305 128.453, 162.455 127.240 C 161.207 125.457, 161.139 124.601, 162.103 122.767 C 164.167 118.839, 173.335 106, 174.076 106 C 174.742 106, 177.299 115.853, 178.358 122.500 C 179.494 129.628, 175.458 139.890, 170.021 143.698 C 168.003 145.112, 167.724 145.051, 166.189 142.861 C 164.039 139.794, 164.536 137.292, 168.103 133.230 C 171.570 129.281, 171.936 127.772, 168.686 130.826 C 167.413 132.022, 165.838 133, 165.186 133 C 164.533 133, 163.993 134.012, 163.985 135.250 C 163.976 136.488, 163.547 138.168, 163.031 138.985 C 162.362 140.042, 162.720 141.138, 164.273 142.791 C 167.299 146.011, 167.285 152.541, 164.247 155.001 C 162.260 156.610, 162.198 156.919, 163.624 158.103 C 167.492 161.313, 167.062 168.826, 162.882 171.063 C 161.382 171.866, 161.191 172.488, 161.987 173.976 C 163.704 177.184, 163.164 182.197, 160.835 184.676 C 158.977 186.653, 158.835 187.343, 159.835 189.537 C 160.476 190.943, 161 193.220, 161 194.597 C 161 197.739, 158.552 202.574, 156.578 203.332 C 155.407 203.781, 155.213 205.004, 155.683 208.973 C 156.264 213.881, 156.159 214.158, 152.343 217.788 C 148.753 221.204, 148.439 221.912, 148.807 225.769 C 149.160 229.473, 148.823 230.363, 146.105 232.902 C 144.207 234.675, 143 236.790, 143 238.345 C 143 241.533, 139.632 244, 135.277 244 C 133.160 244, 132 244.488, 132 245.378 C 132 247.305, 129.846 248.881, 126.221 249.606 C 123.796 250.091, 122.624 249.716, 120.765 247.862 C 118.818 245.918, 115.134 244.436, 108.308 242.851 C 107.864 242.748, 105.837 243.010, 103.805 243.433 C 101.152 243.985, 99.206 243.751, 96.902 242.601 C 93.200 240.754, 86.506 240.392, 87.559 242.095 C 87.931 242.697, 87.283 244.479, 86.118 246.055 C 84.953 247.630, 84 249.239, 84 249.631 C 84 250.022, 83.253 251.168, 82.339 252.177 C 81.426 253.187, 81.001 254.334, 81.394 254.727 C 81.787 255.120, 82.569 254.780, 83.131 253.971 C 83.904 252.858, 84.276 252.804, 84.659 253.750 C 85.260 255.229, 90 255.451, 90 254 C 90 253.450, 90.477 253, 91.059 253 C 91.641 253, 91.840 253.450, 91.500 254 C 91.160 254.550, 91.809 255, 92.941 255 C 94.073 255, 94.888 254.663, 94.750 254.250 C 94.613 253.838, 94.950 253.500, 95.500 253.500 C 96.050 253.500, 96.387 253.838, 96.250 254.250 C 95.820 255.539, 98.802 255.068, 99.417 253.750 C 99.883 252.750, 100.117 252.750, 100.583 253.750 C 100.960 254.557, 103.411 255, 107.500 255 C 111.676 255, 113.977 254.574, 114.254 253.750 C 114.588 252.759, 114.999 252.767, 116.239 253.790 C 117.483 254.818, 128.991 255.022, 172.651 254.790 L 227.500 254.500 233.610 251.676 C 241.257 248.142, 248.056 241.310, 251.700 233.500 L 254.500 227.500 254.500 128 L 254.500 28.500 251.676 22.390 C 248.142 14.743, 241.310 7.944, 233.500 4.300 L 227.500 1.500 130 1.338 C 75.293 1.248, 30.852 1.570, 28.746 2.074 M 152.223 18.557 C 148.241 21.345, 149.433 23.978, 158.980 33.480 L 167.959 42.418 158.980 51.574 C 149.729 61.007, 148.572 63.397, 151.829 66.345 C 155.436 69.610, 157.856 68.415, 168.228 58.250 C 178.622 48.064, 181.481 44.091, 180.543 41.137 C 179.758 38.663, 157.619 17, 155.876 17 C 155.089 17, 153.445 17.701, 152.223 18.557 M 190 58.256 C 187.188 59.707, 186.124 64.240, 188.050 66.560 C 189.898 68.786, 229.190 68.667, 231.429 66.429 C 233.379 64.478, 233.434 61.977, 231.582 59.441 C 230.279 57.656, 228.648 57.478, 211.332 57.232 C 197.461 57.035, 191.841 57.305, 190 58.256 M 50.035 152.934 C 48.539 155.730, 48.754 157.467, 50.829 159.345 C 53.112 161.411, 55.905 161.455, 58.741 159.469 C 60.604 158.164, 60.775 157.539, 59.901 155.239 C 58.651 151.951, 57.325 151.035, 53.785 151.015 C 52.113 151.006, 50.673 151.743, 50.035 152.934 M 71.139 156.184 C 63.388 157.517, 50.885 167.520, 46.590 175.826 C 44.283 180.288, 43.558 187.131, 44.948 191.342 C 46.498 196.039, 54.693 203.359, 60.756 205.461 C 67.301 207.731, 77.590 208.478, 82.807 207.061 C 92.444 204.445, 98.976 194.401, 99.754 181 C 100.149 174.208, 99.917 172.982, 97.301 168.015 C 92.464 158.834, 82.343 154.257, 71.139 156.184 M 113.458 168.880 C 111.235 169.890, 108.610 171.946, 107.625 173.450 C 105.620 176.509, 105.238 183.708, 106.915 186.840 C 108.808 190.378, 113.774 193.121, 119.323 193.694 C 125.237 194.304, 128.859 192.947, 132.924 188.595 C 134.258 187.168, 135.993 186, 136.781 186 C 137.677 186, 137.986 185.407, 137.607 184.418 C 137.273 183.548, 137 181.277, 137 179.370 C 137 175.333, 133.780 171.779, 127.500 168.886 C 122.443 166.557, 118.576 166.555, 113.458 168.880 M 68.541 172.934 C 68.149 173.568, 68.385 174.759, 69.065 175.579 C 70.863 177.745, 68.493 187.598, 65.440 190.651 C 61.482 194.609, 55 192.919, 55 187.929 C 55 186.868, 54.501 186, 53.892 186 C 52.641 186, 53.532 190.731, 55.149 192.680 C 56.672 194.514, 61.643 195.261, 63.985 194.008 C 65.787 193.044, 66.497 193.320, 68.945 195.941 C 71.198 198.353, 72.637 199, 75.746 199 C 79.796 199, 83.022 196.735, 82.978 193.921 C 82.964 193.038, 82.253 193.414, 81.098 194.917 C 77.462 199.646, 69 196.925, 69 191.027 C 69 189.562, 69.678 186.081, 70.506 183.292 C 71.870 178.697, 72.341 178.159, 75.506 177.565 C 77.428 177.204, 79 176.535, 79 176.077 C 79 173.450, 69.910 170.718, 68.541 172.934 M 126.165 173.597 C 123.135 175.720, 123.642 179.665, 127.296 182.381 C 129.876 184.299, 130.300 184.342, 132.796 182.946 C 136.244 181.017, 136.659 178.107, 133.972 174.691 C 131.551 171.613, 129.423 171.315, 126.165 173.597 M 10 225 C 4.484 230.516, 12.252 240.572, 19.201 236.912 C 22.288 235.285, 22.967 234.091, 22.985 230.250 C 23.005 225.915, 19.996 223, 15.500 223 C 13.333 223, 11.238 223.762, 10 225 M 32 235.059 C 32 235.641, 32.450 235.840, 33 235.500 C 33.550 235.160, 34 234.684, 34 234.441 C 34 234.198, 33.550 234, 33 234 C 32.450 234, 32 234.477, 32 235.059 M 25.543 235.931 C 24.860 237.036, 26.437 238.230, 27.361 237.306 C 28.311 236.355, 28.134 235, 27.059 235 C 26.541 235, 25.859 235.419, 25.543 235.931 M 37.510 237.016 C 37.856 237.575, 38.557 237.774, 39.069 237.457 C 40.456 236.600, 40.198 236, 38.441 236 C 37.584 236, 37.165 236.457, 37.510 237.016 M 36 241 C 36 241.550, 36.450 242, 37 242 C 37.550 242, 38 241.550, 38 241 C 38 240.450, 37.550 240, 37 240 C 36.450 240, 36 240.450, 36 241 M 93 245 C 93 245.550, 93.450 246, 94 246 C 94.550 246, 95 245.550, 95 245 C 95 244.450, 94.550 244, 94 244 C 93.450 244, 93 244.450, 93 245 M 34.813 245.683 C 35.534 245.972, 36.397 245.936, 36.729 245.604 C 37.061 245.272, 36.471 245.036, 35.417 245.079 C 34.252 245.127, 34.015 245.364, 34.813 245.683 M 23 247.500 C 23 248.325, 23.450 249, 24 249 C 24.550 249, 25 248.325, 25 247.500 C 25 246.675, 24.550 246, 24 246 C 23.450 246, 23 246.675, 23 247.500 M 19.500 248 C 19.840 248.550, 20.316 249, 20.559 249 C 20.802 249, 21 248.550, 21 248 C 21 247.450, 20.523 247, 19.941 247 C 19.359 247, 19.160 247.450, 19.500 248 M 86 249.500 C 86 250.325, 86.177 251, 86.393 251 C 86.609 251, 87.045 250.325, 87.362 249.500 C 87.678 248.675, 87.501 248, 86.969 248 C 86.436 248, 86 248.675, 86 249.500 M 91 248.941 C 91 249.459, 91.450 250.160, 92 250.500 C 92.550 250.840, 93 250.416, 93 249.559 C 93 248.702, 92.550 248, 92 248 C 91.450 248, 91 248.423, 91 248.941 M 96 249 C 96 249.550, 96.450 250, 97 250 C 97.550 250, 98 249.550, 98 249 C 98 248.450, 97.550 248, 97 248 C 96.450 248, 96 248.450, 96 249" stroke="none" fill="#003936" fill-rule="evenodd"/><path d="M 152.223 18.557 C 148.241 21.345, 149.433 23.978, 158.980 33.480 L 167.959 42.418 158.980 51.574 C 149.729 61.007, 148.572 63.397, 151.829 66.345 C 155.436 69.610, 157.856 68.415, 168.228 58.250 C 178.622 48.064, 181.481 44.091, 180.543 41.137 C 179.758 38.663, 157.619 17, 155.876 17 C 155.089 17, 153.445 17.701, 152.223 18.557 M 190 58.256 C 187.188 59.707, 186.124 64.240, 188.050 66.560 C 189.898 68.786, 229.190 68.667, 231.429 66.429 C 233.379 64.478, 233.434 61.977, 231.582 59.441 C 230.279 57.656, 228.648 57.478, 211.332 57.232 C 197.461 57.035, 191.841 57.305, 190 58.256 M 64.374 82.297 C 56.318 92.455, 53.907 99.798, 56.323 106.813 L 57.787 111.062 54.471 112.447 C 50.202 114.231, 47.587 118.278, 47.615 123.057 C 47.633 126.068, 47.158 127.062, 45.299 127.910 C 43.046 128.936, 41 132.579, 41 135.565 C 41 140.331, 50.003 143.204, 56.192 140.413 L 60.050 138.674 62.949 141.451 C 66.231 144.595, 73.341 145.958, 76.801 144.106 C 78.550 143.170, 79.295 143.386, 81.325 145.416 C 84.803 148.894, 91.237 150.669, 94.680 149.100 C 96.926 148.077, 97.495 148.134, 98.235 149.456 C 100.945 154.297, 105.711 156.306, 111.430 155.016 C 114.485 154.327, 114.778 154.498, 115.914 157.639 C 117.287 161.436, 119.249 162.756, 125.297 163.951 C 129.264 164.734, 129.316 164.787, 126.218 164.890 C 121.191 165.058, 116.521 162.672, 115.083 159.200 C 113.950 156.464, 113.480 156.210, 110.465 156.699 C 105.822 157.453, 102.249 156.372, 99.470 153.373 C 97.504 151.251, 96.128 150.799, 91.226 150.663 C 86.500 150.532, 84.632 149.959, 81.737 147.750 C 78.702 145.434, 77.717 145.157, 75.504 145.998 C 71.968 147.343, 64.813 145.495, 62.013 142.513 C 59.984 140.354, 59.688 140.309, 56.837 141.731 C 53.931 143.181, 49.833 143.099, 42.941 141.451 C 39.310 140.584, 34 145.602, 34 149.901 C 34 153.652, 34.821 153.740, 39.595 150.500 C 41.621 149.125, 44.454 147.950, 45.890 147.889 C 54.668 147.517, 58.449 149.531, 62.543 156.763 C 62.625 156.907, 65.662 156.247, 69.291 155.295 C 93.170 149.032, 108.689 171.594, 97.197 195.866 C 92.691 205.382, 84.650 209.526, 72.099 208.800 C 51.510 207.608, 38.982 193.639, 44.493 178.019 C 46.151 173.321, 45.814 172, 42.957 172 C 41.898 172, 39.562 170.687, 37.766 169.082 C 34.798 166.430, 34.499 165.638, 34.489 160.412 C 34.483 156.969, 34.016 154.505, 33.327 154.276 C 32.693 154.064, 30.561 155.506, 28.587 157.479 C 25.558 160.509, 25 161.751, 25 165.466 C 25 169.011, 24.605 169.991, 22.966 170.511 C 19.794 171.518, 17 175.102, 17 178.164 C 17 179.697, 16.102 182.425, 15.004 184.226 C 12.534 188.276, 12.514 189.624, 14.854 194.213 C 16.682 197.800, 16.679 197.876, 14.621 199.935 C 13.152 201.403, 12.565 203.200, 12.639 206.003 C 12.766 210.866, 14.232 212.763, 19.750 215.209 C 22.087 216.246, 24 217.543, 24 218.092 C 24 220.068, 28.962 224, 31.455 224 C 33.023 224, 34 224.562, 34 225.465 C 34 227.606, 37.804 229.289, 41.136 228.623 C 43.867 228.077, 43.990 228.196, 43.361 230.772 C 42.995 232.273, 42.089 235.244, 41.348 237.376 C 39.220 243.495, 39.641 245.443, 43.929 249.317 C 49.152 254.035, 53.163 254.988, 67.840 254.994 C 79.417 255, 80.295 254.861, 82.056 252.750 C 83.089 251.512, 83.948 250.144, 83.967 249.710 C 83.985 249.275, 84.953 247.630, 86.118 246.055 C 87.283 244.479, 87.931 242.697, 87.559 242.095 C 86.506 240.392, 93.200 240.754, 96.902 242.601 C 99.206 243.751, 101.152 243.985, 103.805 243.433 C 105.837 243.010, 107.864 242.748, 108.308 242.851 C 115.134 244.436, 118.818 245.918, 120.765 247.862 C 122.624 249.716, 123.796 250.091, 126.221 249.606 C 129.846 248.881, 132 247.305, 132 245.378 C 132 244.488, 133.160 244, 135.277 244 C 139.632 244, 143 241.533, 143 238.345 C 143 236.790, 144.207 234.675, 146.105 232.902 C 148.823 230.363, 149.160 229.473, 148.807 225.769 C 148.439 221.912, 148.753 221.204, 152.343 217.788 C 156.159 214.158, 156.264 213.881, 155.683 208.973 C 155.213 205.004, 155.407 203.781, 156.578 203.332 C 158.552 202.574, 161 197.739, 161 194.597 C 161 193.220, 160.476 190.943, 159.835 189.537 C 158.835 187.343, 158.977 186.653, 160.835 184.676 C 163.164 182.197, 163.704 177.184, 161.987 173.976 C 161.191 172.488, 161.382 171.866, 162.882 171.063 C 167.062 168.826, 167.492 161.313, 163.624 158.103 C 162.198 156.919, 162.260 156.610, 164.247 155.001 C 167.285 152.541, 167.299 146.011, 164.273 142.791 C 162.720 141.138, 162.362 140.042, 163.031 138.985 C 163.547 138.168, 163.976 136.488, 163.985 135.250 C 163.993 134.012, 164.533 133, 165.186 133 C 165.838 133, 167.413 132.022, 168.686 130.826 C 171.936 127.772, 171.570 129.281, 168.103 133.230 C 164.536 137.292, 164.039 139.794, 166.189 142.861 C 167.724 145.051, 168.003 145.112, 170.021 143.698 C 175.458 139.890, 179.494 129.628, 178.358 122.500 C 177.299 115.853, 174.742 106, 174.076 106 C 173.335 106, 164.167 118.839, 162.103 122.767 C 161.139 124.601, 161.207 125.457, 162.455 127.240 C 163.305 128.453, 164 130.125, 164 130.957 C 164 131.788, 163.171 130.901, 162.157 128.984 C 161.143 127.068, 158.670 124.600, 156.660 123.500 C 153.898 121.989, 153.005 120.862, 153.003 118.886 C 152.999 115.475, 148.688 111.220, 144.425 110.420 C 142.043 109.973, 140.505 108.826, 139.104 106.452 C 137.678 104.035, 136.005 102.809, 133.044 102.012 C 130.794 101.406, 128.475 101.206, 127.891 101.568 C 127.306 101.929, 125.404 100.871, 123.664 99.216 C 119.985 95.717, 115.056 94.364, 111.981 96.010 C 110.303 96.908, 109.131 96.815, 106.521 95.577 C 102.083 93.471, 96.736 93.583, 93.947 95.842 C 91.895 97.503, 91.390 97.542, 88.781 96.241 C 85.036 94.373, 79.654 95.357, 77.293 98.342 C 75.834 100.188, 74.743 100.537, 71.431 100.217 C 66.410 99.733, 61.637 103.243, 60.535 108.230 C 60.138 110.029, 59.599 110.958, 59.338 110.295 C 58.457 108.060, 62.080 102.272, 65.519 100.420 C 68.365 98.887, 68.843 98.159, 68.389 96.041 L 67.846 93.500 69.198 96 C 70.623 98.634, 75.708 100.309, 74.778 97.838 C 74.230 96.382, 71.336 84.182, 70.488 79.750 C 70.199 78.237, 69.633 77.021, 69.231 77.047 C 68.829 77.073, 66.643 79.436, 64.374 82.297 M 50.035 152.934 C 48.539 155.730, 48.754 157.467, 50.829 159.345 C 53.112 161.411, 55.905 161.455, 58.741 159.469 C 60.604 158.164, 60.775 157.539, 59.901 155.239 C 58.651 151.951, 57.325 151.035, 53.785 151.015 C 52.113 151.006, 50.673 151.743, 50.035 152.934 M 71.139 156.184 C 63.388 157.517, 50.885 167.520, 46.590 175.826 C 44.283 180.288, 43.558 187.131, 44.948 191.342 C 46.498 196.039, 54.693 203.359, 60.756 205.461 C 67.301 207.731, 77.590 208.478, 82.807 207.061 C 92.444 204.445, 98.976 194.401, 99.754 181 C 100.149 174.208, 99.917 172.982, 97.301 168.015 C 92.464 158.834, 82.343 154.257, 71.139 156.184 M 113.458 168.880 C 111.235 169.890, 108.610 171.946, 107.625 173.450 C 105.620 176.509, 105.238 183.708, 106.915 186.840 C 108.808 190.378, 113.774 193.121, 119.323 193.694 C 125.237 194.304, 128.859 192.947, 132.924 188.595 C 134.258 187.168, 135.993 186, 136.781 186 C 137.677 186, 137.986 185.407, 137.607 184.418 C 137.273 183.548, 137 181.277, 137 179.370 C 137 175.333, 133.780 171.779, 127.500 168.886 C 122.443 166.557, 118.576 166.555, 113.458 168.880 M 68.541 172.934 C 68.149 173.568, 68.385 174.759, 69.065 175.579 C 70.863 177.745, 68.493 187.598, 65.440 190.651 C 61.482 194.609, 55 192.919, 55 187.929 C 55 186.868, 54.501 186, 53.892 186 C 52.641 186, 53.532 190.731, 55.149 192.680 C 56.672 194.514, 61.643 195.261, 63.985 194.008 C 65.787 193.044, 66.497 193.320, 68.945 195.941 C 71.198 198.353, 72.637 199, 75.746 199 C 79.796 199, 83.022 196.735, 82.978 193.921 C 82.964 193.038, 82.253 193.414, 81.098 194.917 C 77.462 199.646, 69 196.925, 69 191.027 C 69 189.562, 69.678 186.081, 70.506 183.292 C 71.870 178.697, 72.341 178.159, 75.506 177.565 C 77.428 177.204, 79 176.535, 79 176.077 C 79 173.450, 69.910 170.718, 68.541 172.934 M 126.165 173.597 C 123.135 175.720, 123.642 179.665, 127.296 182.381 C 129.876 184.299, 130.300 184.342, 132.796 182.946 C 136.244 181.017, 136.659 178.107, 133.972 174.691 C 131.551 171.613, 129.423 171.315, 126.165 173.597 M 10 225 C 4.484 230.516, 12.252 240.572, 19.201 236.912 C 22.288 235.285, 22.967 234.091, 22.985 230.250 C 23.005 225.915, 19.996 223, 15.500 223 C 13.333 223, 11.238 223.762, 10 225 M 32 235.059 C 32 235.641, 32.450 235.840, 33 235.500 C 33.550 235.160, 34 234.684, 34 234.441 C 34 234.198, 33.550 234, 33 234 C 32.450 234, 32 234.477, 32 235.059 M 25.543 235.931 C 24.860 237.036, 26.437 238.230, 27.361 237.306 C 28.311 236.355, 28.134 235, 27.059 235 C 26.541 235, 25.859 235.419, 25.543 235.931 M 37.510 237.016 C 37.856 237.575, 38.557 237.774, 39.069 237.457 C 40.456 236.600, 40.198 236, 38.441 236 C 37.584 236, 37.165 236.457, 37.510 237.016 M 36 241 C 36 241.550, 36.450 242, 37 242 C 37.550 242, 38 241.550, 38 241 C 38 240.450, 37.550 240, 37 240 C 36.450 240, 36 240.450, 36 241 M 12.716 245.136 C 17.525 250.003, 18.712 249.939, 16.220 244.946 C 14.919 242.340, 13.769 241.423, 11.500 241.185 L 8.500 240.870 12.716 245.136 M 93 245 C 93 245.550, 93.450 246, 94 246 C 94.550 246, 95 245.550, 95 245 C 95 244.450, 94.550 244, 94 244 C 93.450 244, 93 244.450, 93 245 M 34.813 245.683 C 35.534 245.972, 36.397 245.936, 36.729 245.604 C 37.061 245.272, 36.471 245.036, 35.417 245.079 C 34.252 245.127, 34.015 245.364, 34.813 245.683 M 23 247.500 C 23 248.325, 23.450 249, 24 249 C 24.550 249, 25 248.325, 25 247.500 C 25 246.675, 24.550 246, 24 246 C 23.450 246, 23 246.675, 23 247.500 M 19.500 248 C 19.840 248.550, 20.316 249, 20.559 249 C 20.802 249, 21 248.550, 21 248 C 21 247.450, 20.523 247, 19.941 247 C 19.359 247, 19.160 247.450, 19.500 248 M 86 249.500 C 86 250.325, 86.177 251, 86.393 251 C 86.609 251, 87.045 250.325, 87.362 249.500 C 87.678 248.675, 87.501 248, 86.969 248 C 86.436 248, 86 248.675, 86 249.500 M 91 248.941 C 91 249.459, 91.450 250.160, 92 250.500 C 92.550 250.840, 93 250.416, 93 249.559 C 93 248.702, 92.550 248, 92 248 C 91.450 248, 91 248.423, 91 248.941 M 96 249 C 96 249.550, 96.450 250, 97 250 C 97.550 250, 98 249.550, 98 249 C 98 248.450, 97.550 248, 97 248 C 96.450 248, 96 248.450, 96 249 M 94.553 252.915 C 94.231 253.436, 94.394 254.125, 94.915 254.447 C 95.436 254.769, 96.125 254.606, 96.447 254.085 C 96.769 253.564, 96.606 252.875, 96.085 252.553 C 95.564 252.231, 94.875 252.394, 94.553 252.915 M 83 254 C 83 254.550, 83.450 255, 84 255 C 84.550 255, 85 254.550, 85 254 C 85 253.450, 84.550 253, 84 253 C 83.450 253, 83 253.450, 83 254 M 90 254.059 C 90 254.641, 90.450 254.840, 91 254.500 C 91.550 254.160, 92 253.684, 92 253.441 C 92 253.198, 91.550 253, 91 253 C 90.450 253, 90 253.477, 90 254.059 M 99 254 C 99 254.550, 99.450 255, 100 255 C 100.550 255, 101 254.550, 101 254 C 101 253.450, 100.550 253, 100 253 C 99.450 253, 99 253.450, 99 254 M 114 254 C 114 254.550, 114.702 255, 115.559 255 C 116.416 255, 116.840 254.550, 116.500 254 C 116.160 253.450, 115.459 253, 114.941 253 C 114.423 253, 114 253.450, 114 254" stroke="none" fill="#ffd620" fill-rule="evenodd"/></svg>