<svg xmlns="http://www.w3.org/2000/svg" width="256" height="256" viewBox="0 0 256 256" version="1.1"><path d="M 71 30.681 C 46.506 34.680, 25.478 42.563, 7.913 54.330 L 1.500 58.626 1.235 89.429 L 0.971 120.232 19.988 101.116 C 30.448 90.602, 39.463 82, 40.023 82 C 40.582 82, 50.368 91.334, 61.770 102.742 C 73.171 114.151, 83.991 124.797, 85.814 126.402 L 89.127 129.319 113.583 104.937 L 138.039 80.556 161.020 103.520 C 173.659 116.150, 184 126.925, 184 127.465 C 184 128.005, 173.425 139.055, 160.500 152.021 C 147.575 164.987, 137 176.171, 137 176.874 C 137 177.577, 146.563 187.719, 158.250 199.411 C 169.938 211.103, 180.605 221.883, 181.955 223.367 L 184.409 226.065 169.968 240.532 L 155.526 255 185.092 255 L 214.659 255 221.254 241.250 C 227.404 228.429, 230.231 220.315, 233.708 205.500 C 234.489 202.169, 235.366 191.270, 235.678 181 C 236.179 164.509, 235.998 161.251, 234.007 151 C 228.820 124.289, 219.121 103.188, 202.979 83.500 C 179.639 55.031, 144.999 35.692, 109 31.033 C 101.729 30.091, 76.064 29.854, 71 30.681 M 1 176.500 L 1 216.481 20.500 197 C 31.225 186.286, 40 177.061, 40 176.500 C 40 175.939, 31.225 166.714, 20.500 156 L 1 136.519 1 176.500 M 74 240.500 L 59.526 255 89.500 255 L 119.474 255 105 240.500 C 97.039 232.525, 90.064 226, 89.500 226 C 88.936 226, 81.961 232.525, 74 240.500" stroke="none" fill="#ffd620" fill-rule="evenodd"/><path d="M 28.746 2.074 C 18.362 4.554, 9.008 12.378, 4.326 22.500 C 1.752 28.065, 1.523 29.611, 1.167 43.807 L 0.784 59.113 7.545 54.579 C 22.126 44.800, 40.046 37.217, 58.848 32.870 C 69.810 30.335, 94.126 29.320, 107.096 30.855 C 163.307 37.508, 211.309 76.833, 228.873 130.619 C 230.469 135.503, 232.779 144.675, 234.007 151 C 235.998 161.251, 236.179 164.509, 235.678 181 C 235.366 191.270, 234.489 202.169, 233.708 205.500 C 230.230 220.318, 227.422 228.405, 221.429 240.862 C 217.893 248.211, 215 254.464, 215 254.757 C 215 255.050, 217.948 255.014, 221.552 254.677 C 234.833 253.437, 246.087 245.532, 251.700 233.500 L 254.500 227.500 254.500 128 L 254.500 28.500 251.676 22.390 C 248.142 14.743, 241.310 7.944, 233.500 4.300 L 227.500 1.500 130 1.338 C 75.293 1.248, 30.852 1.570, 28.746 2.074 M 113.583 104.937 L 89.127 129.319 85.814 126.402 C 83.991 124.797, 73.171 114.151, 61.770 102.742 C 50.368 91.334, 40.582 82, 40.023 82 C 39.463 82, 30.455 90.596, 20.003 101.101 L 1 120.202 1 128.361 L 1 136.519 20.500 156 C 31.225 166.714, 40 175.939, 40 176.500 C 40 177.061, 31.189 186.290, 20.419 197.010 L 0.839 216.500 1.417 222.368 C 2.656 234.965, 10.774 246.250, 22.500 251.679 C 28.098 254.270, 29.539 254.479, 44 254.799 L 59.500 255.141 73.987 240.571 C 81.955 232.557, 88.936 226, 89.500 226 C 90.064 226, 97.039 232.525, 105 240.500 L 119.474 255 137.500 255 L 155.526 255 169.968 240.532 L 184.409 226.065 181.955 223.367 C 180.605 221.883, 169.938 211.103, 158.250 199.411 C 146.563 187.719, 137 177.577, 137 176.874 C 137 176.171, 147.575 164.987, 160.500 152.021 C 173.425 139.055, 184 128.005, 184 127.465 C 184 126.925, 173.659 116.150, 161.020 103.520 L 138.039 80.556 113.583 104.937" stroke="none" fill="#043e36" fill-rule="evenodd"/></svg>