<svg xmlns="http://www.w3.org/2000/svg" width="256" height="256" viewBox="0 0 256 256" version="1.1"><path d="M 28.746 2.074 C 18.376 4.551, 9.036 12.355, 4.301 22.500 L 1.500 28.500 1.500 128 L 1.500 227.500 4.300 233.500 C 7.944 241.310, 14.743 248.142, 22.390 251.676 L 28.500 254.500 128 254.500 L 227.500 254.500 233.610 251.676 C 241.257 248.142, 248.056 241.310, 251.700 233.500 L 254.500 227.500 254.500 128 L 254.500 28.500 251.676 22.390 C 248.142 14.743, 241.310 7.944, 233.500 4.300 L 227.500 1.500 130 1.338 C 75.293 1.248, 30.852 1.570, 28.746 2.074 M 110.500 34.411 C 87.873 38.817, 63.673 54.617, 51.629 72.848 C 40.202 90.142, 35.964 103.281, 35.289 123.500 C 34.770 139.062, 36.508 149.755, 41.642 162.579 C 47.231 176.538, 60.626 193.300, 73.648 202.627 C 82.110 208.687, 96.781 215.389, 107.230 217.966 C 120.087 221.137, 137.108 220.973, 150.491 217.549 C 177.856 210.548, 200.007 192.941, 212.237 168.470 C 231.871 129.185, 221.065 80.505, 186.630 53.103 C 178.291 46.468, 163.145 38.801, 152.851 36.005 C 142.330 33.148, 121.094 32.348, 110.500 34.411 M 82 80.500 L 67.525 95.001 82.763 110.262 C 91.143 118.656, 98 125.963, 98 126.500 C 98 127.037, 91.141 134.346, 82.758 142.742 L 67.516 158.008 82.254 172.746 L 96.992 187.484 112.258 172.242 C 120.654 163.859, 127.963 157, 128.500 157 C 129.037 157, 136.346 163.859, 144.742 172.242 L 160.008 187.484 174.746 172.746 L 189.484 158.008 174.242 142.742 C 165.859 134.346, 159 127.037, 159 126.500 C 159 125.963, 165.859 118.654, 174.242 110.258 L 189.484 94.992 174.761 80.269 L 160.038 65.546 144.696 80.773 C 136.258 89.148, 128.932 96, 128.415 96 C 127.898 96, 120.736 89.250, 112.500 81 C 104.264 72.750, 97.289 66, 97 66 C 96.711 66, 89.961 72.525, 82 80.500" stroke="none" fill="#003936" fill-rule="evenodd"/><path d="M 110.500 34.411 C 87.873 38.817, 63.673 54.617, 51.629 72.848 C 40.202 90.142, 35.964 103.281, 35.289 123.500 C 34.770 139.062, 36.508 149.755, 41.642 162.579 C 47.231 176.538, 60.626 193.300, 73.648 202.627 C 82.110 208.687, 96.781 215.389, 107.230 217.966 C 120.087 221.137, 137.108 220.973, 150.491 217.549 C 177.856 210.548, 200.007 192.941, 212.237 168.470 C 231.871 129.185, 221.065 80.505, 186.630 53.103 C 178.291 46.468, 163.145 38.801, 152.851 36.005 C 142.330 33.148, 121.094 32.348, 110.500 34.411 M 82 80.500 L 67.525 95.001 82.763 110.262 C 91.143 118.656, 98 125.963, 98 126.500 C 98 127.037, 91.141 134.346, 82.758 142.742 L 67.516 158.008 82.254 172.746 L 96.992 187.484 112.258 172.242 C 120.654 163.859, 127.963 157, 128.500 157 C 129.037 157, 136.346 163.859, 144.742 172.242 L 160.008 187.484 174.746 172.746 L 189.484 158.008 174.242 142.742 C 165.859 134.346, 159 127.037, 159 126.500 C 159 125.963, 165.859 118.654, 174.242 110.258 L 189.484 94.992 174.761 80.269 L 160.038 65.546 144.696 80.773 C 136.258 89.148, 128.932 96, 128.415 96 C 127.898 96, 120.736 89.250, 112.500 81 C 104.264 72.750, 97.289 66, 97 66 C 96.711 66, 89.961 72.525, 82 80.500" stroke="none" fill="#ffd620" fill-rule="evenodd"/></svg>